<svg width="18" height="20" viewBox="0 0 18 20" fill="none" xmlns="http://www.w3.org/2000/svg">
<path d="M12.5653 19.9516C12.3435 19.9516 12.1309 19.8604 11.9741 19.698C11.8173 19.5357 11.7292 19.3155 11.7292 19.0859V15.7355C11.7606 15.4348 11.7274 15.1306 11.632 14.8447C11.5366 14.5589 11.3814 14.2984 11.1774 14.0819C11.0742 13.9682 11.0026 13.8277 10.9703 13.6753C10.9379 13.5229 10.9459 13.3642 10.9934 13.2162C11.047 13.0648 11.1404 12.9319 11.263 12.8324C11.3856 12.733 11.5326 12.671 11.6874 12.6534C14.0954 12.3677 16.3277 11.5453 16.3277 7.45903C16.3258 6.47372 15.961 5.52626 15.3077 4.80988C15.2045 4.69613 15.133 4.55563 15.1006 4.40323C15.0682 4.25084 15.0762 4.09221 15.1238 3.94414C15.3873 3.25166 15.4283 2.48968 15.2408 1.77114C14.4475 2.00657 13.7004 2.38459 13.0335 2.88794C12.9343 2.95791 12.8218 3.00495 12.7035 3.02586C12.5851 3.04678 12.4639 3.04108 12.3479 3.00914C10.5745 2.50686 8.70336 2.50686 6.92995 3.00914C6.81397 3.04108 6.69271 3.04678 6.5744 3.02586C6.4561 3.00495 6.34353 2.95791 6.24435 2.88794C5.58148 2.37776 4.83309 1.99911 4.03704 1.77114C3.87113 2.45704 3.91198 3.1791 4.15409 3.84025C4.20163 3.98832 4.20963 4.14695 4.17725 4.29934C4.14487 4.45174 4.07331 4.59224 3.97015 4.70599C3.63539 5.06883 3.37299 5.49645 3.19796 5.96438C3.02293 6.43232 2.93871 6.93139 2.9501 7.43305C2.9501 11.4847 5.1825 12.3331 7.59884 12.6275C7.75312 12.6473 7.89901 12.7113 8.02012 12.8122C8.14123 12.9131 8.23276 13.047 8.28444 13.1989C8.33197 13.3469 8.33998 13.5056 8.3076 13.6579C8.27522 13.8103 8.20366 13.9508 8.1005 14.0646C7.90079 14.2752 7.74792 14.5284 7.65261 14.8065C7.55729 15.0847 7.52181 15.381 7.54867 15.6749V19.0859C7.54867 19.3155 7.46058 19.5357 7.30378 19.698C7.14698 19.8604 6.93432 19.9516 6.71257 19.9516C6.49082 19.9516 6.27815 19.8604 6.12135 19.698C5.96455 19.5357 5.87646 19.3155 5.87646 19.0859V17.5708C5.05004 17.7427 4.19257 17.6482 3.41966 17.2999C2.64674 16.9516 1.99553 16.3663 1.55381 15.6229C1.22773 15.19 0.943458 14.8264 0.659184 14.7572C0.549385 14.7299 0.445852 14.6805 0.354495 14.6118C0.263139 14.5431 0.185749 14.4564 0.126743 14.3567C0.00757513 14.1554 -0.0294741 13.9133 0.0237455 13.6837C0.0500971 13.57 0.0978172 13.4628 0.164181 13.3682C0.230545 13.2736 0.314253 13.1935 0.410526 13.1324C0.604957 13.009 0.838765 12.9706 1.06051 13.0257C1.81188 13.2979 2.44969 13.8299 2.86649 14.5321C3.56046 15.4498 4.12901 16.1943 5.87646 15.822V15.7355C5.84365 15.1889 5.92935 14.6417 6.1273 14.1339C3.76949 13.5798 1.2779 12.0821 1.2779 7.44171C1.27086 6.1851 1.67787 4.96357 2.43172 3.97877C2.1403 2.84873 2.22573 1.64993 2.67419 0.576427C2.71724 0.450215 2.78797 0.336058 2.88081 0.242924C2.97366 0.14979 3.0861 0.0802173 3.2093 0.0396706C3.51029 -0.0209309 4.64739 -0.194078 6.86307 1.2517C8.68908 0.810187 10.5888 0.810187 12.4148 1.2517C14.6305 -0.194078 15.7676 -0.0209309 16.0686 0.0396706C16.1875 0.0757199 16.2972 0.138695 16.3898 0.22404C16.4823 0.309385 16.5554 0.414965 16.6037 0.53314C17.0521 1.60664 17.1376 2.80545 16.8461 3.93548C17.5982 4.92129 18.005 6.14216 18 7.39843C18 12.3158 15.1154 13.675 13.1589 14.1165C13.364 14.6525 13.447 15.2302 13.4014 15.8047V19.0859C13.4014 19.3155 13.3133 19.5357 13.1565 19.698C12.9997 19.8604 12.787 19.9516 12.5653 19.9516Z" fill="currentColor"/>
</svg>
