<svg xmlns="http://www.w3.org/2000/svg" xmlns:xlink="http://www.w3.org/1999/xlink" version="1.1" id="图层_1" x="0px" y="0px" viewBox="" style="" xml:space="preserve">
<style type="text/css">
	.st0{fill:#DC5F62;}
</style>
<g>
	<g>
		<path class="st0" d="M157.2,226.3V268h16.6v11.8h-30.5v-53.4H157.2z"/>
		<path class="st0" d="M194.9,226.3v53.4H181v-53.4H194.9z"/>
		<path class="st0" d="M206.1,279.7v-53.4H220l25.6,32.6v-32.6h13.8v53.4h-13.8L220,247.1v32.6H206.1z"/>
		<path class="st0" d="M284.5,248.4l16.9-22h17.1l-21.2,25.3l23.2,28.1h-18l-18.1-23.2v23.2h-13.9v-53.4h13.9V248.4z"/>
		<path class="st0" d="M340.6,248.4l16.9-22h17.1l-21.2,25.3l23.2,28.1h-18l-18.1-23.2v23.2h-13.9v-53.4h13.9V248.4z"/>
		<path class="st0" d="M413.1,238.1h-16.5v8.9h15.6v11.8h-15.6v9.2h16.5v11.8h-30.4v-53.4h30.4V238.1z"/>
		<path class="st0" d="M436,254.1l-19.5-27.8h16.6l9.9,14.6l9.8-14.6h16.6l-19.5,27.8v25.6H436V254.1z"/>
	</g>
	<g>
		<path class="st0" d="M124.7,253v-6.6h0v0h-14.9v-4c4.4-1.3,7.6-3.3,9.7-5.9c2.1-2.7,3.2-6.3,3.2-10.9c0-5.1-2-9.2-5.9-12.4    c-4-3.1-9.3-4.7-16.2-4.7c-6.8,0-12.2,1.6-16.1,4.7c-3.9,3.1-5.9,7.3-5.9,12.4c0,8.8,4.2,14.4,12.7,16.9v3.9H77.6H77H62.7v-4    c4.4-1.3,7.6-3.3,9.7-5.9c2.1-2.7,3.2-6.3,3.2-10.9c0-5.1-2-9.2-5.9-12.4c-4-3.1-9.3-4.7-16.2-4.7c-6.8,0-12.2,1.6-16.1,4.7    c-3.9,3.1-5.9,7.3-5.9,12.4c0,8.8,4.2,14.4,12.7,16.9v3.9H29.9v6.6h0v0h14.9v4c-4.4,1.3-7.6,3.3-9.7,5.9    c-2.1,2.7-3.2,6.3-3.2,10.9c0,5.1,2,9.2,5.9,12.4c4,3.1,9.3,4.7,16.2,4.7c6.8,0,12.2-1.6,16.1-4.7c3.9-3.1,5.9-7.3,5.9-12.4    c0-8.8-4.2-14.4-12.7-16.9V253H77h0.6H92v4c-4.4,1.3-7.6,3.3-9.7,5.9c-2.1,2.7-3.2,6.3-3.2,10.9c0,5.1,2,9.2,5.9,12.4    c4,3.1,9.3,4.7,16.2,4.7c6.8,0,12.2-1.6,16.1-4.7c3.9-3.1,5.9-7.3,5.9-12.4c0-8.8-4.2-14.4-12.7-16.9V253H124.7z M62.7,252.5v0.6    v3.9v0.4l0.4,0.1c8.3,2.4,12.3,7.8,12.3,16.3c0,4.9-1.9,8.9-5.7,11.9c-3.8,3-9.1,4.6-15.8,4.6c-6.7,0-12-1.5-15.8-4.6    c-3.8-3-5.7-7-5.7-11.9c0-4.4,1-8,3-10.5c2-2.6,5.2-4.5,9.5-5.7l0.4-0.1V257v-4v-0.6h-0.6H30.5v0V247h13.7h0.6v-0.6v-3.9v-0.4    l-0.4-0.1c-8.3-2.4-12.3-7.8-12.3-16.3c0-4.9,1.9-8.9,5.7-11.9c3.8-3,9.1-4.6,15.8-4.6c6.7,0,12,1.5,15.8,4.6    c3.8,3,5.7,7,5.7,11.9c0,4.4-1,8-3,10.5c-2,2.6-5.2,4.5-9.5,5.7l-0.4,0.1v0.4v4v0.6h0.6H77v5.5H63.3H62.7z M112.5,265.9    c2.1,1.9,3.1,4.5,3.1,7.7c0,3.3-1.3,5.8-4,7.7c-2.7,1.9-6.1,2.8-10.4,2.8c-4.3,0-7.8-1-10.5-3c-2.7-2-4-4.4-4-7.4    c0-3.7,1-6.3,3.1-8c1.9-1.6,4.9-2.8,8.8-3.7v-24.6c-4.2-0.7-7.3-2-9.3-3.9c-2.1-1.9-3.1-4.5-3.1-7.7c0-3.3,1.3-5.8,4-7.7    c2.7-1.9,6.1-2.8,10.4-2.8c4.3,0,7.8,1,10.5,3c2.7,2,4,4.4,4,7.4c0,3.7-1,6.3-3.1,8c-1.9,1.6-4.9,2.8-8.9,3.7V262    C107.2,262.7,110.4,264,112.5,265.9z"/>
		<path class="st0" d="M56.5,237.9c3.9-0.9,6.8-2.2,8.7-3.8c2.2-1.8,3.3-4.6,3.3-8.5c0-3.1-1.4-5.7-4.2-7.8c-2.8-2-6.4-3.1-10.8-3.1    c-4.4,0-8,1-10.8,2.9c-2.8,2-4.2,4.7-4.2,8.2c0,3.4,1.1,6.1,3.3,8.1c2,1.9,5.1,3.2,9.2,3.9v23.7c-3.8,0.9-6.7,2.2-8.6,3.7    c-2.2,1.8-3.3,4.6-3.3,8.5c0,3.1,1.4,5.7,4.2,7.8c2.8,2,6.4,3.1,10.8,3.1c4.4,0,8-1,10.8-2.9c2.8-2,4.2-4.7,4.2-8.2    c0-3.4-1.1-6.1-3.3-8.1c-2.1-1.9-5.2-3.2-9.3-4V237.9z M65.4,265.9c2.1,1.9,3.1,4.5,3.1,7.7c0,3.3-1.3,5.8-4,7.7    c-2.7,1.9-6.1,2.8-10.4,2.8c-4.3,0-7.8-1-10.5-3c-2.7-2-4-4.4-4-7.4c0-3.7,1-6.3,3.1-8c1.9-1.6,4.9-2.8,8.8-3.7v-24.6    c-4.2-0.7-7.3-2-9.3-3.9c-2.1-1.9-3.1-4.5-3.1-7.7c0-3.3,1.3-5.8,4-7.7c2.7-1.9,6.1-2.8,10.4-2.8c4.3,0,7.8,1,10.5,3    c2.7,2,4,4.4,4,7.4c0,3.7-1,6.3-3.1,8c-1.9,1.6-4.9,2.8-8.9,3.7V262C60.1,262.7,63.3,264,65.4,265.9z"/>
	</g>
</g>
</svg>