<svg xmlns="http://www.w3.org/2000/svg" id="图层_1" data-name="图层 1" viewBox="0 0 780.41 754.54"><defs><style>.cls-1{fill:#002fa7;}.cls-2{fill:#fff;}</style></defs><title>logo</title><rect class="cls-1" width="780.41" height="754.54" rx="377.27" ry="377.27"/><path class="cls-2" d="M395.26,457v-5.59H429.9L478,518.44h.56V468.15q1.11-9.5-15.09-11.18v-5.59h35.76V457q-14,1.68-12.85,11.18v81.58H472.93l-54.76-76h-.56v60.9q-1.68,10.07,16.76,9.51v5.58H395.82v-5.58q15.09.55,14-9.51V466.47Q410.9,456.42,395.26,457Z" transform="translate(-109.79 -122.73)"/><path class="cls-2" d="M540.55,549.73H501.43v-5.58q11.73-1.68,17.88-18.45l31.85-76h7.27l36.88,84.93q3.35,9.51,13.41,9.51v5.58H557.31v-5.58h5.59q8.93.55,8.38-5a34.91,34.91,0,0,0-.56-4.48c.37,1.5.18,1.12-.56-1.11l-7.26-16.21H531.61l-4.48,11.18c-1.11,1.87-1.86,4.85-2.23,8.94q.55,6.7,8.38,6.71h7.27Zm19-40.23-12.85-30.18L534.4,509.5Z" transform="translate(-109.79 -122.73)"/><path class="cls-2" d="M614.31,549.73v-38h6.14q8.94,32.41,31.3,33,17.87-.54,18.44-16.2,0-9.5-23.47-17.32Q614.86,500,614.87,482.12q1.67-30.74,33.52-32.41a39.14,39.14,0,0,1,20.12,5.59c2.24,1.11,3.72,1.67,4.47,1.67q2.24,0,4.47-3.91a6.49,6.49,0,0,1,1.12-1.68h5.59v34.09h-5.59q-7.83-28.5-27.94-29.06-16.21.57-16.76,14,0,10.06,22.91,17.33,33,10.62,33,31.29-1.66,28.5-34.64,31.29a65.31,65.31,0,0,1-23.47-4.47,16.79,16.79,0,0,0-5.59-1.67q-2.81,0-5.59,5l-.55.56Z" transform="translate(-109.79 -122.73)"/><path class="cls-2" d="M736.13,549.73H697v-5.58q11.73-1.68,17.88-18.45l31.85-76H754l36.88,84.93q3.35,9.51,13.41,9.51v5.58H752.89v-5.58h5.59q8.92.55,8.38-5a34.91,34.91,0,0,0-.56-4.48c.37,1.5.18,1.12-.56-1.11l-7.26-16.21H727.19l-4.48,11.18c-1.11,1.87-1.86,4.85-2.23,8.94q.56,6.7,8.38,6.71h7.27Zm19-40.23-12.85-30.18L730,509.5Z" transform="translate(-109.79 -122.73)"/><circle class="cls-2" cx="167.62" cy="377.27" r="78.92"/></svg>