<svg width="20" height="20" viewBox="0 0 20 20" fill="none" xmlns="http://www.w3.org/2000/svg">
<path d="M17.982 0.11304C18.2323 0.00444633 18.5046 -0.0266797 18.7697 0.0230162C19.0348 0.0727121 19.2826 0.201346 19.4864 0.395055C19.6902 0.588765 19.8423 0.840206 19.9262 1.12228C20.0101 1.40436 20.0227 1.70638 19.9627 1.99579L19.2682 1.82041L19.9627 1.99579L16.4897 18.7325C16.4325 19.0081 16.3116 19.2625 16.1386 19.4709C15.9656 19.6793 15.7465 19.8345 15.5029 19.9212C15.2593 20.008 14.9994 20.0234 14.7487 19.9659C14.4981 19.9084 14.2653 19.7799 14.0731 19.5932L5.91764 11.669L1.18867 10.6248C0.87556 10.5559 0.591093 10.3768 0.377858 10.1144C0.164624 9.85205 0.0340935 9.52047 0.00581049 9.16932C-0.0224725 8.81817 0.0530133 8.46636 0.220966 8.16654C0.38892 7.86673 0.640304 7.63505 0.937483 7.50619L1.20862 8.26484L0.938222 7.50619L17.982 0.11304ZM18.5228 1.63197L1.47901 9.02512L6.40228 10.1117C6.52975 10.1398 6.64825 10.2045 6.74582 10.2993L15.049 18.3687L18.5213 1.63278L18.5228 1.63197Z" fill="currentColor"/>
<path d="M19.4265 0.410775C19.5412 0.586137 19.5881 0.804619 19.557 1.01817C19.5258 1.23173 19.4191 1.42287 19.2603 1.54956L6.69059 11.5735C6.61191 11.6362 6.52281 11.6812 6.42837 11.7059C6.33394 11.7306 6.23603 11.7345 6.14023 11.7175C6.04442 11.7004 5.9526 11.6626 5.87001 11.6064C5.78742 11.5501 5.71568 11.4764 5.65887 11.3896C5.54415 11.2141 5.49725 10.9955 5.5285 10.7819C5.55974 10.5682 5.66656 10.377 5.82547 10.2504L18.3952 0.226415C18.5541 0.0998559 18.752 0.0481795 18.9454 0.0827533C19.1388 0.117327 19.3119 0.23532 19.4265 0.410775Z" fill="currentColor"/>
<path d="M6.25734 10.0965C6.45328 10.0965 6.64119 10.1825 6.77974 10.3354C6.91829 10.4884 6.99613 10.6959 6.99613 10.9123V17.5517L7.51845 18.1284L6.99613 17.5517L9.88182 14.3653C10.0212 14.2167 10.2078 14.1345 10.4015 14.1364C10.5952 14.1382 10.7805 14.224 10.9175 14.3753C11.0544 14.5265 11.1321 14.7311 11.1338 14.945C11.1355 15.1589 11.061 15.365 10.9265 15.5188L8.04077 18.7051L7.54948 18.1627L8.04077 18.7051C7.83413 18.9332 7.57088 19.0886 7.2843 19.1515C6.99772 19.2144 6.70068 19.1821 6.43073 19.0586C6.16077 18.9352 5.93003 18.7261 5.76767 18.4579C5.60531 18.1897 5.51862 17.8743 5.51855 17.5517V10.9115C5.51855 10.6951 5.59639 10.4876 5.73494 10.3346C5.87349 10.1816 6.0614 10.0957 6.25734 10.0957V10.0965Z" fill="currentColor"/>
</svg>
