<svg width="20" height="16" viewBox="0 0 20 16" fill="none" xmlns="http://www.w3.org/2000/svg">
<path d="M1.65235 2.1534C2.57899 3.06804 3.64914 3.83361 4.82382 4.41968C6.37269 5.19245 8.06904 5.63609 9.80277 5.72226L10.8082 5.77224L10.5684 4.79456C10.396 4.09147 10.4657 3.35193 10.7675 2.69114C11.0693 2.03011 11.5872 1.48352 12.2424 1.13947C12.8979 0.795304 13.6523 0.674192 14.3868 0.796304C15.1212 0.918401 15.7913 1.27625 16.2931 1.81099L16.5764 2.11289L16.9828 2.03407C17.0837 2.0145 17.1842 1.99323 17.2842 1.97029L17.7218 3.27085C17.6674 3.31305 17.6123 3.35456 17.5567 3.39535L17.25 3.62009V4.00029L17.25 4.52113L17.25 4.5271C17.2613 5.93874 16.9862 7.33874 16.4405 8.64546C15.8948 9.9522 15.0892 11.1399 14.0702 12.1387C13.0511 13.1376 11.839 13.9276 10.5044 14.462C9.16965 14.9963 7.73953 15.2641 6.29765 15.2494L6.29765 15.2494L6.2891 15.2494C5.17492 15.2507 4.07349 15.0832 3.02215 14.7578C4.288 14.4661 5.48294 13.905 6.51878 13.104L8.20371 11.8011L6.07419 11.7608C5.37262 11.7476 4.69403 11.5197 4.13277 11.1107C3.89387 10.9366 3.68139 10.7335 3.4996 10.5076C3.77552 10.4757 4.04837 10.4198 4.3149 10.34L4.2439 8.88542C3.48368 8.7368 2.80163 8.33517 2.31173 7.75162C2.06774 7.46098 1.87876 7.13403 1.75005 6.78606C2.04175 6.84857 2.33965 6.88434 2.63995 6.89237L5.27886 6.96293L3.07124 5.51543C2.61294 5.21494 2.23875 4.80866 1.98083 4.33376C1.72295 3.85893 1.58896 3.32968 1.59 2.79298L1.59 2.79103C1.58986 2.57626 1.61088 2.36276 1.65235 2.1534Z" stroke="currentColor" stroke-width="1.5"/>
</svg>
