<svg width="495" height="392" viewBox="0 0 495 392" fill="none" xmlns="http://www.w3.org/2000/svg">
<path d="M212.6 316.1V334.2H219.8V339.3H206.6V316.1H212.6Z" fill="#DC5F62"/>
<path d="M228.9 316.1V339.3H222.9V316.1H228.9Z" fill="#DC5F62"/>
<path d="M233.8 339.2V316H239.8L250.9 330.2V316H256.9V339.2H250.9L239.8 325V339.2H233.8Z" fill="#DC5F62"/>
<path d="M267.8 325.6L275.1 316H282.5L273.3 327L283.3 339.2H275.5L267.7 329.2V339.2H261.7V316H267.7V325.6H267.8Z" fill="#DC5F62"/>
<path d="M292.1 325.6L299.4 316H306.8L297.6 327L307.6 339.2H299.8L292 329.2V339.2H286V316H292V325.6H292.1Z" fill="#DC5F62"/>
<path d="M323.6 321.2H316.4V325.1H323.2V330.2H316.4V334.2H323.6V339.3H310.4V316.1H323.6V321.2Z" fill="#DC5F62"/>
<path d="M333.5 328.1L325.1 316.1H332.3L336.6 322.4L340.9 316.1H348.1L339.6 328.1V339.2H333.6V328.1H333.5Z" fill="#DC5F62"/>
<path d="M198.5 327.7V324.8H192V323.1C193.9 322.5 195.3 321.7 196.2 320.5C197.1 319.3 197.6 317.8 197.6 315.8C197.6 313.6 196.7 311.8 195 310.4C193.3 309 190.9 308.4 188 308.4C185 308.4 182.7 309.1 181 310.4C179.3 311.8 178.5 313.5 178.5 315.8C178.5 319.6 180.3 322 184 323.1V324.8H178H177.8H171.6V323.1C173.5 322.5 174.9 321.7 175.8 320.5C176.7 319.3 177.2 317.8 177.2 315.8C177.2 313.6 176.3 311.8 174.6 310.4C172.9 309 170.5 308.4 167.6 308.4C164.6 308.4 162.3 309.1 160.6 310.4C158.9 311.8 158.1 313.5 158.1 315.8C158.1 319.6 159.9 322 163.6 323.1V324.8H157.4V327.7H163.9V329.4C162 330 160.6 330.8 159.7 332C158.8 333.2 158.3 334.7 158.3 336.7C158.3 338.9 159.2 340.7 160.9 342.1C162.6 343.5 165 344.1 167.9 344.1C170.9 344.1 173.2 343.4 174.9 342.1C176.6 340.7 177.4 339 177.4 336.7C177.4 332.9 175.6 330.5 171.9 329.4V327.7H177.9H178.1H184.3V329.4C182.4 330 181 330.8 180.1 332C179.2 333.2 178.7 334.7 178.7 336.7C178.7 338.9 179.6 340.7 181.3 342.1C183 343.5 185.4 344.1 188.3 344.1C191.3 344.1 193.6 343.4 195.3 342.1C197 340.7 197.8 339 197.8 336.7C197.8 332.9 196 330.5 192.3 329.4V327.7H198.5ZM171.6 327.4V327.6V329.3V329.5L171.8 329.6C175.4 330.7 177.1 333 177.1 336.7C177.1 338.8 176.3 340.6 174.6 341.9C173 343.2 170.7 343.9 167.8 343.9C164.9 343.9 162.6 343.2 160.9 341.9C159.3 340.6 158.4 338.9 158.4 336.7C158.4 334.8 158.8 333.2 159.7 332.1C160.6 331 162 330.1 163.8 329.6L164 329.5V329.3V327.6V327.4H163.8H157.6V325H163.6H163.8V324.8V323.1V322.9L163.6 322.8C160 321.7 158.3 319.4 158.3 315.7C158.3 313.6 159.1 311.8 160.8 310.5C162.4 309.2 164.7 308.5 167.6 308.5C170.5 308.5 172.8 309.2 174.5 310.5C176.1 311.8 177 313.5 177 315.7C177 317.6 176.6 319.2 175.7 320.3C174.8 321.4 173.4 322.3 171.6 322.8L171.4 322.9V323.1V324.8V325H171.6H177.8V327.4H171.9H171.6ZM193.2 333.2C194.1 334 194.6 335.1 194.6 336.5C194.6 337.9 194 339 192.9 339.8C191.7 340.6 190.2 341 188.4 341C186.5 341 185 340.6 183.9 339.7C182.7 338.8 182.2 337.8 182.2 336.5C182.2 334.9 182.6 333.8 183.5 333C184.3 332.3 185.6 331.8 187.3 331.4V320.7C185.5 320.4 184.1 319.8 183.2 319C182.3 318.2 181.8 317.1 181.8 315.7C181.8 314.3 182.4 313.2 183.5 312.4C184.7 311.6 186.2 311.2 188 311.2C189.9 311.2 191.4 311.6 192.5 312.5C193.7 313.4 194.2 314.4 194.2 315.7C194.2 317.3 193.8 318.4 192.9 319.2C192.1 319.9 190.8 320.4 189 320.8V331.4C190.9 331.8 192.3 332.4 193.2 333.2Z" fill="#DC5F62"/>
<path d="M168.9 321.1C170.6 320.7 171.8 320.2 172.7 319.5C173.6 318.7 174.1 317.5 174.1 315.8C174.1 314.5 173.5 313.3 172.3 312.4C171.1 311.5 169.5 311.1 167.6 311.1C165.7 311.1 164.1 311.5 162.9 312.4C161.7 313.3 161.1 314.5 161.1 315.9C161.1 317.4 161.6 318.6 162.5 319.4C163.4 320.2 164.7 320.8 166.5 321.1V331.4C164.8 331.8 163.6 332.3 162.8 333C161.9 333.8 161.4 335 161.4 336.7C161.4 338 162 339.2 163.2 340.1C164.4 341 166 341.4 167.9 341.4C169.8 341.4 171.4 341 172.6 340.1C173.8 339.2 174.4 338 174.4 336.6C174.4 335.1 173.9 333.9 173 333.1C172.1 332.3 170.8 331.7 169 331.4V321.1H168.9ZM172.7 333.2C173.6 334 174.1 335.1 174.1 336.5C174.1 337.9 173.5 339 172.4 339.8C171.2 340.6 169.7 341 167.9 341C166 341 164.5 340.6 163.4 339.7C162.2 338.8 161.7 337.8 161.7 336.5C161.7 334.9 162.1 333.8 163 333C163.8 332.3 165.1 331.8 166.8 331.4V320.7C165 320.4 163.6 319.8 162.7 319C161.8 318.2 161.3 317.1 161.3 315.7C161.3 314.3 161.9 313.2 163 312.4C164.2 311.6 165.7 311.2 167.5 311.2C169.4 311.2 170.9 311.6 172 312.5C173.2 313.4 173.7 314.4 173.7 315.7C173.7 317.3 173.3 318.4 172.4 319.2C171.6 319.9 170.3 320.4 168.5 320.8V331.4C170.5 331.8 171.8 332.4 172.7 333.2Z" fill="#DC5F62"/>
<path d="M1.7 54.5L5.2 34.6H27.6V43H12.4L11.2 48.3C13 47 15.5 46.4 18.6 46.4C26.1 46.8 30.1 50.6 30.5 57.7C30.4 65.8 25.1 69.9 14.7 70.2C7 70.2 2.20001 67 0.100006 60.7L10.4 59.7C10.5 59.7 10.6 59.8 10.6 59.9C11.2 61.7 12.7 62.7 15.1 62.8C18.2 62.7 19.9 61.1 20.2 58.1C20.1 54.7 18.6 53 15.7 53C13.5 53 12.1 53.7 11.4 54.9L1.7 54.5Z" fill="white"/>
<path d="M33.5 51.8C33.8 40.4 38.9 34.5 48.9 34.1C58.8 34.5 63.8 40.4 64.1 51.8C63.8 63.9 58.8 70 48.9 70.1C38.7 70 33.6 63.9 33.5 51.8ZM48.9 62.7C52 62.7 53.6 59.3 53.6 52.4C53.9 45.3 52.2 41.8 48.7 41.9C45.5 41.9 43.8 45.4 43.8 52.4C43.7 59.4 45.4 62.8 48.9 62.7Z" fill="white"/>
<path d="M66.6 51.8C66.9 40.4 72 34.5 82 34.1C91.9 34.5 96.9 40.4 97.2 51.8C96.9 63.9 91.9 70 82 70.1C71.9 70 66.7 63.9 66.6 51.8ZM82 62.7C85.1 62.7 86.7 59.3 86.7 52.4C87 45.3 85.3 41.8 81.8 41.9C78.6 41.9 76.9 45.4 76.9 52.4C76.8 59.4 78.5 62.8 82 62.7Z" fill="white"/>
<path d="M118.4 54.1V33.8H130.1V55.2001C130 59.7001 131.9 62 135.7 61.8C139.5 61.8 141.3 59.6001 141.2 55.2001V33.8H152.9V54.1C153.2 65.1 147.4 70.5 135.8 70.3C123.9 70.6 118.1 65.2 118.4 54.1Z" fill="white"/>
<path d="M189.7 44.2H178.6C178.5 43 177.9 42.3 176.8 41.9C176.1 41.4 175.2 41.1 173.9 41.1C171.3 41.1 170 41.8 170 43.2C170 44.5 172.3 45.7 177 46.9C186.1 49.1 190.6 52.9 190.6 58.2C190.3 66.1 184.8 70.1 173.8 70.3C164.3 69.9 159 66 157.8 58.6H169.1C169.5 59.9 170.1 60.9 171 61.5C171.9 62 173 62.3 174.3 62.3C177.7 62.3 179.4 61.5 179.4 59.8C179.4 58.4 177.1 57.1 172.6 56.1C163.4 53.9 158.8 50 158.8 44.4C159.1 37 164.2 33.2 174.2 32.9C183.4 33 188.5 36.8 189.7 44.2Z" fill="white"/>
<path d="M210.9 69.7H195.5V33.9H211.3C223.6 34 229.9 39.7 230 51C230 63.5 223.7 69.7 210.9 69.7ZM207.2 42.3V61.4H209.7C215.3 61.4 218.1 58.2 218.1 51.7C218.5 44.9 215.6 41.8 209.5 42.4H207.2V42.3Z" fill="white"/>
<path d="M22.4 107.1V142.7H12.1V122.2H3.89999V115C9.99999 115 13.6 112.3 14.6 107H22.4V107.1Z" fill="white"/>
<path d="M33.5 124.8C33.8 113.4 38.9 107.5 48.9 107.1C58.8 107.5 63.8 113.4 64.1 124.8C63.8 136.9 58.8 143 48.9 143.1C38.7 143 33.6 136.9 33.5 124.8ZM48.9 135.7C52 135.7 53.6 132.3 53.6 125.4C53.9 118.3 52.2 114.8 48.7 114.9C45.5 114.9 43.8 118.4 43.8 125.4C43.7 132.4 45.4 135.8 48.9 135.7Z" fill="white"/>
<path d="M66.6 124.8C66.9 113.4 72 107.5 82 107.1C91.9 107.5 96.9 113.4 97.2 124.8C96.9 136.9 91.9 143 82 143.1C71.9 143 66.7 136.9 66.6 124.8ZM82 135.7C85.1 135.7 86.7 132.3 86.7 125.4C87 118.3 85.3 114.8 81.8 114.9C78.6 114.9 76.9 118.4 76.9 125.4C76.8 132.4 78.5 135.8 82 135.7Z" fill="white"/>
<path d="M118.4 127.1V106.8H130.1V128.2C130 132.7 131.9 135 135.7 134.8C139.5 134.8 141.3 132.6 141.2 128.2V106.8H152.9V127.1C153.2 138.1 147.4 143.5 135.8 143.3C123.9 143.6 118.1 138.2 118.4 127.1Z" fill="white"/>
<path d="M189.7 117.2H178.6C178.5 116 177.9 115.3 176.8 114.9C176.1 114.4 175.2 114.1 173.9 114.1C171.3 114.1 170 114.8 170 116.2C170 117.5 172.3 118.7 177 119.9C186.1 122.1 190.6 125.9 190.6 131.2C190.3 139.1 184.8 143.1 173.8 143.3C164.3 142.9 159 139 157.8 131.6H169.1C169.5 132.9 170.1 133.9 171 134.5C171.9 135 173 135.3 174.3 135.3C177.7 135.3 179.4 134.5 179.4 132.8C179.4 131.4 177.1 130.1 172.6 129.1C163.4 126.9 158.8 123 158.8 117.4C159.1 110 164.2 106.2 174.2 105.9C183.4 106 188.5 109.8 189.7 117.2Z" fill="white"/>
<path d="M210.9 142.7H195.5V106.9H211.3C223.6 107 229.9 112.7 230 124C230 136.5 223.7 142.7 210.9 142.7ZM207.2 115.3V134.4H209.7C215.3 134.4 218.1 131.2 218.1 124.7C218.5 117.9 215.6 114.8 209.5 115.4H207.2V115.3Z" fill="white"/>
<path d="M54.4 177.1V212.7H44.1V192.2H35.9V185C42 185 45.6 182.3 46.6 177H54.4V177.1Z" fill="white"/>
<path d="M65.5 194.8C65.8 183.4 70.9 177.5 80.9 177.1C90.8 177.5 95.8 183.4 96.1 194.8C95.8 206.9 90.8 213 80.9 213.1C70.7 213 65.6 206.9 65.5 194.8ZM80.9 205.7C84 205.7 85.6 202.3 85.6 195.4C85.9 188.3 84.2 184.8 80.7 184.9C77.5 184.9 75.8 188.4 75.8 195.4C75.7 202.4 77.4 205.8 80.9 205.7Z" fill="white"/>
<path d="M117.3 197.1V176.8H129V198.2C128.9 202.7 130.8 205 134.6 204.8C138.4 204.8 140.2 202.6 140.1 198.2V176.8H151.8V197.1C152.1 208.1 146.3 213.5 134.7 213.3C122.8 213.6 117 208.2 117.3 197.1Z" fill="white"/>
<path d="M188.6 187.2H177.5C177.4 186 176.8 185.3 175.7 184.9C175 184.4 174.1 184.1 172.8 184.1C170.2 184.1 168.9 184.8 168.9 186.2C168.9 187.5 171.2 188.7 175.9 189.9C185 192.1 189.5 195.9 189.5 201.2C189.2 209.1 183.7 213.1 172.7 213.3C163.2 212.9 157.9 209 156.7 201.6H168C168.4 202.9 169 203.9 169.9 204.5C170.8 205 171.9 205.3 173.2 205.3C176.6 205.3 178.3 204.5 178.3 202.8C178.3 201.4 176 200.1 171.5 199.1C162.3 196.9 157.7 193 157.7 187.4C158 180 163.1 176.2 173.1 175.9C182.3 176 187.4 179.8 188.6 187.2Z" fill="white"/>
<path d="M209.8 212.7H194.4V176.9H210.2C222.5 177 228.8 182.7 228.9 194C228.9 206.5 222.5 212.7 209.8 212.7ZM206.1 185.3V204.4H208.6C214.2 204.4 217 201.2 217 194.7C217.4 187.9 214.5 184.8 208.4 185.4H206.1V185.3Z" fill="white"/>
<path d="M280 54.7H286.4C286.4 55.7 286.7 56.6 287.3 57.3C287.9 57.8 288.7 58.1 289.7 58.2C291.6 58.1 292.6 57.2 292.8 55.5C292.9 53.6 291.4 52.8 288.5 52.9V48.8C291.2 49 292.6 48.2 292.6 46.5C292.6 45.1 291.7 44.5 289.9 44.5C288.1 44.5 287.1 45.3 287 46.9H280.9C281.2 42.1 284.3 39.6 290.2 39.4C295.8 39.6 298.8 41.7 299 45.8C299 48 298.1 49.5 296.3 50.4C298.4 51.3 299.5 52.9 299.6 55.3C299.5 60.4 296.1 63 289.4 63.1C283.2 62.8 280.1 60.1 280 54.7Z" fill="#DC5F62"/>
<path d="M331.6 62.7001H325.6V60.4001C324.2 62.2001 322.4 63.0001 320.2 63.0001C315.3 62.8001 312.7 60.0001 312.4 54.4001C312.7 48.6001 315.1 45.5 319.7 45.1C321.9 45 323.6 45.7 324.8 47.3V39.3H331.6V62.7001ZM322 58.3C324 58.3 325 57 325.1 54.3C325 51.7 324 50.3 322.2 50.3C320.4 50.4 319.5 51.7001 319.4 54.4001C319.3 57.0001 320.2 58.3 322 58.3Z" fill="#DC5F62"/>
<path d="M335.2 43.5V38.6H342V43.5H335.2ZM341.9 62.7H335.1V45.6H341.9V62.7Z" fill="#DC5F62"/>
<path d="M346 63.4H352.8C352.9 63.7 353 63.9 353.2 64.2C353.6 64.5 354.1 64.6 354.7 64.6C356.6 64.7 357.5 63.7 357.4 61.5V60.1C356.3 61.4 354.7 62 352.5 62C347.9 61.7 345.4 59 345.1 53.8C345.4 48.2 347.9 45.3 352.8 45.1C355 45.2 356.7 46.1 357.9 47.9V45.6H363.9V59.4C364.5 65.6 361.5 68.6 355 68.3C349.5 68.3 346.5 66.6 346 63.4ZM354.6 50C352.8 50 351.9 51.3 351.9 54C352 56 352.9 57.2 354.6 57.3C356.4 57.3 357.3 56.1 357.4 53.7C357.4 51.2 356.4 50 354.6 50Z" fill="#DC5F62"/>
<path d="M367.7 43.5V38.6H374.5V43.5H367.7ZM374.5 62.7H367.7V45.6H374.5V62.7Z" fill="#DC5F62"/>
<path d="M389.4 57.9V62.7999C384.7 62.9999 382 62.8 381.1 62.2C379.9 61.7 379.4 59.8999 379.4 56.7999V49.5999H377V45.5999H379.4V40.2H386.2V45.5999H389.4V49.5999H386.2V55.7C386 57.3 386.7 58 388.2 57.9H389.4Z" fill="#DC5F62"/>
<path d="M392 57.4H398.5C398.5 58.2 398.8 58.6999 399.3 59.0999C399.7 59.3999 400.3 59.4999 401 59.5999C402.4 59.4999 403.2 58.9999 403.2 58.0999C403.2 57.2999 402 56.6999 399.6 56.2999C395 55.3999 392.7 53.4999 392.7 50.7999C392.8 47.1999 395.5 45.4 400.7 45.2C406.1 45.2 408.9 46.9999 409.3 50.5999H403C403 50.0999 402.8 49.6999 402.4 49.4999C402 49.1999 401.5 48.9999 401 48.9999C399.7 48.9999 399.1 49.3999 399.1 50.2999C399.1 50.8999 400.2 51.3999 402.5 51.7999C407.4 52.8999 409.9 54.8 409.9 57.4C409.8 61.1 406.7 63.0999 400.7 63.0999C395.2 62.8999 392.3 61 392 57.4Z" fill="#DC5F62"/>
<path d="M423.7 56.0999L419.9 62.7H411.2L419.5 50.4L412 39.2H420.7L424 45.2L427.4 39.2H436.1L428.1 50.4L436.1 62.7H427.4L423.7 56.0999Z" fill="#DC5F62"/>
<path d="M451.6 39.4V62.8H444.8V49.4H439.4V44.7C443.4 44.7 445.7 43 446.4 39.5H451.6V39.4Z" fill="#DC5F62"/>
<path d="M279.6 128.9V123.5L290.5 110.7H296.8V123.9H299.7V128.9H296.8V133.8H290.4V128.9H279.6ZM290.3 116.9L284.8 123.9H290.3V116.9Z" fill="#DC5F62"/>
<path d="M303.1 127.2V123.5H319.6V127.2H303.1Z" fill="#DC5F62"/>
<path d="M335.7 116.2H323.8V110.7H342.3V115.8C337.7 119.9 335.2 125.8 334.8 133.7H327.8C328.3 127.1 330.9 121.3 335.7 116.2Z" fill="#DC5F62"/>
<path d="M374.7 133.7H368.7V131.4C367.3 133.2 365.5 134 363.3 134C358.4 133.8 355.8 131 355.5 125.4C355.8 119.6 358.2 116.5 362.8 116.1C365 116 366.7 116.7 367.9 118.3V110.3H374.7V133.7ZM365.2 129.3C367.2 129.3 368.2 128 368.3 125.3C368.2 122.7 367.2 121.3 365.4 121.3C363.6 121.4 362.7 122.7 362.6 125.4C362.5 128 363.4 129.3 365.2 129.3Z" fill="#DC5F62"/>
<path d="M378.3 114.5V109.6H385.1V114.5H378.3ZM385.1 133.7H378.3V116.6H385.1V133.7Z" fill="#DC5F62"/>
<path d="M389.2 134.4H396C396.1 134.7 396.2 134.9 396.4 135.2C396.8 135.5 397.3 135.6 397.9 135.6C399.8 135.7 400.7 134.7 400.6 132.5V131.1C399.5 132.4 397.9 133 395.7 133C391.1 132.7 388.6 130 388.3 124.8C388.6 119.2 391.1 116.3 396 116.1C398.2 116.2 399.9 117.1 401.1 118.9V116.6H407.1V130.4C407.7 136.6 404.7 139.6 398.2 139.3C392.7 139.3 389.7 137.6 389.2 134.4ZM397.7 121C395.9 121 395 122.3 395 125C395.1 127 396 128.2 397.7 128.3C399.5 128.3 400.4 127.1 400.5 124.7C400.5 122.2 399.6 121 397.7 121Z" fill="#DC5F62"/>
<path d="M410.9 114.5V109.6H417.7V114.5H410.9ZM417.6 133.7H410.8V116.6H417.6V133.7Z" fill="#DC5F62"/>
<path d="M432.6 128.9V133.8C427.9 134 425.2 133.8 424.3 133.2C423.1 132.7 422.6 130.9 422.6 127.8V120.6H420.2V116.6H422.6V111.2H429.4V116.6H432.6V120.6H429.4V126.7C429.2 128.3 429.9 129 431.4 128.9H432.6Z" fill="#DC5F62"/>
<path d="M435.1 128.4H441.6C441.6 129.2 441.9 129.7 442.4 130.1C442.8 130.4 443.4 130.5 444.1 130.6C445.5 130.5 446.3 130 446.3 129.1C446.3 128.3 445.1 127.7 442.7 127.3C438.1 126.4 435.8 124.5 435.8 121.8C435.9 118.2 438.6 116.4 443.8 116.2C449.2 116.2 452 118 452.4 121.6H446.1C446.1 121.1 445.9 120.7 445.5 120.5C445.1 120.2 444.6 120 444.1 120C442.8 120 442.2 120.4 442.2 121.3C442.2 121.9 443.3 122.4 445.6 122.8C450.5 123.9 453 125.8 453 128.4C452.9 132.1 449.8 134.1 443.8 134.1C438.4 133.9 435.5 132 435.1 128.4Z" fill="#DC5F62"/>
<path d="M466.8 127.1L463 133.7H454.3L462.6 121.4L455.1 110.2H463.8L467.1 116.2L470.5 110.2H479.2L471.2 121.4L479.2 133.7H470.5L466.8 127.1Z" fill="#DC5F62"/>
<path d="M494.8 110.4V133.8H488V120.4H482.6V115.7C486.6 115.7 488.9 114 489.6 110.5H494.8V110.4Z" fill="#DC5F62"/>
<path d="M283.6 192.7C281.5 191.7 280.4 190.1 280.5 187.8C280.8 183.7 283.9 181.5 289.9 181.3C295.5 181.6 298.5 183.7 298.8 187.7C298.8 190.1 297.8 191.7 295.7 192.4C298.3 193.5 299.5 195.3 299.5 197.8C299.2 202.4 296 204.8 289.7 205C283.1 204.8 279.8 202.4 279.6 197.8C279.7 195.5 280.9 193.8 283.6 192.7ZM290.6 200.3C292.1 200.1 292.9 199.2 292.9 197.6C292.8 195.7 291.8 194.7 289.8 194.7C287.7 194.7 286.6 195.7 286.6 197.6C286.8 199.7 288.1 200.6 290.6 200.3ZM289.7 191C291.6 190.9 292.6 190.1 292.6 188.6C292.5 187 291.6 186.1 289.8 186C287.8 186.1 286.8 186.9 286.7 188.6C286.8 190.1 287.8 190.9 289.7 191Z" fill="#DC5F62"/>
<path d="M303.1 198.2V194.5H319.6V198.2H303.1Z" fill="#DC5F62"/>
<path d="M353 204.7H347V202.4C345.6 204.2 343.8 205 341.6 205C336.7 204.8 334.1 202 333.8 196.4C334.1 190.6 336.5 187.5 341.1 187.1C343.3 187 345 187.7 346.2 189.3V181.3H353V204.7ZM343.5 200.3C345.5 200.3 346.5 199 346.6 196.3C346.5 193.7 345.5 192.3 343.7 192.3C341.9 192.4 341 193.7 340.9 196.4C340.8 199 341.7 200.3 343.5 200.3Z" fill="#DC5F62"/>
<path d="M356.6 185.5V180.6H363.4V185.5H356.6ZM363.4 204.7H356.6V187.6H363.4V204.7Z" fill="#DC5F62"/>
<path d="M367.5 205.4H374.3C374.4 205.7 374.5 205.9 374.7 206.2C375.1 206.5 375.6 206.6 376.2 206.6C378.1 206.7 379 205.7 378.9 203.5V202.1C377.8 203.4 376.2 204 374 204C369.4 203.7 366.9 201 366.6 195.8C366.9 190.2 369.4 187.3 374.3 187.1C376.5 187.2 378.2 188.1 379.4 189.9V187.6H385.4V201.4C386 207.6 383 210.6 376.5 210.3C371 210.3 368 208.6 367.5 205.4ZM376 192C374.2 192 373.3 193.3 373.3 196C373.4 198 374.3 199.2 376 199.3C377.8 199.3 378.7 198.1 378.8 195.7C378.8 193.2 377.9 192 376 192Z" fill="#DC5F62"/>
<path d="M389.2 185.5V180.6H396V185.5H389.2ZM395.9 204.7H389.1V187.6H395.9V204.7Z" fill="#DC5F62"/>
<path d="M410.9 199.9V204.8C406.2 205 403.5 204.8 402.6 204.2C401.4 203.7 400.9 201.9 400.9 198.8V191.6H398.5V187.6H400.9V182.2H407.7V187.6H410.9V191.6H407.7V197.7C407.5 199.3 408.2 200 409.7 199.9H410.9Z" fill="#DC5F62"/>
<path d="M413.4 199.4H419.9C419.9 200.2 420.2 200.7 420.7 201.1C421.1 201.4 421.7 201.5 422.4 201.6C423.8 201.5 424.6 201 424.6 200.1C424.6 199.3 423.4 198.7 421 198.3C416.4 197.4 414.1 195.5 414.1 192.8C414.2 189.2 416.9 187.4 422.1 187.2C427.5 187.2 430.3 189 430.7 192.6H424.4C424.4 192.1 424.2 191.7 423.8 191.5C423.4 191.2 422.9 191 422.4 191C421.1 191 420.5 191.4 420.5 192.3C420.5 192.9 421.6 193.4 423.9 193.8C428.8 194.9 431.3 196.8 431.3 199.4C431.2 203.1 428.1 205.1 422.1 205.1C416.7 204.9 413.8 203 413.4 199.4Z" fill="#DC5F62"/>
<path d="M445.1 198.1L441.3 204.7H432.6L440.9 192.4L433.4 181.2H442.1L445.4 187.2L448.8 181.2H457.5L449.5 192.4L457.5 204.7H448.8L445.1 198.1Z" fill="#DC5F62"/>
<path d="M473.1 181.4V204.8H466.3V191.4H460.9V186.7C464.9 186.7 467.2 185 467.9 181.5H473.1V181.4Z" fill="#DC5F62"/>
<path d="M164.1 373.2L166.8 383.2L169.5 373.2H172.2L174.9 383.2L177.6 373.2H180.9L176.4 386.7H173.6L170.9 376.8L168.2 386.7H165.4L160.9 373.2H164.1Z" fill="white"/>
<path d="M184.3 373.2L187 383.2L189.7 373.2H192.4L195.1 383.2L197.8 373.2H201.1L196.6 386.7H193.8L191.1 376.8L188.4 386.7H185.6L181.1 373.2H184.3Z" fill="white"/>
<path d="M204.6 373.2L207.3 383.2L210 373.2H212.7L215.4 383.2L218.1 373.2H221.4L216.9 386.7H214L211.3 376.8L208.6 386.7H205.8L201.3 373.2H204.6Z" fill="white"/>
<path d="M226.5 383.4C226.9 383.8 227.1 384.3 227.1 384.9C227.1 385.5 226.9 385.9 226.5 386.4C226.1 386.8 225.6 387 225 387C224.4 387 223.9 386.8 223.6 386.4C223.2 386 223 385.5 223 384.9C223 384.3 223.2 383.8 223.6 383.4C224 383 224.5 382.8 225 382.8C225.5 382.8 226.1 382.9 226.5 383.4Z" fill="white"/>
<path d="M233.4 367.7V386.7H230.4V367.7H233.4Z" fill="white"/>
<path d="M240.3 368.3C240.7 368.7 240.9 369.1 240.9 369.7C240.9 370.3 240.7 370.8 240.3 371.1C239.9 371.4 239.4 371.6 238.9 371.6C238.4 371.6 237.9 371.4 237.5 371.1C237.1 370.7 236.9 370.2 236.9 369.7C236.9 369.1 237.1 368.7 237.5 368.3C237.9 367.9 238.4 367.8 238.9 367.8C239.4 367.8 239.9 367.9 240.3 368.3ZM240.3 373.2V386.7H237.3V373.2H240.3Z" fill="white"/>
<path d="M256 378.4V386.7H253V378.6C253 376.4 252 375.3 249.9 375.3C249.2 375.3 248.5 375.6 248 376.1C247.4 376.7 247 377.5 246.9 378.6V386.7H243.9V373.2H246.9V374.8C247.4 374.2 248 373.7 248.7 373.4C249.4 373.1 250.1 372.9 250.9 372.9C254.3 372.8 256 374.7 256 378.4Z" fill="white"/>
<path d="M262.1 367.7V378.6L267.6 373.3H271.4L265.4 378.9L271.9 386.8H268.1L263.4 380.8L262 382.1V386.8H259V367.8H262.1V367.7Z" fill="white"/>
<path d="M276.6 367.7V378.6L282.1 373.3H285.9L279.9 378.9L286.4 386.8H282.6L277.9 380.8L276.5 382.1V386.8H273.5V367.8H276.6V367.7Z" fill="white"/>
<path d="M298.9 375.1C300 376.5 300.5 378.4 300.5 380.8H290.4C290.5 382.1 290.8 383 291.4 383.7C292 384.4 292.8 384.7 293.9 384.7C294.8 384.7 295.5 384.5 296.1 384.1C296.5 383.8 296.9 383.2 297.3 382.5H300.3C300 383.8 299.4 384.8 298.4 385.7C297.2 386.7 295.7 387.2 293.9 387.2C291.9 387.2 290.3 386.6 289.1 385.3C287.8 384 287.2 382.3 287.2 380C287.2 378 287.8 376.3 289 375C290.1 373.6 291.7 372.9 293.7 372.9C296 372.8 297.7 373.6 298.9 375.1ZM291.5 376.1C291 376.6 290.6 377.5 290.4 378.5H297.3C297 376.3 295.9 375.2 293.8 375.2C292.9 375.3 292.1 375.5 291.5 376.1Z" fill="white"/>
<path d="M304.6 373.2L308.2 382.8L311.6 373.2H314.8L307.5 391.9H304.3L306.7 386.4L301.4 373.2H304.6Z" fill="white"/>
<path d="M320 383.4C320.4 383.8 320.6 384.3 320.6 384.9C320.6 385.5 320.4 385.9 320 386.4C319.6 386.8 319.1 387 318.5 387C317.9 387 317.4 386.8 317.1 386.4C316.7 386 316.5 385.5 316.5 384.9C316.5 384.3 316.7 383.8 317.1 383.4C317.5 383 318 382.8 318.5 382.8C319 382.8 319.6 382.9 320 383.4Z" fill="white"/>
<path d="M327.2 368.3C327.6 368.7 327.8 369.1 327.8 369.7C327.8 370.3 327.6 370.8 327.2 371.1C326.8 371.4 326.3 371.6 325.8 371.6C325.3 371.6 324.8 371.4 324.4 371.1C324 370.7 323.8 370.2 323.8 369.7C323.8 369.1 324 368.7 324.4 368.3C324.8 367.9 325.3 367.8 325.8 367.8C326.3 367.8 326.8 367.9 327.2 368.3ZM327.2 373.2V386.7H324.2V373.2H327.2Z" fill="white"/>
<path d="M342.1 374.9C343.3 376.2 344 377.9 344 380C344 382.1 343.4 383.8 342.2 385.1C340.9 386.5 339.3 387.1 337.2 387.1C335.1 387.1 333.5 386.4 332.2 385.1C331 383.8 330.4 382.1 330.4 380C330.4 377.9 331 376.2 332.3 374.9C333.5 373.5 335.2 372.9 337.2 372.9C339.2 372.8 340.8 373.5 342.1 374.9ZM334.3 376.7C333.7 377.5 333.4 378.6 333.4 379.9C333.4 381.2 333.7 382.3 334.3 383.1C335 384.1 335.9 384.6 337.2 384.6C338.4 384.6 339.4 384.1 340.1 383.1C340.7 382.2 341 381.2 341 379.9C341 378.6 340.7 377.5 340.1 376.7C339.4 375.7 338.5 375.2 337.2 375.2C335.9 375.3 335 375.7 334.3 376.7Z" fill="white"/>
<path d="M18 0.400024L21 12.4H21.1L24.2 0.400024H26.7L29.8 12.4H29.9L32.9 0.400024H35.5L31.1 15.8H28.6L25.5 4H25.4L22.3 15.8H19.8L15.4 0.400024H18Z" fill="white"/>
<path d="M45.5 5.59998C46.2 6.29998 46.5 7.30001 46.5 8.70001V15.8H44.4V14.2C44 14.8 43.4 15.2 42.8 15.5C42.1 15.8 41.2 16 40.2 16C39 16 38.1 15.7 37.5 15.1C36.8 14.5 36.4 13.8 36.4 12.8C36.4 11.6 36.9 10.6 37.9 9.90002C38.8 9.30002 40.1 8.90002 41.7 8.90002L44.2 8.79999V8.29999C44.2 6.79999 43.4 6 41.7 6C41 6 40.4 6.10002 40 6.40002C39.5 6.70002 39.2 7.19999 39 7.79999L36.7 7.59998C36.9 6.39998 37.5 5.50002 38.5 4.90002C39.3 4.40002 40.4 4.09998 41.8 4.09998C43.5 4.39998 44.7 4.79998 45.5 5.59998ZM41.9 10.7C39.8 10.7 38.8 11.5 38.8 12.9C38.8 13.3 39 13.7 39.3 14C39.6 14.3 40.1 14.4 40.7 14.4C41.7 14.4 42.5 14.1 43.2 13.5C43.9 12.9 44.3 12.2 44.3 11.3V10.7H41.9Z" fill="white"/>
<path d="M51.7 0.0999756V15.8H49.4V0.0999756H51.7Z" fill="white"/>
<path d="M57 0.0999756V15.8H54.7V0.0999756H57Z" fill="white"/>
<path d="M68.7 6.20002C69.6 7.30002 70 8.9 70 10.8H61.6C61.7 11.9 62 12.7 62.5 13.3C63 13.9 63.7 14.2 64.6 14.2C65.4 14.2 66 14 66.5 13.6C66.9 13.3 67.2 12.8 67.5 12.2H69.8C69.5 13.2 69 14.1 68.3 14.8C67.3 15.6 66.1 16.1 64.6 16.1C63 16.1 61.7 15.6 60.7 14.6C59.7 13.5 59.2 12.1 59.2 10.3C59.2 8.6 59.7 7.30002 60.7 6.20002C61.6 5.10002 63 4.50001 64.6 4.50001C66.4 4.40001 67.8 5.00002 68.7 6.20002ZM62.6 7.00001C62.1 7.50001 61.8 8.19998 61.7 9.09998H67.7C67.5 7.19998 66.5 6.20002 64.7 6.20002C63.8 6.20002 63.1 6.50001 62.6 7.00001Z" fill="white"/>
<path d="M75.4 4.70001H77.9V6.59998H75.4V13.1C75.4 13.4 75.5 13.6 75.6 13.8C75.7 13.9 75.9 14 76.2 14H77.7V15.9H75.9C75 15.9 74.2 15.6 73.8 15.1C73.4 14.6 73.2 14 73.2 13.1V6.59998H71V4.70001H73.1V2L75.4 1.09998V4.70001Z" fill="white"/>
<path d="M94.2 0.400024L100.1 15.8H97.6L96.2 11.8H89.6L88.2 15.8H85.7L91.6 0.400024H94.2ZM95.4 9.90002L92.9 3H92.8L90.2 9.90002H95.4Z" fill="white"/>
<path d="M110.3 7.90002H108.1C107.9 7.30002 107.7 6.90001 107.3 6.70001C106.9 6.40001 106.3 6.29999 105.5 6.29999C104.8 6.29999 104.3 6.39998 104 6.59998C103.6 6.79998 103.4 7.19998 103.4 7.59998C103.4 7.99998 103.7 8.29998 104.3 8.59998C104.7 8.79998 105.4 8.99999 106.5 9.29999C107.8 9.59999 108.7 10 109.3 10.4C110.2 11 110.6 11.7 110.6 12.7C110.6 15 108.9 16.2 105.7 16.2C102.6 16.2 101 14.9 100.8 12.3H103C103.1 13.1 103.4 13.6 103.8 13.9C104.2 14.2 104.8 14.3 105.6 14.3C107.4 14.3 108.3 13.8 108.3 12.8C108.3 12.3 108 11.8 107.3 11.5C107 11.3 106.2 11.1 105.1 10.9C103.8 10.6 102.9 10.3 102.3 9.90002C101.4 9.40002 101 8.60001 101 7.70001C101 6.70001 101.4 5.89999 102.2 5.29999C103 4.69999 104.1 4.40002 105.5 4.40002C108.4 4.40002 110 5.50002 110.3 7.90002Z" fill="white"/>
<path d="M121.4 7.90002H119.2C119 7.30002 118.8 6.90001 118.4 6.70001C118 6.40001 117.4 6.29999 116.6 6.29999C115.9 6.29999 115.4 6.39998 115.1 6.59998C114.7 6.79998 114.5 7.19998 114.5 7.59998C114.5 7.99998 114.8 8.29998 115.4 8.59998C115.8 8.79998 116.5 8.99999 117.6 9.29999C118.9 9.59999 119.8 10 120.4 10.4C121.3 11 121.7 11.7 121.7 12.7C121.7 15 120 16.2 116.8 16.2C113.7 16.2 112.1 14.9 111.9 12.3H114.1C114.2 13.1 114.5 13.6 114.9 13.9C115.3 14.2 115.9 14.3 116.7 14.3C118.5 14.3 119.4 13.8 119.4 12.8C119.4 12.3 119.1 11.8 118.4 11.5C118.1 11.3 117.3 11.1 116.2 10.9C114.9 10.6 114 10.3 113.4 9.90002C112.5 9.40002 112.1 8.60001 112.1 7.70001C112.1 6.70001 112.5 5.89999 113.3 5.29999C114.1 4.69999 115.2 4.40002 116.6 4.40002C119.6 4.40002 121.2 5.50002 121.4 7.90002Z" fill="white"/>
<path d="M132.6 6.20002C133.5 7.30002 133.9 8.9 133.9 10.8H125.5C125.6 11.9 125.9 12.7 126.4 13.3C126.9 13.9 127.6 14.2 128.5 14.2C129.3 14.2 129.9 14 130.4 13.6C130.8 13.3 131.1 12.8 131.4 12.2H133.7C133.4 13.2 132.9 14.1 132.2 14.8C131.2 15.6 130 16.1 128.5 16.1C126.9 16.1 125.6 15.6 124.6 14.6C123.6 13.5 123.1 12.1 123.1 10.3C123.1 8.6 123.6 7.30002 124.6 6.20002C125.5 5.10002 126.9 4.50001 128.5 4.50001C130.3 4.40001 131.7 5.00002 132.6 6.20002ZM126.5 7.00001C126 7.50001 125.7 8.19998 125.6 9.09998H131.6C131.4 7.19998 130.4 6.20002 128.6 6.20002C127.7 6.20002 127 6.50001 126.5 7.00001Z" fill="white"/>
<path d="M139.2 4.70001H141.7V6.59998H139.2V13.1C139.2 13.4 139.3 13.6 139.4 13.8C139.5 13.9 139.7 14 140 14H141.5V15.9H139.7C138.8 15.9 138 15.6 137.6 15.1C137.2 14.6 137 14 137 13.1V6.59998H134.9V4.70001H137V2L139.3 1.09998V4.70001H139.2Z" fill="white"/>
<path d="M158 0.400024C159.5 0.400024 160.7 0.7 161.5 1.5C162.3 2.2 162.7 3.09999 162.7 4.29999C162.7 5.19999 162.5 5.9 162.1 6.5C161.7 7.1 161.1 7.49999 160.3 7.79999C161.3 7.99999 162.1 8.4 162.6 9C163.1 9.6 163.4 10.5 163.4 11.5C163.4 13 162.9 14.2 161.8 14.9C160.9 15.5 159.6 15.8 158 15.8H151V0.400024H158ZM153.3 6.90002H157.3C158.4 6.90002 159.1 6.69999 159.6 6.29999C160.1 5.89999 160.3 5.3 160.3 4.5C160.3 3.7 160.1 3.19999 159.6 2.79999C159.1 2.39999 158.4 2.29999 157.3 2.29999H153.2V6.90002H153.3ZM153.3 13.8H157.6C158.6 13.8 159.4 13.6 159.9 13.3C160.6 12.9 161 12.2 161 11.4C161 10.5 160.7 9.80002 160.2 9.40002C159.7 9.00002 158.8 8.79999 157.7 8.79999H153.3V13.8Z" fill="white"/>
<path d="M174.2 5.59998C174.9 6.29998 175.2 7.30001 175.2 8.70001V15.8H173.1V14.2C172.7 14.8 172.1 15.2 171.5 15.5C170.8 15.8 169.9 16 168.9 16C167.7 16 166.8 15.7 166.2 15.1C165.5 14.5 165.1 13.8 165.1 12.8C165.1 11.6 165.6 10.6 166.6 9.90002C167.5 9.30002 168.8 8.90002 170.4 8.90002L172.9 8.79999V8.29999C172.9 6.79999 172.1 6 170.4 6C169.7 6 169.1 6.10002 168.7 6.40002C168.2 6.70002 167.9 7.19999 167.7 7.79999L165.4 7.59998C165.6 6.39998 166.2 5.50002 167.2 4.90002C168 4.40002 169.1 4.09998 170.5 4.09998C172.2 4.39998 173.4 4.79998 174.2 5.59998ZM170.6 10.7C168.5 10.7 167.5 11.5 167.5 12.9C167.5 13.3 167.7 13.7 168 14C168.3 14.3 168.8 14.4 169.4 14.4C170.4 14.4 171.2 14.1 171.9 13.5C172.6 12.9 173 12.2 173 11.3V10.7H170.6Z" fill="white"/>
<path d="M180.3 0.0999756V15.8H178V0.0999756H180.3Z" fill="white"/>
<path d="M191.8 5.59998C192.5 6.29998 192.8 7.30001 192.8 8.70001V15.8H190.7V14.2C190.3 14.8 189.7 15.2 189.1 15.5C188.4 15.8 187.5 16 186.5 16C185.3 16 184.4 15.7 183.8 15.1C183.1 14.5 182.7 13.8 182.7 12.8C182.7 11.6 183.2 10.6 184.2 9.90002C185.1 9.30002 186.4 8.90002 188 8.90002L190.5 8.79999V8.29999C190.5 6.79999 189.7 6 188 6C187.3 6 186.7 6.10002 186.3 6.40002C185.8 6.70002 185.5 7.19999 185.3 7.79999L183 7.59998C183.2 6.39998 183.8 5.50002 184.8 4.90002C185.6 4.40002 186.7 4.09998 188.1 4.09998C189.8 4.39998 191 4.79998 191.8 5.59998ZM188.2 10.7C186.1 10.7 185.1 11.5 185.1 12.9C185.1 13.3 185.3 13.7 185.6 14C185.9 14.3 186.4 14.4 187 14.4C188 14.4 188.8 14.1 189.5 13.5C190.2 12.9 190.6 12.2 190.6 11.3V10.7H188.2Z" fill="white"/>
<path d="M205.2 8.90008V15.8H202.9V9.10003C202.9 7.20003 202 6.30004 200.3 6.30004C199.7 6.30004 199.1 6.50005 198.6 7.00005C198.1 7.50005 197.8 8.20003 197.7 9.10003V15.8H195.4V4.70006H197.7V6.10003C198.1 5.50003 198.6 5.10008 199.2 4.90008C199.8 4.60008 200.4 4.50005 201.1 4.50005C203.8 4.40005 205.2 5.90008 205.2 8.90008Z" fill="white"/>
<path d="M216.1 5.29999C217 5.99999 217.5 7.00002 217.7 8.40002H215.4C215.2 7.60002 214.9 7.10001 214.5 6.70001C214 6.30001 213.4 6.20001 212.6 6.20001C211.7 6.20001 210.9 6.49999 210.4 7.29999C209.8 7.99999 209.6 9.00001 209.6 10.2C209.6 11.4 209.9 12.4 210.4 13.1C210.9 13.8 211.6 14.2 212.6 14.2C214.3 14.2 215.2 13.3 215.5 11.7H217.8C217.5 13.2 217 14.3 216.1 15C215.2 15.7 214.1 16.1 212.7 16.1C211 16.1 209.7 15.5 208.7 14.4C207.8 13.3 207.3 11.9 207.3 10.2C207.3 8.50001 207.8 7.09998 208.7 6.09998C209.7 4.89998 211 4.40002 212.7 4.40002C214.1 4.40002 215.3 4.69999 216.1 5.29999Z" fill="white"/>
<path d="M228.6 6.20002C229.5 7.30002 229.9 8.9 229.9 10.8H221.5C221.6 11.9 221.9 12.7 222.4 13.3C222.9 13.9 223.6 14.2 224.5 14.2C225.3 14.2 225.9 14 226.4 13.6C226.8 13.3 227.1 12.8 227.4 12.2H229.7C229.4 13.2 228.9 14.1 228.2 14.8C227.2 15.6 226 16.1 224.5 16.1C222.9 16.1 221.6 15.6 220.6 14.6C219.6 13.5 219.1 12.1 219.1 10.3C219.1 8.6 219.6 7.30002 220.6 6.20002C221.5 5.10002 222.9 4.50001 224.5 4.50001C226.3 4.40001 227.7 5.00002 228.6 6.20002ZM222.5 7.00001C222 7.50001 221.7 8.19998 221.6 9.09998H227.6C227.4 7.19998 226.4 6.20002 224.6 6.20002C223.7 6.20002 223 6.50001 222.5 7.00001Z" fill="white"/>
<path d="M286.9 12.2999H285.2V18.2H279.6V1.19997H287.6C292.8 1.09997 295.3 2.69996 295.1 5.99996C295 8.19996 294.1 9.59997 292.2 10.2C294.3 10.6 295.3 12.1 295.2 14.7C295.2 14.9 295.2 15.1 295.2 15.4C295.1 17.1 295.3 17.7999 295.8 17.5999V18.2H290.2C290 17.8 289.9 16.8 289.9 15.2C290.2 13.1 289.2 12.1999 286.9 12.2999ZM285.2 5.19997V8.49996H287.4C289.2 8.59996 290.1 7.99998 290.1 6.89998C290 5.79998 289.3 5.19993 287.8 5.09993H285.2V5.19997Z" fill="#DC5F62"/>
<path d="M311.7 13.2H302.3C302.4 14.7 303.3 15.5 304.8 15.6C305.6 15.6 306.2 15.3 306.7 14.6H311.3C310.6 17.1 308.3 18.4 304.5 18.5C300 18.4 297.7 16.3 297.5 12.2C297.7 8.00001 300.1 5.8 304.5 5.5C309.1 5.7 311.6 8.30001 311.7 13.2ZM302.3 10.7H306.8C306.7 9.40001 305.9 8.69998 304.6 8.59998C303.1 8.59998 302.3 9.30001 302.3 10.7Z" fill="#DC5F62"/>
<path d="M325.7 5.8999L327.6 13.5999L329.5 5.8999H334.1L330.2 18.2999H325.4L323.5 10.9999H323.4L321.7 18.2999H317L312.8 5.8999H317.6L319.5 13.5999L321.4 5.8999H325.7Z" fill="#DC5F62"/>
<path d="M349.6 18.2999H344.5L344.3 16.9999C343.2 17.9999 341.6 18.4999 339.6 18.4999C336.8 18.3999 335.3 17.1999 335.2 14.8999C335.2 12.5999 337.2 11.1999 341.1 10.6999C343.1 10.4999 344.1 10.0999 344.1 9.49991C344.1 8.79991 343.5 8.49991 342.4 8.49991C341.4 8.49991 340.8 8.89992 340.7 9.69992H336C335.9 6.89992 338.2 5.49991 342.8 5.49991C347.4 5.29991 349.4 6.99992 349 10.6999V16.3999C348.9 17.0999 349.2 17.6999 349.6 17.9999V18.2999ZM341.9 15.8999C343.4 15.8999 344.2 14.8999 344.1 12.7999C343.7 12.9999 343.1 13.0999 342.3 13.2999C340.9 13.4999 340.2 13.9999 340.3 14.7999C340.4 15.3999 340.9 15.7999 341.9 15.8999Z" fill="#DC5F62"/>
<path d="M351.6 18.3V5.90002H356.1V8.40002C356.8 6.50002 358.1 5.5 359.9 5.5C360 5.5 360.1 5.49998 360.3 5.59998C360.4 5.59998 360.5 5.59998 360.6 5.59998V10.5C360.5 10.5 360.4 10.5 360.1 10.4C359.9 10.3 359.7 10.3 359.5 10.3C357.5 10.2 356.5 11.5 356.5 14V18.3H351.6Z" fill="#DC5F62"/>
<path d="M375.5 18.2999H371.2V16.5999C370.2 17.8999 368.9 18.5 367.3 18.4C363.7 18.3 361.8 16.2 361.7 12.2C361.9 7.99995 363.6 5.79996 367 5.39996C368.6 5.29996 369.8 5.89994 370.7 6.99994V1.19995H375.6V18.2999H375.5ZM368.5 14.9999C369.9 14.9999 370.7 13.9999 370.7 12.0999C370.6 10.1999 369.9 9.19995 368.6 9.19995C367.3 9.29995 366.6 10.2 366.6 12.2C366.6 14.1 367.2 14.9999 368.5 14.9999Z" fill="#DC5F62"/>
<path d="M377.3 14.4H382C382 15 382.2 15.4 382.6 15.6C382.9 15.8 383.3 15.9 383.8 16C384.8 15.9 385.4 15.6 385.4 14.9C385.4 14.3 384.5 13.9 382.8 13.6C379.5 12.9 377.8 11.6 377.8 9.59998C377.9 6.99998 379.8 5.7 383.6 5.5C387.5 5.5 389.6 6.80002 389.8 9.40002H385.3C385.3 9.00002 385.1 8.79998 384.8 8.59998C384.5 8.39998 384.2 8.20001 383.8 8.20001C382.9 8.20001 382.4 8.49998 382.4 9.09998C382.4 9.49998 383.2 9.90001 384.9 10.2C388.5 11 390.3 12.4 390.3 14.3C390.2 17 388 18.4 383.6 18.5C379.7 18.4 377.6 17 377.3 14.4Z" fill="#DC5F62"/>
</svg>
