<svg width="469" height="38" viewBox="0 0 469 38" fill="none" xmlns="http://www.w3.org/2000/svg">
<path d="M10.9 4.59998V33H7.60001V8.59998C5.80001 10.4 3.59999 11.7 0.899994 12.5V9.20001C2.19999 8.80001 3.49999 8.3 4.89999 7.5C6.29999 6.6 7.4 5.69998 8.3 4.59998H10.9Z" fill="white"/>
<path d="M36.6 11.6H33.4C32.8 8.29998 30.8 6.70001 27.5 6.70001C25.3 6.70001 23.5 7.8 22.2 10C20.9 12.1 20.3 14.7 20.3 18C20.3 18.2 20.3 18.5 20.3 19H20.5C21.2 17.5 22.2 16.4 23.6 15.6C24.9 14.8 26.3 14.4 28 14.4C30.7 14.4 32.9 15.3 34.6 17C36.2 18.8 37.1 21 37.1 23.8C37.1 26.6 36.2 28.9 34.4 30.8C32.6 32.6 30.3 33.6 27.5 33.6C24 33.6 21.5 32.3 19.7 29.7C18 27.3 17.2 23.9 17.2 19.6C17.2 15.1 18.1 11.4 19.9 8.5C21.8 5.5 24.3 4 27.5 4C32.8 4 35.8 6.49998 36.6 11.6ZM22.8 19C21.6 20.3 21 21.9 21 23.9C21 25.9 21.6 27.5 22.8 28.8C24 30.2 25.5 30.8 27.5 30.8C29.4 30.8 31 30.1 32.2 28.8C33.4 27.4 34 25.8 34 23.7C34 21.7 33.4 20.1 32.2 18.9C31 17.6 29.5 17 27.5 17C25.5 17.1 24 17.8 22.8 19Z" fill="white"/>
<path d="M46 14.3C46.5 14.8 46.7 15.3 46.7 16C46.7 16.7 46.5 17.3 46 17.8C45.5 18.2 44.9 18.5 44.3 18.5C43.6 18.5 43 18.3 42.6 17.8C42.1 17.3 41.9 16.7 41.9 16C41.9 15.3 42.1 14.8 42.6 14.3C43 13.8 43.6 13.6 44.3 13.6C45 13.6 45.6 13.9 46 14.3ZM46 28.9C46.5 29.4 46.7 29.9 46.7 30.6C46.7 31.3 46.5 31.9 46 32.4C45.5 32.8 44.9 33.1 44.3 33.1C43.6 33.1 43 32.9 42.6 32.4C42.1 31.9 41.9 31.3 41.9 30.6C41.9 29.9 42.1 29.4 42.6 28.9C43 28.4 43.6 28.2 44.3 28.2C45 28.2 45.6 28.4 46 28.9Z" fill="white"/>
<path d="M69.2 8.5C70.7 11 71.5 14.5 71.5 18.8C71.5 23.1 70.7 26.5 69.2 29.1C67.4 32.1 64.9 33.6 61.5 33.6C58.1 33.6 55.5 32.1 53.8 29.1C52.3 26.6 51.5 23.1 51.5 18.8C51.5 14.5 52.3 11.1 53.8 8.5C55.5 5.5 58.1 4 61.5 4C64.9 4 67.5 5.5 69.2 8.5ZM56 10.9C55.2 12.8 54.8 15.4 54.8 18.8C54.8 22.1 55.2 24.7 56 26.7C57.1 29.4 58.9 30.8 61.5 30.8C64.1 30.8 65.9 29.4 67 26.7C67.8 24.7 68.2 22.1 68.2 18.8C68.2 15.5 67.8 12.8 67 10.9C65.9 8.20002 64.1 6.79999 61.5 6.79999C58.9 6.79999 57.1 8.20002 56 10.9Z" fill="white"/>
<path d="M93.1 8.5C94.6 11 95.4 14.5 95.4 18.8C95.4 23.1 94.6 26.5 93.1 29.1C91.3 32.1 88.8 33.6 85.4 33.6C82 33.6 79.4 32.1 77.7 29.1C76.2 26.6 75.4 23.1 75.4 18.8C75.4 14.5 76.2 11.1 77.7 8.5C79.4 5.5 82 4 85.4 4C88.8 4 91.3 5.5 93.1 8.5ZM79.9 10.9C79.1 12.8 78.7 15.4 78.7 18.8C78.7 22.1 79.1 24.7 79.9 26.7C81 29.4 82.8 30.8 85.4 30.8C88 30.8 89.8 29.4 90.9 26.7C91.7 24.7 92.1 22.1 92.1 18.8C92.1 15.5 91.7 12.8 90.9 10.9C89.8 8.20002 88 6.79999 85.4 6.79999C82.8 6.79999 81 8.20002 79.9 10.9Z" fill="white"/>
<path d="M130.2 8.5C131.7 11 132.5 14.5 132.5 18.8C132.5 23.1 131.7 26.5 130.2 29.1C128.4 32.1 125.9 33.6 122.5 33.6C119.1 33.6 116.5 32.1 114.8 29.1C113.3 26.6 112.5 23.1 112.5 18.8C112.5 14.5 113.3 11.1 114.8 8.5C116.5 5.5 119.1 4 122.5 4C125.9 4 128.5 5.5 130.2 8.5ZM117 10.9C116.2 12.8 115.8 15.4 115.8 18.8C115.8 22.1 116.2 24.7 117 26.7C118.1 29.4 119.9 30.8 122.5 30.8C125.1 30.8 126.9 29.4 128 26.7C128.8 24.7 129.2 22.1 129.2 18.8C129.2 15.5 128.8 12.8 128 10.9C126.9 8.20002 125.1 6.79999 122.5 6.79999C119.9 6.79999 118.2 8.20002 117 10.9Z" fill="white"/>
<path d="M152.8 4.59998V23.9H157.4V26.6H152.8V33H149.7V26.6H135.4V23.5L149.7 4.59998H152.8ZM138.2 23.9H149.7V8.90002H149.6L138.2 23.9Z" fill="white"/>
<path d="M165.3 29.0001C165.8 29.5001 166 30 166 30.8C166 31.5 165.8 32.0001 165.3 32.5001C164.8 33.0001 164.2 33.2001 163.6 33.2001C162.9 33.2001 162.3 33.0001 161.9 32.5001C161.4 32.0001 161.2 31.5 161.2 30.8C161.2 30.1 161.4 29.5001 161.9 29.0001C162.3 28.5001 162.9 28.3 163.6 28.3C164.2 28.3 164.8 28.5001 165.3 29.0001Z" fill="white"/>
<path d="M180.5 4.59998V33H177.2V8.59998C175.4 10.4 173.2 11.7 170.5 12.5V9.20001C171.8 8.80001 173.1 8.3 174.5 7.5C175.9 6.6 177 5.69998 177.9 4.59998H180.5Z" fill="white"/>
<path d="M203.7 6.29999C205.2 7.69999 206 9.4 206 11.5C206 13 205.6 14.3 204.9 15.3C204.1 16.4 203 17.2 201.5 17.8V17.9C203 18.3 204.2 19.1 205.3 20.4C206.4 21.8 207 23.3 207 25.2C207 27.7 206.1 29.7 204.4 31.2C202.6 32.8 200 33.5 196.8 33.5C193.5 33.5 190.9 32.7 189.2 31.2C187.4 29.7 186.6 27.7 186.6 25.2C186.6 23.4 187.2 21.8 188.3 20.4C189.3 19.1 190.6 18.3 192.1 17.9V17.8C190.6 17.3 189.5 16.4 188.7 15.3C188 14.3 187.6 13 187.6 11.5C187.6 9.4 188.4 7.69999 189.9 6.29999C191.6 4.69999 193.9 4 196.9 4C199.7 4 202 4.79999 203.7 6.29999ZM191.5 21C190.3 22 189.7 23.4 189.7 25.1C189.7 26.8 190.3 28.2 191.5 29.2C192.7 30.3 194.5 30.8 196.8 30.8C199.1 30.8 200.9 30.2 202.1 29.1C203.2 28.1 203.8 26.7 203.8 25C203.8 23.3 203.2 21.9 202.1 20.9C200.8 19.7 199 19.2 196.8 19.2C194.4 19.3 192.7 19.9 191.5 21ZM192 8.29999C191 9.19999 190.5 10.3 190.5 11.7C190.5 13.1 190.9 14.3 191.8 15.2C192.8 16.2 194.5 16.8 196.7 16.8C198.9 16.8 200.5 16.2 201.6 15.2C202.5 14.3 202.9 13.1 202.9 11.7C202.9 10.3 202.4 9.19999 201.4 8.29999C200.2 7.29999 198.7 6.70001 196.7 6.70001C194.7 6.70001 193.1 7.19999 192 8.29999Z" fill="white"/>
<path d="M215.6 29.0001C216.1 29.5001 216.3 30 216.3 30.8C216.3 31.5 216.1 32.0001 215.6 32.5001C215.1 33.0001 214.5 33.2001 213.9 33.2001C213.2 33.2001 212.6 33.0001 212.2 32.5001C211.7 32.0001 211.5 31.5 211.5 30.8C211.5 30.1 211.7 29.5001 212.2 29.0001C212.6 28.5001 213.2 28.3 213.9 28.3C214.6 28.3 215.2 28.5001 215.6 29.0001Z" fill="white"/>
<path d="M238 6.29993C239.7 7.79993 240.5 9.79993 240.5 12.2999C240.5 14.7999 239.5 16.9999 237.7 18.9999C236.7 19.9999 234.8 21.5999 231.8 23.5999C228.2 25.9999 226.1 28.1999 225.6 30.0999H240.5V32.9999H221.6C221.6 30.3999 222.5 28.0999 224.4 25.9999C225.5 24.6999 227.5 23 230.6 20.9C232.8 19.3 234.3 18.2 235.1 17.4C236.5 15.8 237.3 14.0999 237.3 12.2999C237.3 10.4999 236.8 9.19993 235.7 8.29993C234.7 7.29993 233.2 6.89997 231.4 6.89997C229.4 6.89997 227.9 7.49997 226.9 8.89997C225.8 10.2 225.2 12.0999 225.1 14.5999H221.8C221.8 11.3999 222.7 8.89994 224.5 6.99994C226.3 5.09994 228.6 4.09992 231.5 4.09992C234.2 3.99992 236.3 4.79993 238 6.29993Z" fill="white"/>
<path d="M262.7 8.5C264.2 11 265 14.5 265 18.8C265 23.1 264.2 26.5 262.7 29.1C260.9 32.1 258.4 33.6 255 33.6C251.6 33.6 249 32.1 247.3 29.1C245.8 26.6 245 23.1 245 18.8C245 14.5 245.8 11.1 247.3 8.5C249 5.5 251.6 4 255 4C258.4 4 260.9 5.5 262.7 8.5ZM249.5 10.9C248.7 12.8 248.3 15.4 248.3 18.8C248.3 22.1 248.7 24.7 249.5 26.7C250.6 29.4 252.4 30.8 255 30.8C257.6 30.8 259.4 29.4 260.5 26.7C261.3 24.7 261.7 22.1 261.7 18.8C261.7 15.5 261.3 12.8 260.5 10.9C259.4 8.20002 257.6 6.79999 255 6.79999C252.4 6.79999 250.6 8.20002 249.5 10.9Z" fill="white"/>
<path d="M285.8 6.29993C287.5 7.79993 288.3 9.79993 288.3 12.2999C288.3 14.7999 287.3 16.9999 285.5 18.9999C284.5 19.9999 282.6 21.5999 279.6 23.5999C276 25.9999 273.9 28.1999 273.4 30.0999H288.3V32.9999H269.4C269.4 30.3999 270.3 28.0999 272.2 25.9999C273.3 24.6999 275.3 23 278.4 20.9C280.6 19.3 282.1 18.2 282.9 17.4C284.3 15.8 285.1 14.0999 285.1 12.2999C285.1 10.4999 284.6 9.19993 283.5 8.29993C282.4 7.39993 281 6.89997 279.2 6.89997C277.2 6.89997 275.7 7.49997 274.7 8.89997C273.6 10.2 273 12.0999 272.9 14.5999H269.6C269.6 11.3999 270.5 8.89994 272.3 6.99994C274.1 5.09994 276.4 4.09992 279.3 4.09992C281.9 3.99992 284.1 4.79993 285.8 6.29993Z" fill="white"/>
<path d="M309.6 6.09998C311.2 7.49998 312.1 9.39999 312.1 11.8C312.1 15 310.5 17.1 307.4 18.2C309.1 18.7 310.3 19.5 311.2 20.6C312.2 21.7 312.6 23.1 312.6 24.8C312.6 27.4 311.7 29.5 309.9 31.1C308.1 32.8 305.7 33.6 302.7 33.6C300 33.6 297.8 32.9 296.1 31.5C294.1 29.8 293 27.4 292.7 24.2H296C296.1 26.4 296.8 28.1 298.2 29.3C299.4 30.3 300.9 30.8 302.7 30.8C304.7 30.8 306.4 30.2 307.6 29C308.7 27.9 309.3 26.5 309.3 24.8C309.3 23.1 308.7 21.8 307.6 20.8C306.5 19.8 305 19.4 303 19.4H300.7V16.9H302.9C304.8 16.9 306.2 16.5 307.2 15.6C308.2 14.7 308.7 13.5 308.7 11.9C308.7 10.3 308.2 9.10001 307.2 8.20001C306.2 7.20001 304.7 6.79999 302.9 6.79999C301 6.79999 299.5 7.29999 298.4 8.29999C297.3 9.29999 296.6 10.8 296.4 12.7H293.2C293.4 10 294.5 7.79999 296.2 6.29999C297.9 4.69999 300.1 4 302.8 4C305.5 4 308 4.69998 309.6 6.09998Z" fill="white"/>
<path d="M325.6 0.0999756C324 2.69998 322.7 5.49999 321.8 8.29999C320.6 11.8 320 15.2 320 18.6C320 22 320.6 25.4 321.8 28.9C322.7 31.7 323.9 34.5 325.6 37.1H322.8C321 34.5 319.7 31.8 318.7 28.9C317.5 25.5 316.9 22 316.9 18.6C316.9 15.1 317.5 11.6 318.7 8.20001C319.7 5.30001 321 2.5 322.8 0H325.6V0.0999756Z" fill="white"/>
<path d="M334.1 4.59998V22.1C334.1 24.9 334.7 27 336 28.4C337.3 29.9 339.4 30.6 342.2 30.6C345 30.6 347.1 29.8 348.4 28.4C349.6 27 350.3 24.9 350.3 22.1V4.59998H353.6V22.1C353.6 25.8 352.6 28.6 350.8 30.6C348.8 32.6 346 33.6 342.3 33.6C338.6 33.6 335.7 32.6 333.8 30.7C331.9 28.7 330.9 25.9 330.9 22.2V4.70001H334.1V4.59998Z" fill="white"/>
<path d="M380.3 4.59998V7.40002H370.3V33H367.1V7.40002H357.1V4.59998H380.3Z" fill="white"/>
<path d="M404.1 6.5C406.2 8.2 407.5 10.4 407.9 13.3H404.8C404.4 11.2 403.4 9.6 401.8 8.5C400.2 7.4 398.4 6.90002 396.1 6.90002C392.8 6.90002 390.3 8.10002 388.5 10.4C386.8 12.5 386 15.4 386 18.9C386 22.4 386.8 25.3 388.5 27.3C390.3 29.5 392.8 30.6 396.1 30.6C398.4 30.6 400.3 30 401.9 28.8C403.6 27.5 404.7 25.7 405.3 23.2H408.4C407.8 26.5 406.3 29.1 403.9 30.9C401.7 32.6 399.1 33.5 396.1 33.5C391.7 33.5 388.3 32 386 29.1C383.9 26.5 382.8 23.1 382.8 18.8C382.8 14.5 383.9 11.1 386.1 8.40002C388.5 5.40002 391.9 3.90002 396.3 3.90002C399.3 4.00002 401.9 4.9 404.1 6.5Z" fill="white"/>
<path d="M423.4 12.7V21.4H432.1V24.1H423.4V32.8H420.7V24H412V21.3H420.7V12.6H423.4V12.7Z" fill="white"/>
<path d="M452.9 6.29999C454.4 7.69999 455.2 9.4 455.2 11.5C455.2 13 454.8 14.3 454.1 15.3C453.3 16.4 452.2 17.2 450.7 17.8V17.9C452.2 18.3 453.4 19.1 454.5 20.4C455.6 21.8 456.2 23.3 456.2 25.2C456.2 27.7 455.3 29.7 453.6 31.2C451.8 32.8 449.2 33.5 446 33.5C442.7 33.5 440.2 32.7 438.4 31.2C436.6 29.7 435.8 27.7 435.8 25.2C435.8 23.4 436.4 21.8 437.5 20.4C438.5 19.1 439.8 18.3 441.3 17.9V17.8C439.8 17.3 438.7 16.4 437.9 15.3C437.2 14.3 436.8 13 436.8 11.5C436.8 9.4 437.6 7.69999 439.1 6.29999C440.8 4.69999 443.1 4 446.1 4C448.9 4 451.3 4.79999 452.9 6.29999ZM440.7 21C439.5 22 438.9 23.4 438.9 25.1C438.9 26.8 439.5 28.2 440.7 29.2C441.9 30.3 443.7 30.8 446 30.8C448.3 30.8 450.1 30.2 451.3 29.1C452.4 28.1 453 26.7 453 25C453 23.3 452.4 21.9 451.3 20.9C450 19.7 448.2 19.2 446 19.2C443.7 19.3 441.9 19.9 440.7 21ZM441.2 8.29999C440.2 9.19999 439.7 10.3 439.7 11.7C439.7 13.1 440.1 14.3 441 15.2C442 16.2 443.7 16.8 445.9 16.8C448.1 16.8 449.7 16.2 450.8 15.2C451.7 14.3 452.1 13.1 452.1 11.7C452.1 10.3 451.6 9.19999 450.6 8.29999C449.4 7.29999 447.9 6.70001 445.9 6.70001C444 6.70001 442.4 7.19999 441.2 8.29999Z" fill="white"/>
<path d="M463 0.0999756C464.7 2.59998 466.1 5.39999 467.1 8.29999C468.3 11.7 468.9 15.2 468.9 18.7C468.9 22.2 468.3 25.6 467.1 29C466.1 31.9 464.7 34.6 463 37.2H460.2C461.8 34.5 463.1 31.8 464 29C465.2 25.5 465.8 22 465.8 18.7C465.8 15.3 465.2 11.9 464 8.40002C463.1 5.50002 461.8 2.80001 460.2 0.200012H463V0.0999756Z" fill="white"/>
</svg>
