<svg width="476" height="34" viewBox="0 0 476 34" fill="none" xmlns="http://www.w3.org/2000/svg">
<path d="M28.5 10.7H18.7C18.6 9.69995 18.1 8.99994 17.1 8.59995C16.5 8.09995 15.7 7.89993 14.5 7.89993C12.2 7.89993 11.1 8.49993 11.1 9.79993C11.1 10.9999 13.2 11.9999 17.3 13.0999C25.3 15.0999 29.4 18.3999 29.4 23.0999C29.2 30.0999 24.2 33.6999 14.6 33.7999C6.20001 33.4999 1.5 29.9999 0.5 23.4999H10.5C10.8 24.6999 11.4 25.4999 12.2 26.0999C13 26.5999 14 26.7999 15.1 26.7999C18.1 26.7999 19.6 26.0999 19.6 24.5999C19.6 23.2999 17.6 22.1999 13.6 21.2999C5.40001 19.2999 1.39999 15.8999 1.39999 10.9999C1.59999 4.39994 6.2 1.09993 15 0.799927C22.9 0.799927 27.5 4.09995 28.5 10.7Z" fill="white"/>
<path d="M32.3 21.9C32.6 14 37 9.8 45.4 9.5C53.8 9.8 58.2 13.9 58.7 21.6C58.5 29.4 54 33.4 45.4 33.7C36.9 33.4 32.5 29.5 32.3 21.9ZM45.6 15.7C43 15.8 41.6 17.8 41.5 21.6C41.6 25.6 42.9 27.7 45.5 27.8C48.1 27.8 49.5 25.7 49.5 21.6C49.2 17.6 48 15.7 45.6 15.7Z" fill="white"/>
<path d="M87.3 19H78C78 18 77.7 17.2 77.1 16.6C76.5 16 75.7 15.7 74.7 15.7C72.1 15.7 70.7 17.8 70.6 21.9C70.6 25.7 72 27.6 74.7 27.8C76.8 27.8 77.9 26.7 78.1 24.4H87.4C86.7 30.5 82.5 33.6 74.6 33.7C66 33.5 61.6 29.6 61.3 22C61.6 14.1 66.1 9.89998 74.6 9.59998C82.3 9.69998 86.5 12.9 87.3 19Z" fill="white"/>
<path d="M92.1 7.19998V0.599976H101.2V7.19998H92.1ZM101.2 33.3H92.1V10.2H101.2V33.3Z" fill="white"/>
<path d="M131.9 33.3H122.4L122.1 30.9C120 32.9 117.1 33.8 113.3 33.7C108 33.5 105.3 31.2 105 27C105 22.7 108.7 20.2 116 19.2C119.7 18.9 121.5 18.1 121.5 17C121.5 15.7 120.5 15.1 118.4 15.1C116.4 15.1 115.4 15.8 115.3 17.3H106.5C106.4 12.1 110.6 9.49999 119.1 9.49999C127.6 9.19999 131.5 12.4 130.7 19.2V29.9C130.6 31.3 131 32.3 131.9 32.8V33.3ZM117.5 28.8C120.4 28.8 121.8 26.9 121.6 23.1C120.9 23.4 119.8 23.7 118.3 24C115.7 24.3 114.4 25.3 114.5 26.8C114.6 28 115.6 28.7 117.5 28.8Z" fill="white"/>
<path d="M145.2 33.3H136.1V1.59998H145.2V33.3Z" fill="white"/>
<path d="M179.2 33.3H165.6V1.59998H179.6C190.5 1.69998 196 6.79996 196.2 16.8C196.1 27.8 190.4 33.3 179.2 33.3ZM175.9 8.99997V25.9H178.1C183 25.9 185.5 23 185.5 17.3C185.8 11.3 183.3 8.59997 177.9 8.99997H175.9Z" fill="white"/>
<path d="M210.7 33.3H200.2V1.59998H210.7V33.3Z" fill="white"/>
<path d="M230.6 33.3H217V1.59998H231C241.9 1.69998 247.4 6.79996 247.6 16.8C247.5 27.8 241.8 33.3 230.6 33.3ZM227.3 8.99997V25.9H229.5C234.4 25.9 236.9 23 236.9 17.3C237.2 11.3 234.7 8.59997 229.3 8.99997H227.3Z" fill="white"/>
<path d="M276.6 33.3H266.3V1.59998H291V8.99997H276.7V14.7H288V22.1H276.6V33.3Z" fill="white"/>
<path d="M294.5 33.3V10.2H302.9V14.9C304.3 11.3 306.6 9.59998 310 9.59998C310.2 9.59998 310.5 9.69996 310.7 9.79996C310.9 9.79996 311.1 9.79996 311.2 9.79996V18.9C311.1 18.9 310.8 18.8 310.3 18.7C309.8 18.6 309.5 18.5 309.3 18.5C305.5 18.4 303.7 20.7 303.8 25.4V33.3H294.5Z" fill="white"/>
<path d="M339.9 23.8H322.3C322.5 26.6 324.1 28.1 327 28.3C328.5 28.3 329.6 27.7 330.4 26.4H339C337.6 31.1 333.4 33.5 326.2 33.6C317.8 33.4 313.4 29.5 313.1 21.9C313.6 14.1 317.9 9.9 326.2 9.5C335.1 9.9 339.7 14.7 339.9 23.8ZM322.3 19.1H330.7C330.5 16.7 329.1 15.4 326.6 15.1C323.9 15.2 322.4 16.5 322.3 19.1Z" fill="white"/>
<path d="M369.2 23.8H351.6C351.8 26.6 353.4 28.1 356.3 28.3C357.8 28.3 358.9 27.7 359.7 26.4H368.3C366.9 31.1 362.7 33.5 355.5 33.6C347.1 33.4 342.7 29.5 342.4 21.9C342.9 14.1 347.2 9.9 355.5 9.5C364.4 9.9 369 14.7 369.2 23.8ZM351.6 19.1H360C359.8 16.7 358.4 15.4 355.9 15.1C353.2 15.2 351.7 16.5 351.6 19.1Z" fill="white"/>
<path d="M372.5 33.2999V10.2H380.8V13.6C382.9 11 385.3 9.59995 388.2 9.49995C391.9 9.49995 394.4 10.8999 395.8 13.7999C397.6 10.8999 400.3 9.49995 403.7 9.49995C409.7 9.39995 412.6 12.8 412.5 19.7V33.2999H403.4V21.6C403.5 18.2 402.5 16.4999 400.3 16.7999C398.2 16.7999 397.2 18.4999 397.2 21.9999V33.3999H387.9V21.7C388.1 18.3 387.1 16.5999 384.8 16.8999C382.7 16.8999 381.7 18.6 381.7 22.1V33.4999H372.5V33.2999Z" fill="white"/>
<path d="M417.3 7.19998V0.599976H426.4V7.19998H417.3ZM426.4 33.3H417.3V10.2H426.4V33.3Z" fill="white"/>
<path d="M431.3 33.3V10.2H439.7V13.8C441.8 10.8 444.4 9.39999 447.5 9.49999C453.5 9.49999 456.5 12.8 456.5 19.5V33.3H447.4V21C447.4 18.1 446.3 16.7 444.1 16.7C441.7 16.6 440.5 18.2 440.7 21.5V33.2H431.3V33.3Z" fill="white"/>
<path d="M475.9 26.7V33.3C469.6 33.5 465.8 33.2 464.7 32.4C463.1 31.7 462.3 29.3 462.5 25.2V15.5H459.2V10.2H462.5V3H471.6V10.2H475.9V15.5H471.6V23.8C471.4 26 472.3 27 474.4 26.7H475.9Z" fill="white"/>
</svg>
