<svg width="376" height="171" viewBox="0 0 376 171" fill="none" xmlns="http://www.w3.org/2000/svg">
<path d="M11.9 144.6V163.8H6.39999V152.8H2V148.9C5.3 148.9 7.2 147.5 7.8 144.6H11.9Z" fill="#FFFDFD"/>
<path d="M33.8 149.6L28.7 149.9C28.3 148.9 27.6 148.3 26.4 148.3C24.4 148.4 23.5 149.8 23.6 152.7C24.9 151.7 26.3 151.3 28 151.3C31.9 151.5 34 153.5 34.4 157.4C34.3 161.6 31.7 163.7 26.9 163.9C21 163.9 18 160.7 18 154.3C18.2 148 21 144.8 26.3 144.6C30.6 144.6 33.2 146.3 33.8 149.6ZM26.4 155.1C24.7 155.1 23.9 156 23.8 157.7C23.9 159.2 24.8 160.1 26.3 160.2C27.9 160.1 28.7 159.3 28.8 157.6C28.7 156 27.9 155.1 26.4 155.1Z" fill="#FFFDFD"/>
<path d="M42.3 155.3H36.5V149.8H42.3V155.3ZM42.3 163.8H36.5V158.3H42.3V163.8Z" fill="#FFFDFD"/>
<path d="M44.6 154.1C44.7 148 47.5 144.8 52.9 144.6C58.2 144.8 60.9 148 61.1 154.1C61 160.6 58.2 163.9 52.9 163.9C47.4 163.9 44.7 160.6 44.6 154.1ZM52.9 160C54.6 160 55.4 158.2 55.4 154.5C55.5 150.7 54.7 148.8 52.8 148.8C51.1 148.8 50.2 150.7 50.2 154.5C50.1 158.2 51 160.1 52.9 160Z" fill="#FFFDFD"/>
<path d="M62.4 154.1C62.5 148 65.3 144.8 70.7 144.6C76 144.8 78.7 148 78.9 154.1C78.8 160.6 76 163.9 70.7 163.9C65.2 163.9 62.5 160.6 62.4 154.1ZM70.7 160C72.4 160 73.2 158.2 73.2 154.5C73.3 150.7 72.5 148.8 70.6 148.8C68.9 148.8 68 150.7 68 154.5C67.9 158.2 68.8 160.1 70.7 160Z" fill="#FFFDFD"/>
<path d="M89.1 154.1C89.2 148 92 144.8 97.4 144.6C102.7 144.8 105.4 148 105.6 154.1C105.5 160.6 102.7 163.9 97.4 163.9C91.9 163.9 89.2 160.6 89.1 154.1ZM97.4 160C99.1 160 99.9 158.2 99.9 154.5C100 150.7 99.2 148.8 97.3 148.8C95.6 148.8 94.7 150.7 94.7 154.5C94.6 158.2 95.5 160.1 97.4 160Z" fill="#FFFDFD"/>
<path d="M106.8 159.8V155.4L115.7 144.9H120.8V155.7H123.2V159.8H120.8V163.8H115.6V159.8H106.8ZM115.6 149.9L111.1 155.7H115.6V149.9Z" fill="#FFFDFD"/>
<path d="M131.3 163.8H125.5V158.3H131.3V163.8Z" fill="#FFFDFD"/>
<path d="M150.2 163.8H134.3C134.2 162 134.9 160.2 136.6 158.5C137.4 157.7 138.8 156.6 140.7 155.4C143.5 153.7 144.8 152.1 144.7 150.8C144.6 149.7 143.8 149.1 142.5 148.9C140.6 149 139.7 150.2 139.8 152.5H134.8C134.8 147.3 137.5 144.8 142.8 144.8C147.8 144.9 150.3 147 150.4 150.9C150.4 152.9 148.9 154.9 146 156.8C145.7 157 145.5 157.2 145.4 157.2C144.9 157.6 144.1 158 143.1 158.6C142.3 159 141.8 159.2 141.5 159.4H150.3V163.8H150.2Z" fill="#FFFDFD"/>
<path d="M152.1 155.6L154 144.9H166V149.4H157.8L157.2 152.2C158.2 151.5 159.5 151.2 161.2 151.2C165.2 151.4 167.4 153.4 167.6 157.3C167.5 161.6 164.7 163.9 159.1 164C155 164 152.4 162.3 151.2 158.9L156.7 158.4C156.8 158.4 156.8 158.4 156.8 158.5C157.1 159.5 158 160 159.2 160.1C160.9 160 161.8 159.2 161.9 157.6C161.8 155.8 161 154.9 159.5 154.9C158.3 154.9 157.5 155.3 157.2 155.9L152.1 155.6Z" fill="#FFFDFD"/>
<path d="M175.8 163.8H170V158.3H175.8V163.8Z" fill="#FFFDFD"/>
<path d="M194.7 163.8H178.8C178.7 162 179.4 160.2 181.1 158.5C181.9 157.7 183.3 156.6 185.2 155.4C188 153.7 189.3 152.1 189.2 150.8C189.1 149.7 188.3 149.1 187 148.9C185.1 149 184.2 150.2 184.3 152.5H179.3C179.3 147.3 182 144.8 187.3 144.8C192.3 144.9 194.8 147 194.9 150.9C194.9 152.9 193.4 154.9 190.5 156.8C190.2 157 190 157.2 189.9 157.2C189.4 157.6 188.6 158 187.6 158.6C186.8 159 186.3 159.2 186 159.4H194.8V163.8H194.7Z" fill="#FFFDFD"/>
<path d="M195.9 154.1C196 148 198.8 144.8 204.2 144.6C209.5 144.8 212.2 148 212.4 154.1C212.3 160.6 209.5 163.9 204.2 163.9C198.7 163.9 195.9 160.6 195.9 154.1ZM204.1 160C205.8 160 206.6 158.2 206.6 154.5C206.7 150.7 205.9 148.8 204 148.8C202.3 148.8 201.4 150.7 201.4 154.5C201.3 158.2 202.2 160.1 204.1 160Z" fill="#FFFDFD"/>
<path d="M230.3 163.8H214.4C214.3 162 215 160.2 216.7 158.5C217.5 157.7 218.9 156.6 220.8 155.4C223.6 153.7 224.9 152.1 224.8 150.8C224.7 149.7 223.9 149.1 222.6 148.9C220.7 149 219.8 150.2 219.9 152.5H214.9C214.9 147.3 217.6 144.8 222.9 144.8C227.9 144.9 230.4 147 230.5 150.9C230.5 152.9 229 154.9 226.1 156.8C225.8 157 225.6 157.2 225.5 157.2C225 157.6 224.2 158 223.2 158.6C222.4 159 221.9 159.2 221.6 159.4H230.4V163.8H230.3Z" fill="#FFFDFD"/>
<path d="M231.7 157.2H236.9C236.9 158 237.1 158.7 237.6 159.3C238.1 159.7 238.8 160 239.6 160C241.1 159.9 242 159.2 242.1 157.8C242.2 156.3 241 155.6 238.5 155.7V152.4C240.7 152.5 241.8 151.9 241.8 150.5C241.8 149.4 241.1 148.8 239.6 148.8C238.1 148.8 237.3 149.5 237.2 150.8H232.2C232.5 146.9 235 144.8 239.8 144.6C244.4 144.7 246.8 146.5 247 149.8C247 151.6 246.3 152.9 244.8 153.6C246.5 154.3 247.5 155.6 247.5 157.6C247.4 161.8 244.6 163.9 239.1 164C234.3 163.8 231.7 161.6 231.7 157.2Z" fill="#FFFDFD"/>
<path d="M257.4 168.4H252.7C250.7 164.8 249.8 160.8 249.8 156.4C249.8 153.3 250.7 149.6 252.4 145.3C252.5 145 252.6 144.7 252.7 144.6H257.5C255.8 149.1 254.9 153 254.9 156.5C254.9 160.3 255.7 164.3 257.4 168.4Z" fill="#FFFDFD"/>
<path d="M260.8 155.4V144.5H267.1V156C267 158.4 268 159.6 270.1 159.6C272.1 159.6 273.1 158.4 273 156V144.5H279.3V155.4C279.4 161.3 276.4 164.2 270.1 164.1C263.7 164.2 260.6 161.3 260.8 155.4Z" fill="#FFFDFD"/>
<path d="M282 149.5V144.5H299.7V149.5H294V163.7H287.6V149.5H282Z" fill="#FFFDFD"/>
<path d="M320.3 151.8H314.3C314 149.8 312.9 148.7 310.8 148.7C308.5 148.8 307.3 150.7 307.2 154.4C307.2 157.9 308.5 159.6 311 159.6C312.9 159.6 314 158.5 314.2 156.4H320.3C319.6 161.4 316.5 163.9 311.1 164.1C304.5 163.9 301.2 160.6 300.9 154.2C301.2 147.9 304.5 144.5 310.5 144C316.5 144.1 319.7 146.7 320.3 151.8Z" fill="#FFFDFD"/>
<path d="M328.6 155.4V150.3H331.6V155.4H336.8V158.4H331.6V163.7H328.6V158.4H323.4V155.4H328.6Z" fill="#FFFDFD"/>
<path d="M342.7 153.9C341 153.1 340.1 151.7 340.2 149.9C340.4 146.6 343 144.8 347.9 144.6C352.5 144.8 354.9 146.6 355.2 149.8C355.2 151.8 354.4 153 352.7 153.7C354.8 154.6 355.8 156.1 355.8 158.1C355.6 161.9 352.9 163.8 347.7 164C342.3 163.9 339.6 161.9 339.4 158.1C339.5 156.2 340.6 154.8 342.7 153.9ZM348.5 160.1C349.8 160 350.4 159.2 350.4 157.9C350.3 156.4 349.5 155.6 347.9 155.5C346.2 155.5 345.3 156.3 345.3 157.9C345.4 159.6 346.4 160.4 348.5 160.1ZM347.7 152.5C349.2 152.4 350 151.8 350.1 150.5C350 149.2 349.3 148.5 347.8 148.4C346.2 148.5 345.4 149.2 345.3 150.5C345.4 151.7 346.2 152.4 347.7 152.5Z" fill="#FFFDFD"/>
<path d="M358.2 144.5H362.9C364.9 148.3 365.8 152.4 365.8 156.6C365.8 159.5 365 163.1 363.3 167.3C363.1 167.8 362.9 168.1 362.9 168.3H358.1C359.8 164 360.6 160 360.6 156.5C360.6 152.8 359.8 148.8 358.2 144.5Z" fill="#FFFDFD"/>
<path d="M27.7 105.7H20.1C20 104.9 19.6 104.4 18.9 104.1C18.5 103.7 17.8 103.6 16.9 103.6C15.1 103.6 14.2 104.1 14.2 105.1C14.2 106 15.8 106.8 19 107.6C25.2 109.1 28.3 111.7 28.3 115.3C28.1 120.7 24.3 123.4 16.9 123.5C10.4 123.2 6.8 120.6 6 115.5H13.7C14 116.4 14.4 117 15 117.5C15.6 117.9 16.4 118 17.3 118C19.6 118 20.7 117.4 20.7 116.3C20.7 115.3 19.2 114.5 16.1 113.8C9.80001 112.3 6.7 109.6 6.7 105.8C6.9 100.8 10.4 98.2 17.2 98C23.4 98.1 26.9 100.6 27.7 105.7Z" fill="#DC5F62"/>
<path d="M30.6 114.3C30.9 108.2 34.2 105 40.7 104.8C47.1 105.1 50.6 108.2 50.9 114.1C50.7 120.1 47.3 123.2 40.7 123.4C34.2 123.1 30.8 120.1 30.6 114.3ZM40.8 109.5C38.8 109.6 37.7 111.1 37.6 114C37.7 117.1 38.7 118.7 40.6 118.8C42.6 118.8 43.6 117.2 43.6 114C43.7 111 42.7 109.5 40.8 109.5Z" fill="#DC5F62"/>
<path d="M72.9 112H65.7C65.7 111.2 65.5 110.6 65 110.1C64.6 109.7 63.9 109.4 63.1 109.4C61.1 109.4 60 111 59.9 114.2C59.9 117.1 61 118.6 63.1 118.7C64.7 118.7 65.6 117.8 65.8 116H73C72.5 120.7 69.2 123.1 63.2 123.2C56.6 123 53.2 120 53 114.2C53.3 108.1 56.7 104.9 63.2 104.7C69.1 104.9 72.3 107.4 72.9 112Z" fill="#DC5F62"/>
<path d="M76.6 103V98H83.6V103H76.6ZM83.7 123H76.7V105.2H83.7V123Z" fill="#DC5F62"/>
<path d="M107.3 123H100L99.7 121.1C98.1 122.6 95.9 123.3 92.9 123.2C88.8 123 86.7 121.3 86.5 118C86.5 114.7 89.3 112.7 95 112C97.8 111.7 99.2 111.2 99.2 110.3C99.2 109.3 98.4 108.8 96.8 108.8C95.3 108.8 94.5 109.4 94.4 110.5H87.6C87.5 106.5 90.7 104.5 97.3 104.5C103.8 104.2 106.8 106.7 106.2 111.9V120.1C106.1 121.2 106.4 121.9 107.1 122.4V123H107.3ZM96.1 119.6C98.3 119.6 99.4 118.1 99.3 115.2C98.8 115.5 97.9 115.7 96.8 115.9C94.8 116.2 93.8 116.9 93.9 118C94 119 94.7 119.5 96.1 119.6Z" fill="#DC5F62"/>
<path d="M117.5 123H110.5V98.6H117.5V123Z" fill="#DC5F62"/>
<path d="M143.6 123H133.1V98.6H143.8C152.2 98.7 156.4 102.6 156.5 110.3C156.6 118.8 152.2 123 143.6 123ZM141.1 104.3V117.3H142.8C146.6 117.3 148.5 115.1 148.5 110.7C148.8 106.1 146.8 104 142.7 104.3H141.1Z" fill="#DC5F62"/>
<path d="M167.8 123H159.7V98.6H167.8V123Z" fill="#DC5F62"/>
<path d="M183.1 123H172.6V98.6H183.3C191.7 98.7 195.9 102.6 196 110.3C196.1 118.8 191.7 123 183.1 123ZM180.6 104.3V117.3H182.3C186.1 117.3 188 115.1 188 110.7C188.3 106.1 186.3 104 182.2 104.3H180.6Z" fill="#DC5F62"/>
<path d="M218.5 123H210.5V98.6H229.5V104.3H218.5V108.7H227.2V114.4H218.5V123Z" fill="#DC5F62"/>
<path d="M232.3 123V105.2H238.8V108.8C239.9 106.1 241.7 104.7 244.2 104.7C244.4 104.7 244.6 104.7 244.7 104.8C244.9 104.8 245 104.8 245.1 104.8V111.8C245 111.8 244.8 111.8 244.4 111.7C244 111.6 243.8 111.6 243.6 111.6C240.7 111.5 239.3 113.3 239.4 116.9V123H232.3Z" fill="#DC5F62"/>
<path d="M267.1 115.7H253.6C253.8 117.8 255 119 257.2 119.1C258.3 119.1 259.2 118.6 259.9 117.6H266.5C265.4 121.2 262.2 123.1 256.7 123.2C250.2 123 246.9 120 246.6 114.2C247 108.2 250.3 105 256.7 104.7C263.5 105.1 266.9 108.8 267.1 115.7ZM253.6 112.2H260.1C259.9 110.3 258.9 109.3 256.9 109.2C254.8 109.1 253.7 110.1 253.6 112.2Z" fill="#DC5F62"/>
<path d="M289.7 115.7H276.2C276.4 117.8 277.6 119 279.8 119.1C280.9 119.1 281.8 118.6 282.5 117.6H289.1C288 121.2 284.8 123.1 279.3 123.2C272.8 123 269.5 120 269.2 114.2C269.6 108.2 272.9 105 279.3 104.7C286 105.1 289.5 108.8 289.7 115.7ZM276.1 112.2H282.6C282.4 110.3 281.4 109.3 279.4 109.2C277.3 109.1 276.2 110.1 276.1 112.2Z" fill="#DC5F62"/>
<path d="M292.2 123V105.2H298.6V107.9C300.2 105.9 302.1 104.8 304.3 104.7C307.1 104.7 309.1 105.8 310.1 108C311.5 105.8 313.5 104.7 316.2 104.7C320.8 104.6 323 107.2 323 112.5V123H316V114C316.1 111.3 315.3 110.1 313.6 110.3C312 110.3 311.2 111.6 311.2 114.3V123H304V114C304.2 111.3 303.4 110.1 301.6 110.3C300 110.3 299.2 111.6 299.2 114.3V123H292.2Z" fill="#DC5F62"/>
<path d="M326.6 103V98H333.6V103H326.6ZM333.7 123H326.7V105.2H333.7V123Z" fill="#DC5F62"/>
<path d="M337.4 123V105.2H343.9V108C345.5 105.7 347.5 104.6 349.9 104.7C354.5 104.7 356.8 107.3 356.8 112.4V123H349.8V113.6C349.8 111.4 349 110.3 347.3 110.3C345.4 110.2 344.6 111.4 344.6 114V123H337.4Z" fill="#DC5F62"/>
<path d="M371.7 118V123C366.8 123.2 364 123 363.1 122.3C361.9 121.8 361.3 119.9 361.4 116.7V109.3H358.9V105.2H361.4V99.6H368.4V105.2H371.7V109.3H368.4V115.7C368.2 117.4 368.9 118.1 370.5 118H371.7Z" fill="#DC5F62"/>
<path d="M41 13.5H27.7C27.5 12.1 26.8 11.2 25.6 10.7C24.8 10.1 23.7 9.79999 22.1 9.79999C19 9.79999 17.4 10.7 17.4 12.4C17.4 14 20.2 15.4 25.8 16.8C36.6 19.4 42.1 23.9 42.1 30.3C41.8 39.8 35.1 44.6 22.1 44.7C10.8 44.2 4.4 39.6 3 30.7H16.5C17 32.3 17.7 33.4 18.8 34.2C19.9 34.8 21.2 35.1 22.8 35.1C26.8 35.1 28.8 34.1 28.8 32.1C28.8 30.4 26.1 28.9 20.7 27.7C9.7 25.1 4.2 20.4 4.2 13.7C4.5 4.89998 10.6 0.3 22.6 0C33.4 0.2 39.6 4.7 41 13.5Z" fill="#DC5F62"/>
<path d="M61.2 1.19995L76.5 24.5L76 14.7V1.19995H89.5V44H76.2L60.9 20.7L61.6 30.5V44H48.1V1.19995H61.2Z" fill="#DC5F62"/>
<path d="M107.9 44H94.2L109.5 1.19995H123.7L139 44H125L123.4 38.4H109.4L107.9 44ZM121.2 29.3L116.5 14L112.1 29.3H121.2Z" fill="#DC5F62"/>
<path d="M157.2 44H143.2V1.19995H163.7C175.6 1.39995 181.8 6.19998 182.1 15.6C181.9 25.5 176 30.6 164.2 30.7H157.2V44ZM157.2 20.7H163C166.7 20.7 168.6 19 168.6 15.6C168.6 12.7 166.1 11.2 161.2 11.2H157.2V20.7Z" fill="#DC5F62"/>
<path d="M222.3 13.5H209C208.8 12.1 208.1 11.2 206.9 10.7C206.1 10.1 205 9.79999 203.4 9.79999C200.3 9.79999 198.7 10.7 198.7 12.4C198.7 14 201.5 15.4 207.1 16.8C217.9 19.4 223.4 23.9 223.4 30.3C223.1 39.8 216.4 44.6 203.4 44.7C192.1 44.2 185.7 39.6 184.3 30.7H197.8C198.3 32.3 199 33.4 200.1 34.2C201.2 34.8 202.5 35.1 204.1 35.1C208.1 35.1 210.1 34.1 210.1 32.1C210.1 30.4 207.4 28.9 202 27.7C191 25.1 185.5 20.4 185.5 13.7C185.8 4.89998 191.9 0.3 203.9 0C214.8 0.2 220.9 4.7 222.3 13.5Z" fill="#DC5F62"/>
<path d="M243.5 44H229.5V1.19995H243.5V15.6H256.7V1.19995H270.9V44H256.7V27.5H243.4V44H243.5Z" fill="#DC5F62"/>
<path d="M299.5 0C313.6 0.6 321.1 8.09999 322.1 22.3C321.5 36.6 314 44 299.5 44.6C285.1 44.1 277.6 36.6 277.2 22C278 8.2 285.4 0.8 299.5 0ZM299.5 10.5C294.2 10.7 291.4 14.6 291.1 22.4C291.4 30.5 294.2 34.6 299.5 34.7C305.1 34.5 307.9 30.4 308.1 22.4C307.8 14.5 305 10.5 299.5 10.5Z" fill="#DC5F62"/>
<path d="M326.3 12.4V1.19995H365.6V12.4H353V44H338.8V12.4H326.3Z" fill="#DC5F62"/>
<path d="M12 65.6V84.8H6.39999V73.8H2V69.9C5.3 69.9 7.2 68.5 7.8 65.6H12Z" fill="white"/>
<path d="M33.9 70.7L28.8 71C28.4 69.9 27.7 69.4 26.5 69.4C24.5 69.5 23.6 70.9 23.7 73.8C25 72.8 26.4 72.4 28.1 72.4C32 72.6 34.2 74.6 34.5 78.5C34.4 82.7 31.8 84.9 26.9 85C20.9 85 18 81.8 18 75.3C18.2 69 21 65.7 26.3 65.5C30.7 65.6 33.3 67.3 33.9 70.7ZM26.5 76.1C24.8 76.1 23.9 77 23.9 78.7C24 80.2 24.9 81.1 26.4 81.2C28 81.1 28.9 80.3 28.9 78.6C28.8 77 28 76.2 26.5 76.1Z" fill="white"/>
<path d="M42.4 76.3H36.6V70.7H42.4V76.3ZM42.4 84.8H36.6V79.2H42.4V84.8Z" fill="white"/>
<path d="M44.7 75.2C44.8 69 47.6 65.9 53 65.6C58.3 65.8 61.1 69 61.2 75.2C61.1 81.7 58.3 85 53 85.1C47.6 85 44.8 81.7 44.7 75.2ZM53 81.1C54.7 81.1 55.5 79.2 55.5 75.5C55.6 71.7 54.8 69.8 52.9 69.8C51.1 69.8 50.3 71.7 50.3 75.5C50.2 79.3 51.2 81.1 53 81.1Z" fill="white"/>
<path d="M62.6 75.2C62.7 69 65.5 65.9 70.9 65.6C76.2 65.8 79 69 79.1 75.2C79 81.7 76.2 85 70.9 85.1C65.4 85 62.7 81.7 62.6 75.2ZM70.9 81.1C72.6 81.1 73.4 79.2 73.4 75.5C73.5 71.7 72.7 69.8 70.8 69.8C69 69.8 68.2 71.7 68.2 75.5C68.1 79.3 69 81.1 70.9 81.1Z" fill="white"/>
<path d="M89.4 75.2C89.5 69 92.3 65.9 97.7 65.6C103 65.8 105.8 69 105.9 75.2C105.8 81.7 103 85 97.7 85.1C92.2 85 89.4 81.7 89.4 75.2ZM97.7 81.1C99.4 81.1 100.2 79.2 100.2 75.5C100.3 71.7 99.5 69.8 97.6 69.8C95.8 69.8 95 71.7 95 75.5C94.9 79.3 95.8 81.1 97.7 81.1Z" fill="white"/>
<path d="M107.1 80.8V76.4L116 65.9H121.1V76.7H123.5V80.8H121.2V84.8H115.9V80.8H107.1ZM116 71L111.5 76.8H116V71Z" fill="white"/>
<path d="M131.7 84.8H125.9V79.2H131.7V84.8Z" fill="white"/>
<path d="M145.9 65.6V84.8H140.3V73.8H135.9V69.9C139.2 69.9 141.1 68.5 141.7 65.6H145.9Z" fill="white"/>
<path d="M155 75C153.2 74.2 152.4 72.8 152.5 71C152.7 67.6 155.3 65.9 160.3 65.6C164.9 65.8 167.4 67.6 167.7 70.9C167.7 72.9 166.9 74.2 165.2 74.8C167.3 75.7 168.4 77.2 168.4 79.2C168.2 83 165.5 84.9 160.3 85.1C154.9 85 152.1 83 152 79.2C151.8 77.2 152.8 75.8 155 75ZM160.8 81.2C162.1 81.1 162.7 80.3 162.7 79C162.6 77.5 161.8 76.7 160.2 76.6C158.4 76.6 157.6 77.4 157.6 79C157.7 80.7 158.8 81.4 160.8 81.2ZM160.1 73.5C161.6 73.4 162.4 72.8 162.5 71.5C162.4 70.2 161.7 69.5 160.2 69.4C158.6 69.5 157.7 70.2 157.7 71.5C157.7 72.8 158.5 73.4 160.1 73.5Z" fill="white"/>
<path d="M176.3 84.8H170.5V79.2H176.3V84.8Z" fill="white"/>
<path d="M195.3 84.8H179.3C179.2 83 179.9 81.2 181.6 79.4C182.4 78.6 183.8 77.5 185.7 76.2C188.5 74.5 189.8 72.9 189.7 71.6C189.6 70.5 188.8 69.9 187.5 69.7C185.6 69.8 184.7 71 184.8 73.3H179.8C179.8 68.1 182.5 65.5 187.8 65.5C192.8 65.6 195.3 67.7 195.5 71.6C195.5 73.6 194 75.6 191.1 77.5C190.8 77.7 190.6 77.9 190.5 77.9C190 78.3 189.2 78.7 188.2 79.3C187.4 79.7 186.9 79.9 186.6 80.1H195.4V84.8H195.3Z" fill="white"/>
<path d="M196.5 75.2C196.6 69 199.4 65.9 204.8 65.6C210.1 65.8 212.9 69 213 75.2C212.9 81.7 210.1 85 204.8 85.1C199.3 85 196.6 81.7 196.5 75.2ZM204.8 81.1C206.5 81.1 207.3 79.2 207.3 75.5C207.4 71.7 206.6 69.8 204.7 69.8C202.9 69.8 202.1 71.7 202.1 75.5C202 79.3 202.9 81.1 204.8 81.1Z" fill="white"/>
<path d="M231 84.8H215C214.9 83 215.6 81.2 217.3 79.4C218.1 78.6 219.5 77.5 221.4 76.2C224.2 74.5 225.5 72.9 225.4 71.6C225.3 70.5 224.5 69.9 223.2 69.7C221.3 69.8 220.4 71 220.5 73.3H215.5C215.5 68.1 218.2 65.5 223.5 65.5C228.5 65.6 231 67.7 231.2 71.6C231.2 73.6 229.7 75.6 226.8 77.5C226.5 77.7 226.3 77.9 226.2 77.9C225.7 78.3 224.9 78.7 223.9 79.3C223.1 79.7 222.6 79.9 222.3 80.1H231.1V84.8H231Z" fill="white"/>
<path d="M232.4 78.2H237.7C237.7 79 237.9 79.7 238.4 80.3C238.9 80.7 239.6 81 240.4 81C241.9 80.9 242.8 80.2 242.9 78.8C243 77.3 241.8 76.6 239.3 76.7V73.3C241.5 73.4 242.7 72.8 242.7 71.4C242.7 70.3 242 69.7 240.5 69.7C239 69.7 238.2 70.4 238.1 71.7H233.1C233.4 67.8 235.9 65.7 240.8 65.5C245.4 65.6 247.8 67.4 248 70.8C248 72.6 247.3 73.9 245.8 74.6C247.5 75.3 248.5 76.6 248.5 78.6C248.4 82.8 245.6 84.9 240.1 85C235 84.9 232.5 82.6 232.4 78.2Z" fill="white"/>
<path d="M258.2 89.5H253.5C251.5 85.9 250.6 81.8 250.6 77.4C250.6 74.3 251.5 70.6 253.2 66.3C253.3 66 253.4 65.7 253.5 65.6H258.3C256.5 70.1 255.7 74.1 255.7 77.6C255.7 81.4 256.6 85.4 258.2 89.5Z" fill="white"/>
<path d="M261.6 76.4V65.5H267.9V77.1C267.8 79.6 268.8 80.7 270.9 80.7C272.9 80.7 273.9 79.5 273.8 77.1V65.5H280.1V76.4C280.2 82.4 277.2 85.3 270.9 85.1C264.6 85.3 261.5 82.4 261.6 76.4Z" fill="white"/>
<path d="M282.9 70.6V65.6H300.6V70.6H294.9V84.9H288.5V70.6H282.9Z" fill="white"/>
<path d="M321.4 72.9H315.4C315.1 70.9 314 69.8 311.9 69.7C309.6 69.8 308.4 71.7 308.3 75.4C308.3 78.9 309.6 80.7 312.1 80.7C314 80.7 315.1 79.6 315.4 77.4H321.5C320.8 82.4 317.7 85 312.3 85.2C305.7 85 302.3 81.7 302.1 75.2C302.4 68.8 305.7 65.4 311.8 65C317.5 65.1 320.7 67.7 321.4 72.9Z" fill="white"/>
<path d="M329.7 76.4001V71.3H332.7V76.4001H338V79.4001H332.7V84.8H329.7V79.4001H324.4V76.4001H329.7Z" fill="white"/>
<path d="M343.8 75C342 74.2 341.2 72.8 341.3 71C341.5 67.6 344.1 65.9 349.1 65.6C353.7 65.8 356.2 67.6 356.5 70.9C356.5 72.9 355.7 74.2 354 74.8C356.1 75.7 357.2 77.2 357.2 79.2C357 83 354.3 84.9 349.1 85.1C343.7 85 340.9 83 340.8 79.2C340.6 77.2 341.7 75.8 343.8 75ZM349.6 81.2C350.9 81.1 351.5 80.3 351.5 79C351.4 77.5 350.6 76.7 349 76.6C347.2 76.6 346.4 77.4 346.4 79C346.5 80.7 347.6 81.4 349.6 81.2ZM348.9 73.5C350.4 73.4 351.2 72.8 351.3 71.5C351.2 70.2 350.5 69.5 349 69.4C347.4 69.5 346.5 70.2 346.5 71.5C346.5 72.8 347.3 73.4 348.9 73.5Z" fill="white"/>
<path d="M359.4 65.5H364.1C366.1 69.4 367 73.4 367 77.7C367 80.6 366.2 84.2 364.5 88.4C364.3 88.9 364.1 89.2 364.1 89.4H359.3C361 85.1 361.8 81.1 361.8 77.5C361.8 73.8 361 69.8 359.4 65.5Z" fill="white"/>
</svg>
