<svg width="191" height="102" viewBox="0 0 191 102" fill="none" xmlns="http://www.w3.org/2000/svg">
<path d="M56.7 0.300049H2.29999C1.99999 0.300049 1.59999 0.400043 1.39999 0.700043C1.19999 0.900043 1 1.30004 1 1.60004V56C1 56.3 1.09999 56.7 1.39999 56.9C1.59999 57.1 1.99999 57.3 2.29999 57.3H56.7C57 57.3 57.4 57.2 57.6 56.9C57.8 56.7 58 56.3 58 56V1.60004C58 1.30004 57.9 0.900043 57.6 0.700043C57.3 0.500043 57 0.300049 56.7 0.300049ZM39 37C39 37.3 38.9 37.7 38.6 37.9C38.4 38.1 38 38.3 37.7 38.3H21.2C20.9 38.3 20.5 38.2 20.3 37.9C20.1 37.7 19.9 37.3 19.9 37V20.6C19.9 20.3 20 19.9 20.3 19.7C20.5 19.5 20.9 19.3 21.2 19.3H37.7C38 19.3 38.4 19.4 38.6 19.7C38.8 19.9 39 20.3 39 20.6V37Z" fill="white"/>
<path d="M170.6 19.3H154.2C153.5 19.3 152.9 19.9 152.9 20.6V37C152.9 37.7 153.5 38.3 154.2 38.3H170.6C171.3 38.3 171.9 37.7 171.9 37V20.6C171.9 19.9 171.3 19.3 170.6 19.3Z" fill="white"/>
<path d="M151.6 0.300049H135.1C134.4 0.300049 133.8 0.900044 133.8 1.60004V18.1C133.8 18.8 134.4 19.4 135.1 19.4H151.6C152.3 19.4 152.9 18.8 152.9 18.1V1.60004C152.9 0.900044 152.3 0.300049 151.6 0.300049Z" fill="white"/>
<path d="M189.6 0.300049H173.2C172.5 0.300049 171.9 0.900044 171.9 1.60004V18.1C171.9 18.8 172.5 19.4 173.2 19.4H189.6C190.3 19.4 190.9 18.8 190.9 18.1V1.60004C190.8 0.900044 190.3 0.300049 189.6 0.300049Z" fill="white"/>
<path d="M151.6 38.3H135.1C134.4 38.3 133.8 38.9 133.8 39.6V56C133.8 56.7 134.4 57.3 135.1 57.3H151.6C152.3 57.3 152.9 56.7 152.9 56V39.5C152.9 38.9 152.3 38.3 151.6 38.3Z" fill="white"/>
<path d="M189.6 38.3H173.2C172.5 38.3 171.9 38.9 171.9 39.6V56C171.9 56.7 172.5 57.3 173.2 57.3H189.6C190.3 57.3 190.9 56.7 190.9 56V39.5C190.8 38.9 190.3 38.3 189.6 38.3Z" fill="white"/>
<path d="M123.1 0.300049H106.6C105.9 0.300049 105.3 0.900044 105.3 1.60004V18.1C105.3 18.8 105.9 19.4 106.6 19.4H123.1C123.8 19.4 124.4 18.8 124.4 18.1V1.60004C124.4 0.900044 123.8 0.300049 123.1 0.300049Z" fill="white"/>
<path d="M123.1 38.3H106.6C105.9 38.3 105.3 38.9 105.3 39.6V56C105.3 56.7 105.9 57.3 106.6 57.3H123.1C123.8 57.3 124.4 56.7 124.4 56V39.5C124.4 38.9 123.8 38.3 123.1 38.3Z" fill="white"/>
<path d="M105.4 20.6C105.4 20.3 105.3 19.9 105 19.7C104.8 19.5 104.4 19.3 104.1 19.3H86.4V1.60004C86.4 1.30004 86.3 0.900043 86 0.700043C85.8 0.500043 85.4 0.300049 85.1 0.300049H68.6C68.3 0.300049 67.9 0.400043 67.7 0.700043C67.5 0.900043 67.3 1.30004 67.3 1.60004V56C67.3 56.3 67.4 56.7 67.7 56.9C67.9 57.1 68.3 57.3 68.6 57.3H85.1C85.4 57.3 85.8 57.2 86 56.9C86.2 56.7 86.4 56.3 86.4 56V38.3H104.1C104.4 38.3 104.8 38.2 105 37.9C105.2 37.7 105.4 37.3 105.4 37V20.6Z" fill="white"/>
<path d="M88.5 74.7001L84.3 92.1001L80 74.7001H73.6L80.7 101.3H86.7L91.1 84.3001L95.5 101.3H101.5L108.6 74.7001H102.3L98 92.1001L93.7 74.7001H88.5ZM116.3 101.7C118.9 101.7 120.8 100.9 122.1 99.6001C123.1 101.3 125.4 101.9 128.8 101.3V97.0001C127.7 97.1001 127.3 96.9001 127.3 95.9001V88.4001C127.3 83.8001 124.2 81.5001 119 81.5001C114 81.5001 111 84.3001 110.1 87.8001L115.8 88.7001C116.2 87.1001 117.1 86.4001 118.8 86.4001C120.7 86.4001 121.5 87.3001 121.5 88.8001V89.1001L117.1 89.8001C113 90.4001 109.6 92.0001 109.6 96.1001C109.6 99.3001 112.4 101.7 116.3 101.7ZM121.5 94.3001C121.5 96.3001 119.7 97.3001 117.7 97.3001C116.3 97.3001 115.4 96.6001 115.4 95.4001C115.4 94.0001 116.5 93.5001 118.1 93.3001L121.5 92.7001V94.3001ZM139.6 74.7001H133.7V101.3H139.6V74.7001ZM151.6 74.7001H145.7V101.3H151.6V74.7001ZM166.5 101.7C170.4 101.7 173.9 99.7001 175.4 96.0001L170.4 94.4001C169.8 96.1001 168.4 97.0001 166.5 97.0001C164.2 97.0001 162.6 95.5001 162.2 92.8001H175.4V91.2001C175.4 85.7001 172.2 81.3001 166.3 81.3001C160.7 81.3001 156.5 85.7001 156.5 91.4001C156.6 97.6001 160.6 101.7 166.5 101.7ZM166.3 86.0001C168.5 86.0001 169.6 87.5001 169.7 89.2001H162.5C163.1 87.1001 164.5 86.0001 166.3 86.0001ZM181.1 96.1001C181.1 100.1 183.2 101.5 187.4 101.5C188.8 101.5 189.9 101.4 191 101.2V96.3001C190.3 96.4001 190 96.4001 189.3 96.4001C187.8 96.4001 187 96.1001 187 94.5001V86.6001H190.8V81.7001H187V76.3001H181.1V81.7001H178.6V86.6001H181.1V96.1001Z" fill="white"/>
<path d="M1 89L61.2 89.2" stroke="white" stroke-width="10"/>
</svg>
