<svg width="587" height="213" viewBox="0 0 587 213" fill="none" xmlns="http://www.w3.org/2000/svg">
<path d="M52.5 96.6V119.9H45.8V106.6H40.5V101.9C44.5 101.9 46.8 100.2 47.5 96.7H52.5V96.6Z" fill="white"/>
<path d="M59.7 108.2C59.9 100.7 63.2 96.9 69.7 96.6C76.1 96.9 79.4 100.7 79.6 108.2C79.4 116.1 76.1 120.1 69.7 120.1C63.1 120.1 59.8 116.1 59.7 108.2ZM69.8 115.3C71.8 115.3 72.9 113.1 72.9 108.6C73.1 103.9 72 101.7 69.7 101.7C67.6 101.7 66.5 104 66.5 108.6C66.4 113.2 67.5 115.4 69.8 115.3Z" fill="white"/>
<path d="M81.3 108.2C81.5 100.7 84.8 96.9 91.3 96.6C97.7 96.9 101 100.7 101.2 108.2C101 116.1 97.7 120.1 91.3 120.1C84.8 120.1 81.4 116.1 81.3 108.2ZM91.4 115.3C93.4 115.3 94.5 113.1 94.5 108.6C94.7 103.9 93.6 101.7 91.3 101.7C89.2 101.7 88.1 104 88.1 108.6C88 113.2 89.1 115.4 91.4 115.3Z" fill="white"/>
<path d="M104.6 113.4V109.7H121V113.4H104.6Z" fill="white"/>
<path d="M124.2 115.1V109.8L135 97H141.2V110.1H144.1V115.1H141.2V119.9H134.8V115.1H124.2ZM134.8 103.1L129.3 110.1H134.8V103.1Z" fill="white"/>
<path d="M146.4 114.3L152.6 113.9C153 115.1 154 115.7 155.4 115.7C157.8 115.7 159 114 159 110.5C157.4 111.7 155.6 112.2 153.5 112.2C148.8 111.9 146.2 109.5 145.7 104.8C145.9 99.4999 149 96.8 155 96.7C162.1 96.7 165.7 100.7 165.7 108.6C165.4 116.1 162.1 120 155.7 120.2C150.3 120.2 147.2 118.2 146.4 114.3ZM155.4 107.7C157.5 107.5 158.6 106.4 158.6 104.4C158.4 102.6 157.4 101.6 155.5 101.5C153.6 101.6 152.7 102.6 152.6 104.7C152.7 106.6 153.6 107.6 155.4 107.7Z" fill="white"/>
<path d="M168 114.3L174.2 113.9C174.6 115.1 175.6 115.7 177 115.7C179.4 115.7 180.6 114 180.6 110.5C179 111.7 177.2 112.2 175.1 112.2C170.4 111.9 167.8 109.5 167.3 104.8C167.5 99.4999 170.6 96.8 176.6 96.7C183.7 96.7 187.3 100.7 187.3 108.6C187 116.1 183.7 120 177.3 120.2C171.9 120.2 168.8 118.2 168 114.3ZM177 107.7C179.1 107.5 180.2 106.4 180.2 104.4C180 102.6 179 101.6 177.1 101.5C175.2 101.6 174.3 102.6 174.2 104.7C174.3 106.6 175.3 107.6 177 107.7Z" fill="white"/>
<path d="M201.3 109.7V96.5H208.9V110.5C208.8 113.5 210 114.9 212.6 114.8C215.1 114.8 216.2 113.4 216.2 110.5V96.5H223.8V109.7C224 116.9 220.2 120.4 212.6 120.3C204.9 120.5 201.1 116.9 201.3 109.7Z" fill="white"/>
<path d="M247.8 103.3H240.6C240.5 102.5 240.1 102 239.5 101.8C239.1 101.5 238.4 101.3 237.6 101.3C235.9 101.3 235.1 101.8 235.1 102.7C235.1 103.5 236.6 104.4 239.7 105.1C245.6 106.5 248.6 109 248.6 112.5C248.4 117.7 244.8 120.3 237.7 120.4C231.5 120.1 228 117.6 227.3 112.8H234.7C235 113.6 235.4 114.3 236 114.7C236.6 115 237.3 115.2 238.2 115.2C240.4 115.2 241.5 114.6 241.5 113.5C241.5 112.6 240 111.8 237.1 111.1C231.1 109.7 228.1 107.1 228.1 103.5C228.3 98.7 231.6 96.2 238.1 96C243.7 96 247.1 98.4 247.8 103.3Z" fill="white"/>
<path d="M261.7 119.9H251.7V96.5H262C270.1 96.6 274.1 100.3 274.2 107.7C274.2 115.8 270 119.9 261.7 119.9ZM259.3 102V114.5H261C264.6 114.5 266.5 112.4 266.5 108.1C266.8 103.7 264.9 101.7 260.9 102H259.3Z" fill="white"/>
<path d="M10.6 195.8C13.7 195.8 15.2 197.1 15.2 199.7C15.2 202.3 13.7 203.6 10.6 203.6H7.29999V208.6H5.29999V195.8H10.6ZM7.19998 202H10.4C11.4 202 12.1 201.8 12.5 201.5C12.9 201.1 13.2 200.6 13.2 199.8C13.2 199 13 198.4 12.5 198.1C12.1 197.7 11.3 197.6 10.4 197.6H7.19998V202Z" fill="#F7F7F9"/>
<path d="M18.9 195.6V208.7H17V195.6H18.9Z" fill="#F7F7F9"/>
<path d="M28.7 200.7C29.4 201.6 29.8 202.9 29.8 204.6H22.7C22.8 205.5 23 206.2 23.4 206.7C23.8 207.2 24.4 207.4 25.2 207.4C25.9 207.4 26.4 207.2 26.8 206.9C27.1 206.6 27.4 206.2 27.6 205.7H29.5C29.3 206.6 28.9 207.3 28.2 207.9C27.4 208.6 26.4 209 25.1 209C23.7 209 22.6 208.6 21.8 207.7C20.9 206.8 20.5 205.6 20.5 204.1C20.5 202.7 20.9 201.6 21.7 200.6C22.5 199.6 23.6 199.2 25 199.2C26.8 199.1 27.9 199.6 28.7 200.7ZM23.6 201.3C23.2 201.7 22.9 202.3 22.8 203.1H27.8C27.6 201.5 26.8 200.7 25.3 200.7C24.6 200.7 24 200.9 23.6 201.3Z" fill="#F7F7F9"/>
<path d="M38.7 200.1C39.3 200.7 39.5 201.6 39.5 202.7V208.6H37.7V207.3C37.3 207.8 36.9 208.1 36.4 208.4C35.8 208.7 35.1 208.9 34.2 208.9C33.2 208.9 32.5 208.6 31.9 208.2C31.3 207.7 31 207.1 31 206.3C31 205.3 31.4 204.4 32.2 203.9C33 203.4 34 203.1 35.4 203.1L37.5 203V202.6C37.5 201.3 36.8 200.7 35.4 200.7C34.8 200.7 34.3 200.8 34 201C33.6 201.3 33.3 201.6 33.2 202.2L31.3 202C31.5 201 32 200.2 32.8 199.8C33.5 199.4 34.4 199.2 35.6 199.2C37 199.1 38 199.4 38.7 200.1ZM35.7 204.4C34 204.4 33.1 205 33.1 206.2C33.1 206.6 33.2 206.8 33.5 207.1C33.8 207.3 34.2 207.5 34.7 207.5C35.5 207.5 36.2 207.2 36.8 206.8C37.4 206.3 37.7 205.7 37.7 205V204.5L35.7 204.4Z" fill="#F7F7F9"/>
<path d="M49.1 202H47.2C47.1 201.5 46.8 201.2 46.5 201C46.2 200.8 45.7 200.7 45 200.7C44.4 200.7 44 200.8 43.7 201C43.4 201.2 43.2 201.5 43.2 201.8C43.2 202.1 43.5 202.4 44 202.6C44.3 202.7 44.9 202.9 45.9 203.2C47 203.5 47.8 203.8 48.3 204.1C49 204.6 49.4 205.2 49.4 206C49.4 208 48 209 45.3 209C42.7 209 41.4 207.9 41.2 205.7H43.1C43.2 206.3 43.4 206.8 43.8 207C44.1 207.2 44.6 207.4 45.3 207.4C46.8 207.4 47.5 207 47.5 206.1C47.5 205.6 47.2 205.3 46.7 205C46.4 204.9 45.8 204.7 44.8 204.5C43.7 204.2 42.9 204 42.5 203.7C41.8 203.3 41.4 202.6 41.4 201.8C41.4 201 41.7 200.3 42.4 199.8C43.1 199.3 44 199.1 45.1 199.1C47.6 199.1 48.9 200.1 49.1 202Z" fill="#F7F7F9"/>
<path d="M58.4 200.7C59.1 201.6 59.5 202.9 59.5 204.6H52.4C52.5 205.5 52.7 206.2 53.1 206.7C53.5 207.2 54.1 207.4 54.9 207.4C55.6 207.4 56.1 207.2 56.5 206.9C56.8 206.6 57.1 206.2 57.3 205.7H59.2C59 206.6 58.6 207.3 57.9 207.9C57.1 208.6 56.1 209 54.8 209C53.4 209 52.3 208.6 51.5 207.7C50.6 206.8 50.2 205.6 50.2 204.1C50.2 202.7 50.6 201.6 51.4 200.6C52.2 199.6 53.3 199.2 54.7 199.2C56.5 199.1 57.6 199.6 58.4 200.7ZM53.3 201.3C52.9 201.7 52.6 202.3 52.5 203.1H57.5C57.3 201.5 56.5 200.7 55 200.7C54.3 200.7 53.7 200.9 53.3 201.3Z" fill="#F7F7F9"/>
<path d="M72.7 199.3V201.2C72.2 201.1 71.8 201 71.4 201C70.8 201 70.3 201.2 69.9 201.7C69.4 202.2 69.2 202.9 69.2 203.7V208.6H67.3V199.3H69.2V200.7C69.4 200.2 69.7 199.8 70.1 199.6C70.5 199.2 71 199.1 71.6 199.1C71.9 199.1 72.4 199.2 72.7 199.3Z" fill="#F7F7F9"/>
<path d="M81.3 200.7C82 201.6 82.4 202.9 82.4 204.6H75.3C75.4 205.5 75.6 206.2 76 206.7C76.4 207.2 77 207.4 77.8 207.4C78.5 207.4 79 207.2 79.4 206.9C79.7 206.6 80 206.2 80.2 205.7H82.1C81.9 206.6 81.5 207.3 80.8 207.9C80 208.6 79 209 77.7 209C76.3 209 75.2 208.6 74.4 207.7C73.5 206.8 73.1 205.6 73.1 204.1C73.1 202.7 73.5 201.6 74.3 200.6C75.1 199.6 76.2 199.2 77.6 199.2C79.3 199.1 80.5 199.6 81.3 200.7ZM76.1 201.3C75.7 201.7 75.4 202.3 75.3 203.1H80.3C80.1 201.5 79.3 200.7 77.8 200.7C77.1 200.7 76.6 200.9 76.1 201.3Z" fill="#F7F7F9"/>
<path d="M90.7 200.6V199.4H92.6V208.1C92.6 211.1 91.1 212.5 88.3 212.5C87 212.5 86 212.2 85.3 211.8C84.6 211.3 84.2 210.5 84 209.5H85.9C86 210 86.2 210.4 86.6 210.7C86.9 210.9 87.5 211 88.3 211C89.9 211 90.7 210.1 90.7 208.4V207C90 208 89.1 208.5 87.9 208.5C86.6 208.5 85.6 208.1 84.8 207.2C84 206.4 83.6 205.2 83.6 203.8C83.6 202.4 84 201.3 84.8 200.4C85.6 199.5 86.6 199.1 87.9 199.1C89.1 199.1 90 199.6 90.7 200.6ZM86.3 201.5C85.8 202 85.6 202.8 85.6 203.8C85.6 204.7 85.8 205.4 86.1 205.9C86.5 206.5 87.2 206.8 88.1 206.8C88.9 206.8 89.5 206.5 90 206C90.4 205.4 90.7 204.7 90.7 203.7C90.7 202.7 90.5 202 90 201.4C89.5 200.8 88.9 200.6 88.1 200.6C87.3 200.6 86.7 200.9 86.3 201.5Z" fill="#F7F7F9"/>
<path d="M97.1 196C97.4 196.2 97.5 196.5 97.5 196.9C97.5 197.3 97.4 197.6 97.1 197.8C96.8 198 96.5 198.2 96.2 198.2C95.8 198.2 95.5 198.1 95.3 197.8C95 197.5 94.9 197.2 94.9 196.9C94.9 196.5 95 196.2 95.3 196C95.6 195.7 95.9 195.6 96.2 195.6C96.5 195.6 96.8 195.7 97.1 196ZM97.1 199.4V208.7H95.2V199.4H97.1Z" fill="#F7F7F9"/>
<path d="M107.1 202H105.2C105.1 201.5 104.8 201.2 104.5 201C104.2 200.8 103.7 200.7 103 200.7C102.4 200.7 102 200.8 101.7 201C101.4 201.2 101.2 201.5 101.2 201.8C101.2 202.1 101.5 202.4 102 202.6C102.3 202.7 102.9 202.9 103.9 203.2C105 203.5 105.8 203.8 106.3 204.1C107 204.6 107.4 205.2 107.4 206C107.4 208 106 209 103.3 209C100.7 209 99.4 207.9 99.2 205.7H101.1C101.2 206.3 101.4 206.8 101.8 207C102.1 207.2 102.6 207.4 103.3 207.4C104.8 207.4 105.5 207 105.5 206.1C105.5 205.6 105.2 205.3 104.7 205C104.4 204.9 103.8 204.7 102.8 204.5C101.7 204.2 100.9 204 100.5 203.7C99.8 203.3 99.4 202.6 99.4 201.8C99.4 201 99.7 200.3 100.4 199.8C101.1 199.3 102 199.1 103.1 199.1C105.5 199.1 106.8 200.1 107.1 202Z" fill="#F7F7F9"/>
<path d="M111.8 199.4H113.9V201H111.8V206.4C111.8 206.7 111.9 206.8 112 207C112.1 207.1 112.3 207.2 112.5 207.2H113.7V208.8H112.2C111.4 208.8 110.8 208.6 110.5 208.2C110.1 207.8 110 207.2 110 206.5V201.1H108.3V199.5H110V197.3L111.9 196.5V199.4H111.8Z" fill="#F7F7F9"/>
<path d="M122.9 200.7C123.6 201.6 124 202.9 124 204.6H116.9C117 205.5 117.2 206.2 117.6 206.7C118 207.2 118.6 207.4 119.4 207.4C120.1 207.4 120.6 207.2 121 206.9C121.3 206.6 121.6 206.2 121.8 205.7H123.7C123.5 206.6 123.1 207.3 122.4 207.9C121.6 208.6 120.6 209 119.3 209C117.9 209 116.8 208.6 116 207.7C115.1 206.8 114.7 205.6 114.7 204.1C114.7 202.7 115.1 201.6 115.9 200.6C116.7 199.6 117.8 199.2 119.2 199.2C120.9 199.1 122.1 199.6 122.9 200.7ZM117.7 201.3C117.3 201.7 117 202.3 116.9 203.1H121.9C121.7 201.5 120.9 200.7 119.4 200.7C118.7 200.7 118.2 200.9 117.7 201.3Z" fill="#F7F7F9"/>
<path d="M131.1 199.3V201.2C130.6 201.1 130.2 201 129.8 201C129.2 201 128.7 201.2 128.3 201.7C127.8 202.2 127.6 202.9 127.6 203.7V208.6H125.7V199.3H127.6V200.7C127.8 200.2 128.1 199.8 128.5 199.6C128.9 199.2 129.4 199.1 130 199.1C130.4 199.1 130.8 199.2 131.1 199.3Z" fill="#F7F7F9"/>
<path d="M139.4 199.4L142 206.2L144.4 199.4H146.5L141.4 212.3H139.4L141 208.5L137.3 199.4H139.4Z" fill="#F7F7F9"/>
<path d="M155.3 200.5C156.1 201.4 156.6 202.6 156.6 204C156.6 205.4 156.2 206.6 155.4 207.5C154.5 208.4 153.4 208.9 152 208.9C150.6 208.9 149.5 208.4 148.6 207.5C147.8 206.6 147.4 205.4 147.4 204C147.4 202.6 147.8 201.4 148.7 200.5C149.5 199.6 150.7 199.1 152.1 199.1C153.3 199.1 154.4 199.6 155.3 200.5ZM149.8 201.7C149.4 202.3 149.2 203.1 149.2 204C149.2 204.9 149.4 205.7 149.8 206.3C150.3 207 151 207.3 151.9 207.3C152.8 207.3 153.5 206.9 154 206.3C154.4 205.7 154.6 204.9 154.6 204C154.6 203.1 154.4 202.3 154 201.7C153.5 201 152.8 200.7 151.9 200.7C151 200.7 150.3 201 149.8 201.7Z" fill="#F7F7F9"/>
<path d="M160.3 199.4V205.1C160.3 205.9 160.5 206.5 160.8 206.8C161.1 207.2 161.7 207.4 162.4 207.4C162.9 207.4 163.4 207.2 163.8 206.8C164.2 206.4 164.5 205.8 164.7 205.1V199.4H166.6V208.7H164.7V207.4C163.9 208.4 162.9 208.9 161.8 208.9C159.6 208.9 158.4 207.6 158.4 205.1V199.3H160.3V199.4Z" fill="#F7F7F9"/>
<path d="M174.2 199.3V201.2C173.7 201.1 173.3 201 172.9 201C172.3 201 171.8 201.2 171.4 201.7C170.9 202.2 170.7 202.9 170.7 203.7V208.6H168.8V199.3H170.7V200.7C170.9 200.2 171.2 199.8 171.6 199.6C172 199.2 172.5 199.1 173.1 199.1C173.5 199.1 173.9 199.2 174.2 199.3Z" fill="#F7F7F9"/>
<path d="M189.6 196.5C190.5 197.2 191 198.2 191.1 199.6H189.2C189 198.8 188.7 198.2 188.2 197.8C187.7 197.4 187 197.2 186 197.2C185.2 197.2 184.5 197.3 184.1 197.6C183.5 197.9 183.3 198.4 183.3 199C183.3 199.6 183.6 200 184.3 200.4C184.6 200.6 185.3 200.8 186.5 201.2C188.2 201.7 189.4 202.2 189.9 202.5C191 203.2 191.6 204.1 191.6 205.3C191.6 206.5 191.2 207.4 190.3 208C189.4 208.6 188.1 209 186.5 209C184.9 209 183.7 208.7 182.8 208.1C181.7 207.3 181.2 206.2 181.1 204.5H183C183.1 205.5 183.5 206.2 184.1 206.7C184.6 207.1 185.4 207.3 186.5 207.3C187.5 207.3 188.2 207.1 188.8 206.8C189.4 206.5 189.7 206 189.7 205.5C189.7 204.8 189.3 204.2 188.5 203.8C188.2 203.7 187.4 203.4 185.9 202.9C184.3 202.4 183.3 202.1 182.9 201.8C181.9 201.2 181.4 200.3 181.4 199.2C181.4 198.1 181.9 197.2 182.8 196.5C183.7 195.9 184.8 195.6 186.2 195.6C187.6 195.6 188.7 195.9 189.6 196.5Z" fill="#F7F7F9"/>
<path d="M195.2 195.8L201.8 205.4H201.9V195.8H203.9V208.6H202L195.4 198.9H195.3V208.6H193.3V195.8H195.2Z" fill="#F7F7F9"/>
<path d="M214.3 196.5C215.2 197.2 215.7 198.2 215.8 199.6H213.9C213.7 198.8 213.4 198.2 212.9 197.8C212.4 197.4 211.7 197.2 210.7 197.2C209.9 197.2 209.2 197.3 208.8 197.6C208.2 197.9 208 198.4 208 199C208 199.6 208.3 200 209 200.4C209.3 200.6 210 200.8 211.2 201.2C212.9 201.7 214.1 202.2 214.6 202.5C215.7 203.2 216.3 204.1 216.3 205.3C216.3 206.5 215.9 207.4 215 208C214.1 208.6 212.8 209 211.2 209C209.6 209 208.4 208.7 207.5 208.1C206.4 207.3 205.9 206.2 205.8 204.5H207.7C207.8 205.5 208.2 206.2 208.8 206.7C209.3 207.1 210.1 207.3 211.2 207.3C212.2 207.3 212.9 207.1 213.5 206.8C214.1 206.5 214.4 206 214.4 205.5C214.4 204.8 214 204.2 213.2 203.8C212.9 203.7 212.1 203.4 210.6 202.9C209 202.4 208 202.1 207.6 201.8C206.6 201.2 206.1 200.3 206.1 199.2C206.1 198.1 206.6 197.2 207.5 196.5C208.4 195.9 209.5 195.6 210.9 195.6C212.3 195.6 213.5 195.9 214.3 196.5Z" fill="#F7F7F9"/>
<path d="M226.1 196C226.4 196.2 226.5 196.5 226.5 196.9C226.5 197.3 226.4 197.6 226.1 197.8C225.8 198 225.5 198.2 225.2 198.2C224.8 198.2 224.5 198.1 224.3 197.8C224 197.5 223.9 197.2 223.9 196.9C223.9 196.5 224 196.2 224.3 196C224.6 195.7 224.9 195.6 225.2 195.6C225.5 195.6 225.8 195.7 226.1 196ZM226.1 199.4V208.7H224.2V199.4H226.1Z" fill="#F7F7F9"/>
<path d="M236.8 202.9V208.6H234.9V203C234.9 201.4 234.2 200.6 232.7 200.6C232.2 200.6 231.7 200.8 231.3 201.2C230.9 201.6 230.6 202.2 230.5 203V208.6H228.6V199.3H230.5V200.5C230.9 200 231.3 199.7 231.7 199.5C232.2 199.2 232.7 199.1 233.3 199.1C235.7 199.1 236.8 200.4 236.8 202.9Z" fill="#F7F7F9"/>
<path d="M255.5 197.5C256.6 198.7 257.1 200.3 257.1 202.3C257.1 204.3 256.6 205.8 255.5 207.1C254.4 208.4 252.8 209 250.9 209C248.9 209 247.4 208.4 246.3 207.1C245.2 205.9 244.7 204.3 244.7 202.4C244.7 200.4 245.2 198.9 246.3 197.6C247.4 196.3 249 195.7 250.9 195.7C252.8 195.6 254.3 196.2 255.5 197.5ZM247.7 198.7C247 199.6 246.6 200.8 246.6 202.3C246.6 203.8 247 205 247.7 205.9C248.5 206.8 249.5 207.3 250.9 207.3C252.3 207.3 253.3 206.9 254.1 206C254.8 205.1 255.2 203.9 255.2 202.4C255.2 200.9 254.8 199.6 254.1 198.8C253.4 197.9 252.3 197.5 250.9 197.5C249.5 197.5 248.4 197.7 247.7 198.7Z" fill="#F7F7F9"/>
<path d="M269.7 195.8L264 201.3L270.5 208.6H267.9L262.7 202.6L261 204.2V208.6H259V195.8H261V202L267.2 195.8H269.7Z" fill="#F7F7F9"/>
<path d="M273.3 195.8L276.4 200.4L279.5 195.8H281.9L277.5 202L282.2 208.6H279.8L276.4 203.5L273 208.6H270.6L275.2 202L270.9 195.8H273.3Z" fill="#F7F7F9"/>
<path d="M290.7 195.8L293.2 205.8H293.3L295.9 195.8H298L300.6 205.8H300.7L303.2 195.8H305.4L301.7 208.6H299.6L297 198.7H296.9L294.3 208.6H292.2L288.5 195.8H290.7Z" fill="#F7F7F9"/>
<path d="M313.7 200.1C314.3 200.7 314.5 201.6 314.5 202.7V208.6H312.7V207.3C312.3 207.8 311.9 208.1 311.4 208.4C310.8 208.7 310.1 208.9 309.2 208.9C308.2 208.9 307.5 208.6 306.9 208.2C306.3 207.7 306 207.1 306 206.3C306 205.3 306.4 204.4 307.2 203.9C308 203.4 309 203.1 310.4 203.1L312.5 203V202.6C312.5 201.3 311.8 200.7 310.4 200.7C309.8 200.7 309.3 200.8 309 201C308.6 201.3 308.3 201.6 308.2 202.2L306.3 202C306.5 201 307 200.2 307.8 199.8C308.5 199.4 309.4 199.2 310.6 199.2C312 199.1 313.1 199.4 313.7 200.1ZM310.7 204.4C309 204.4 308.1 205 308.1 206.2C308.1 206.6 308.2 206.8 308.5 207.1C308.8 207.3 309.2 207.5 309.7 207.5C310.5 207.5 311.2 207.2 311.8 206.8C312.4 206.3 312.7 205.7 312.7 205V204.5L310.7 204.4Z" fill="#F7F7F9"/>
<path d="M318.8 195.6V208.7H316.9V195.6H318.8Z" fill="#F7F7F9"/>
<path d="M323.3 195.6V208.7H321.4V195.6H323.3Z" fill="#F7F7F9"/>
<path d="M333.1 200.7C333.8 201.6 334.2 202.9 334.2 204.6H327.1C327.2 205.5 327.4 206.2 327.8 206.7C328.2 207.2 328.8 207.4 329.6 207.4C330.3 207.4 330.8 207.2 331.2 206.9C331.5 206.6 331.8 206.2 332 205.7H333.9C333.7 206.6 333.3 207.3 332.6 207.9C331.8 208.6 330.8 209 329.5 209C328.1 209 327 208.6 326.2 207.7C325.3 206.8 324.9 205.6 324.9 204.1C324.9 202.7 325.3 201.6 326.1 200.6C326.9 199.6 328 199.2 329.4 199.2C331.2 199.1 332.3 199.6 333.1 200.7ZM328 201.3C327.6 201.7 327.3 202.3 327.2 203.1H332.2C332 201.5 331.2 200.7 329.7 200.7C329 200.7 328.4 200.9 328 201.3Z" fill="#F7F7F9"/>
<path d="M338.7 199.4H340.8V201H338.7V206.4C338.7 206.7 338.8 206.8 338.9 207C339 207.1 339.2 207.2 339.4 207.2H340.6V208.8H339C338.2 208.8 337.6 208.6 337.3 208.2C336.9 207.8 336.8 207.2 336.8 206.5V201.1H335V199.5H336.7V197.3L338.6 196.5V199.4H338.7Z" fill="#F7F7F9"/>
<path d="M350.2 199.4V205.1C350.2 205.9 350.4 206.5 350.7 206.8C351 207.2 351.6 207.4 352.3 207.4C352.8 207.4 353.3 207.2 353.7 206.8C354.1 206.4 354.4 205.8 354.6 205.1V199.4H356.5V208.7H354.6V207.4C353.8 208.4 352.8 208.9 351.7 208.9C349.5 208.9 348.3 207.6 348.3 205.1V199.3H350.2V199.4Z" fill="#F7F7F9"/>
<path d="M366.1 202H364.2C364.1 201.5 363.8 201.2 363.5 201C363.2 200.8 362.7 200.7 362 200.7C361.4 200.7 361 200.8 360.7 201C360.4 201.2 360.2 201.5 360.2 201.8C360.2 202.1 360.5 202.4 361 202.6C361.3 202.7 361.9 202.9 362.9 203.2C364 203.5 364.8 203.8 365.3 204.1C366 204.6 366.4 205.2 366.4 206C366.4 208 365 209 362.3 209C359.7 209 358.4 207.9 358.2 205.7H360.1C360.2 206.3 360.4 206.8 360.8 207C361.1 207.2 361.6 207.4 362.3 207.4C363.8 207.4 364.5 207 364.5 206.1C364.5 205.6 364.2 205.3 363.7 205C363.4 204.9 362.8 204.7 361.8 204.5C360.7 204.2 359.9 204 359.5 203.7C358.8 203.3 358.4 202.6 358.4 201.8C358.4 201 358.7 200.3 359.4 199.8C360.1 199.3 361 199.1 362.1 199.1C364.6 199.1 365.9 200.1 366.1 202Z" fill="#F7F7F9"/>
<path d="M370.3 196C370.6 196.2 370.7 196.5 370.7 196.9C370.7 197.3 370.6 197.6 370.3 197.8C370 198 369.7 198.2 369.4 198.2C369 198.2 368.7 198.1 368.5 197.8C368.2 197.5 368.1 197.2 368.1 196.9C368.1 196.5 368.2 196.2 368.5 196C368.8 195.7 369.1 195.6 369.4 195.6C369.7 195.6 370.1 195.7 370.3 196ZM370.3 199.4V208.7H368.4V199.4H370.3Z" fill="#F7F7F9"/>
<path d="M381.1 202.9V208.6H379.2V203C379.2 201.4 378.5 200.6 377 200.6C376.5 200.6 376 200.8 375.6 201.2C375.2 201.6 374.9 202.2 374.8 203V208.6H372.9V199.3H374.8V200.5C375.2 200 375.6 199.7 376 199.5C376.5 199.2 377 199.1 377.6 199.1C379.9 199.1 381.1 200.4 381.1 202.9Z" fill="#F7F7F9"/>
<path d="M390 200.6V199.4H391.9V208.1C391.9 211.1 390.4 212.5 387.6 212.5C386.3 212.5 385.3 212.2 384.6 211.8C383.9 211.3 383.5 210.5 383.3 209.5H385.2C385.3 210 385.5 210.4 385.9 210.7C386.2 210.9 386.8 211 387.6 211C389.2 211 390 210.1 390 208.4V207C389.3 208 388.4 208.5 387.2 208.5C385.9 208.5 384.9 208.1 384.1 207.2C383.3 206.4 382.9 205.2 382.9 203.8C382.9 202.4 383.3 201.3 384.1 200.4C384.9 199.5 385.9 199.1 387.2 199.1C388.4 199.1 389.3 199.6 390 200.6ZM385.6 201.5C385.1 202 384.9 202.8 384.9 203.8C384.9 204.7 385.1 205.4 385.4 205.9C385.8 206.5 386.5 206.8 387.4 206.8C388.2 206.8 388.8 206.5 389.3 206C389.7 205.4 390 204.7 390 203.7C390 202.7 389.8 202 389.3 201.4C388.8 200.8 388.2 200.6 387.4 200.6C386.6 200.6 386 200.9 385.6 201.5Z" fill="#F7F7F9"/>
<path d="M402.9 199.4H405V201H402.9V206.4C402.9 206.7 403 206.8 403.1 207C403.2 207.1 403.4 207.2 403.6 207.2H404.8V208.8H403.3C402.5 208.8 401.9 208.6 401.6 208.2C401.2 207.8 401.1 207.2 401.1 206.5V201.1H399.4V199.5H401.1V197.3L403 196.5V199.4H402.9Z" fill="#F7F7F9"/>
<path d="M408.4 195.6V200.7C408.7 200.2 409.2 199.7 409.7 199.5C410.2 199.2 410.7 199.1 411.3 199.1C412.4 199.1 413.3 199.4 413.8 200.1C414.3 200.7 414.6 201.7 414.6 202.9V208.7H412.7V203.2C412.7 202.4 412.5 201.8 412.2 201.3C411.8 200.9 411.3 200.6 410.6 200.6C410 200.6 409.4 200.9 409 201.4C408.6 201.9 408.4 202.6 408.4 203.4V208.6H406.5V195.5H408.4V195.6Z" fill="#F7F7F9"/>
<path d="M424.2 200.7C424.9 201.6 425.3 202.9 425.3 204.6H418.2C418.3 205.5 418.5 206.2 418.9 206.7C419.3 207.2 419.9 207.4 420.7 207.4C421.4 207.4 421.9 207.2 422.3 206.9C422.6 206.6 422.9 206.2 423.1 205.7H425C424.8 206.6 424.4 207.3 423.7 207.9C422.9 208.6 421.9 209 420.6 209C419.2 209 418.1 208.6 417.3 207.7C416.4 206.8 416 205.6 416 204.1C416 202.7 416.4 201.6 417.2 200.6C418 199.6 419.1 199.2 420.5 199.2C422.2 199.1 423.4 199.6 424.2 200.7ZM419.1 201.3C418.7 201.7 418.4 202.3 418.3 203.1H423.3C423.1 201.5 422.3 200.7 420.8 200.7C420.1 200.7 419.5 200.9 419.1 201.3Z" fill="#F7F7F9"/>
<path d="M438.4 195.8C441.5 195.8 443 197.1 443 199.7C443 202.3 441.5 203.6 438.4 203.6H435.1V208.6H433.1V195.8H438.4ZM435.1 202H438.3C439.3 202 440 201.8 440.4 201.5C440.8 201.1 441.1 200.6 441.1 199.8C441.1 199 440.9 198.4 440.4 198.1C439.9 197.7 439.2 197.6 438.3 197.6H435.1V202Z" fill="#F7F7F9"/>
<path d="M452.3 200.5C453.1 201.4 453.6 202.6 453.6 204C453.6 205.4 453.2 206.6 452.4 207.5C451.5 208.4 450.4 208.9 449 208.9C447.6 208.9 446.5 208.4 445.6 207.5C444.8 206.6 444.4 205.4 444.4 204C444.4 202.6 444.8 201.4 445.7 200.5C446.5 199.6 447.7 199.1 449.1 199.1C450.5 199.1 451.5 199.6 452.3 200.5ZM446.9 201.7C446.5 202.3 446.3 203.1 446.3 204C446.3 204.9 446.5 205.7 446.9 206.3C447.4 207 448.1 207.3 449 207.3C449.9 207.3 450.6 206.9 451.1 206.3C451.5 205.7 451.7 204.9 451.7 204C451.7 203.1 451.5 202.3 451.1 201.7C450.6 201 449.9 200.7 449 200.7C448.1 200.7 447.4 201 446.9 201.7Z" fill="#F7F7F9"/>
<path d="M457.5 195.6V208.7H455.6V195.6H457.5Z" fill="#F7F7F9"/>
<path d="M461 199.4L463.6 206.2L466 199.4H468.1L463 212.3H461L462.6 208.5L458.9 199.4H461Z" fill="#F7F7F9"/>
<path d="M475.9 200.6V199.4H477.8V208.1C477.8 211.1 476.3 212.5 473.5 212.5C472.2 212.5 471.2 212.2 470.5 211.8C469.8 211.3 469.4 210.5 469.2 209.5H471.1C471.2 210 471.4 210.4 471.8 210.7C472.1 210.9 472.7 211 473.5 211C475.1 211 475.9 210.1 475.9 208.4V207C475.2 208 474.3 208.5 473.1 208.5C471.8 208.5 470.8 208.1 470 207.2C469.2 206.4 468.8 205.2 468.8 203.8C468.8 202.4 469.2 201.3 470 200.4C470.8 199.5 471.8 199.1 473.1 199.1C474.3 199.1 475.2 199.6 475.9 200.6ZM471.5 201.5C471 202 470.8 202.8 470.8 203.8C470.8 204.7 471 205.4 471.3 205.9C471.7 206.5 472.4 206.8 473.3 206.8C474.1 206.8 474.7 206.5 475.2 206C475.6 205.4 475.9 204.7 475.9 203.7C475.9 202.7 475.7 202 475.2 201.4C474.7 200.8 474.1 200.6 473.3 200.6C472.5 200.6 471.9 200.9 471.5 201.5Z" fill="#F7F7F9"/>
<path d="M487.7 200.5C488.5 201.4 489 202.6 489 204C489 205.4 488.6 206.6 487.8 207.5C486.9 208.4 485.8 208.9 484.4 208.9C483 208.9 481.9 208.4 481 207.5C480.2 206.6 479.8 205.4 479.8 204C479.8 202.6 480.2 201.4 481.1 200.5C481.9 199.6 483.1 199.1 484.5 199.1C485.9 199.1 486.8 199.6 487.7 200.5ZM482.2 201.7C481.8 202.3 481.6 203.1 481.6 204C481.6 204.9 481.8 205.7 482.2 206.3C482.7 207 483.4 207.3 484.3 207.3C485.2 207.3 485.9 206.9 486.4 206.3C486.8 205.7 487 204.9 487 204C487 203.1 486.8 202.3 486.4 201.7C485.9 201 485.2 200.7 484.3 200.7C483.4 200.7 482.7 201 482.2 201.7Z" fill="#F7F7F9"/>
<path d="M498.9 202.9V208.6H497V203C497 201.4 496.3 200.6 494.8 200.6C494.3 200.6 493.8 200.8 493.4 201.2C493 201.6 492.7 202.2 492.6 203V208.6H490.7V199.3H492.6V200.5C493 200 493.4 199.7 493.8 199.5C494.3 199.2 494.8 199.1 495.4 199.1C497.7 199.1 498.9 200.4 498.9 202.9Z" fill="#F7F7F9"/>
<path d="M515.3 202.9V208.6H513.4V203C513.4 201.4 512.7 200.6 511.2 200.6C510.7 200.6 510.2 200.8 509.8 201.2C509.4 201.6 509.1 202.2 509 203V208.6H507.1V199.3H509V200.5C509.4 200 509.8 199.7 510.2 199.5C510.7 199.2 511.2 199.1 511.8 199.1C514.1 199.1 515.3 200.4 515.3 202.9Z" fill="#F7F7F9"/>
<path d="M524.8 200.7C525.5 201.6 525.9 202.9 525.9 204.6H518.8C518.9 205.5 519.1 206.2 519.5 206.7C519.9 207.2 520.5 207.4 521.3 207.4C522 207.4 522.5 207.2 522.9 206.9C523.2 206.6 523.5 206.2 523.7 205.7H525.6C525.4 206.6 525 207.3 524.3 207.9C523.5 208.6 522.5 209 521.2 209C519.8 209 518.7 208.6 517.9 207.7C517 206.8 516.6 205.6 516.6 204.1C516.6 202.7 517 201.6 517.8 200.6C518.6 199.6 519.7 199.2 521.1 199.2C522.9 199.1 524 199.6 524.8 200.7ZM519.7 201.3C519.3 201.7 519 202.3 518.9 203.1H523.9C523.7 201.5 522.9 200.7 521.4 200.7C520.7 200.7 520.1 200.9 519.7 201.3Z" fill="#F7F7F9"/>
<path d="M530.4 199.4H532.5V201H530.4V206.4C530.4 206.7 530.5 206.8 530.6 207C530.7 207.1 530.9 207.2 531.1 207.2H532.3V208.8H530.8C530 208.8 529.4 208.6 529.1 208.2C528.7 207.8 528.6 207.2 528.6 206.5V201.1H526.9V199.5H528.6V197.3L530.5 196.5V199.4H530.4Z" fill="#F7F7F9"/>
<path d="M535.2 199.4L537.2 206.4L539.1 199.4H540.9L542.8 206.4L544.8 199.4H546.9L543.8 208.7H542L540.1 201.7L538.2 208.7H536.4L533.3 199.4H535.2Z" fill="#F7F7F9"/>
<path d="M555.6 200.5C556.4 201.4 556.9 202.6 556.9 204C556.9 205.4 556.5 206.6 555.7 207.5C554.8 208.4 553.7 208.9 552.3 208.9C550.9 208.9 549.8 208.4 548.9 207.5C548.1 206.6 547.7 205.4 547.7 204C547.7 202.6 548.1 201.4 549 200.5C549.8 199.6 551 199.1 552.4 199.1C553.8 199.1 554.7 199.6 555.6 200.5ZM550.2 201.7C549.8 202.3 549.6 203.1 549.6 204C549.6 204.9 549.8 205.7 550.2 206.3C550.7 207 551.4 207.3 552.3 207.3C553.2 207.3 553.9 206.9 554.4 206.3C554.8 205.7 555 204.9 555 204C555 203.1 554.8 202.3 554.4 201.7C553.9 201 553.2 200.7 552.3 200.7C551.3 200.7 550.6 201 550.2 201.7Z" fill="#F7F7F9"/>
<path d="M564.2 199.3V201.2C563.7 201.1 563.3 201 562.9 201C562.3 201 561.8 201.2 561.4 201.7C560.9 202.2 560.7 202.9 560.7 203.7V208.6H558.8V199.3H560.7V200.7C560.9 200.2 561.2 199.8 561.6 199.6C562 199.2 562.5 199.1 563.1 199.1C563.4 199.1 563.9 199.2 564.2 199.3Z" fill="#F7F7F9"/>
<path d="M567.3 195.6V203.2L571.3 199.4H573.8L569.7 203.2L574.2 208.7H571.8L568.5 204.5L567.4 205.5V208.8H565.5V195.7H567.3V195.6Z" fill="#F7F7F9"/>
<path d="M577.5 206.5C577.8 206.8 577.9 207.1 577.9 207.5C577.9 207.9 577.8 208.2 577.5 208.5C577.2 208.7 576.9 208.9 576.5 208.9C576.1 208.9 575.8 208.8 575.6 208.5C575.3 208.2 575.2 207.9 575.2 207.5C575.2 207.1 575.3 206.8 575.6 206.5C575.8 206.2 576.1 206.1 576.5 206.1C576.9 206.1 577.2 206.2 577.5 206.5Z" fill="#F7F7F9"/>
<path d="M125.2 66.9L127.5 53.9H142.1V59.4H132.2L131.4 62.8C132.6 62 134.2 61.5 136.2 61.5C141.1 61.8 143.7 64.2 144 68.9C143.9 74.2 140.5 76.9 133.7 77C128.7 77 125.5 74.9 124.2 70.8L130.9 70.2C131 70.2 131 70.2 131 70.3C131.4 71.5 132.4 72.1 133.9 72.2C135.9 72.1 137 71.1 137.2 69.1C137.1 66.9 136.1 65.8 134.3 65.8C132.9 65.8 131.9 66.2 131.5 67.1L125.2 66.9Z" fill="white"/>
<path d="M145.9 65.1C146.1 57.6 149.4 53.8 155.9 53.5C162.3 53.8 165.6 57.6 165.8 65.1C165.6 73 162.3 77 155.9 77C149.3 77 146 73 145.9 65.1ZM155.9 72.3C157.9 72.3 159 70.1 159 65.6C159.2 60.9 158.1 58.7 155.8 58.7C153.7 58.7 152.6 61 152.6 65.6C152.5 70.1 153.6 72.3 155.9 72.3Z" fill="white"/>
<path d="M167.5 65.1C167.7 57.6 171 53.8 177.5 53.5C183.9 53.8 187.2 57.6 187.4 65.1C187.2 73 183.9 77 177.5 77C170.9 77 167.6 73 167.5 65.1ZM177.5 72.3C179.5 72.3 180.6 70.1 180.6 65.6C180.8 60.9 179.7 58.7 177.4 58.7C175.3 58.7 174.2 61 174.2 65.6C174.2 70.1 175.3 72.3 177.5 72.3Z" fill="white"/>
<path d="M201.3 66.7V53.5H208.9V67.5C208.8 70.5 210 71.9 212.6 71.8C215.1 71.8 216.2 70.4 216.2 67.5V53.5H223.8V66.7C224 73.9 220.2 77.4 212.6 77.3C204.9 77.4 201.1 73.9 201.3 66.7Z" fill="white"/>
<path d="M247.8 60.2H240.6C240.5 59.4 240.1 58.9 239.5 58.7C239.1 58.4 238.4 58.2 237.6 58.2C235.9 58.2 235.1 58.7 235.1 59.6C235.1 60.4 236.6 61.3 239.7 62C245.6 63.4 248.6 65.9 248.6 69.4C248.4 74.6 244.8 77.2 237.7 77.3C231.5 77 228 74.5 227.3 69.7H234.7C235 70.5 235.4 71.2 236 71.6C236.6 71.9 237.3 72.1 238.2 72.1C240.4 72.1 241.5 71.5 241.5 70.4C241.5 69.5 240 68.7 237.1 68C231.1 66.6 228.1 64 228.1 60.4C228.3 55.6 231.6 53.1 238.1 52.9C243.7 52.9 247.1 55.4 247.8 60.2Z" fill="white"/>
<path d="M261.7 76.8H251.7V53.4H262C270.1 53.5 274.1 57.2 274.2 64.6C274.2 72.8 270 76.8 261.7 76.8ZM259.3 58.9V71.4H261C264.6 71.4 266.5 69.3 266.5 65C266.8 60.6 264.9 58.6 260.9 58.9H259.3Z" fill="white"/>
<path d="M95.7 139.7V163H89V149.7H83.7V145C87.7 145 90 143.3 90.7 139.8H95.7V139.7Z" fill="white"/>
<path d="M102.9 151.3C103.1 143.8 106.4 140 112.9 139.7C119.3 140 122.6 143.8 122.8 151.3C122.6 159.2 119.3 163.2 112.9 163.2C106.4 163.1 103 159.2 102.9 151.3ZM113 158.4C115 158.4 116.1 156.2 116.1 151.7C116.3 147 115.2 144.8 112.9 144.8C110.8 144.8 109.7 147.1 109.7 151.7C109.6 156.2 110.7 158.5 113 158.4Z" fill="white"/>
<path d="M126.2 156.5V152.8H142.6V156.5H126.2Z" fill="white"/>
<path d="M146.4 157.4L152.6 157C153 158.2 154 158.8 155.4 158.8C157.8 158.8 159 157.1 159 153.6C157.4 154.8 155.6 155.3 153.5 155.3C148.8 155 146.2 152.6 145.7 147.9C145.9 142.6 149 139.9 155 139.8C162.1 139.8 165.7 143.8 165.7 151.7C165.4 159.2 162.1 163.1 155.7 163.3C150.3 163.2 147.2 161.3 146.4 157.4ZM155.4 150.8C157.5 150.6 158.6 149.5 158.6 147.5C158.4 145.7 157.4 144.7 155.5 144.6C153.6 144.7 152.7 145.7 152.6 147.8C152.7 149.7 153.6 150.7 155.4 150.8Z" fill="white"/>
<path d="M168 157.4L174.2 157C174.6 158.2 175.6 158.8 177 158.8C179.4 158.8 180.6 157.1 180.6 153.6C179 154.8 177.2 155.3 175.1 155.3C170.4 155 167.8 152.6 167.3 147.9C167.5 142.6 170.6 139.9 176.6 139.8C183.7 139.8 187.3 143.8 187.3 151.7C187 159.2 183.7 163.1 177.3 163.3C171.9 163.2 168.8 161.3 168 157.4ZM177 150.8C179.1 150.6 180.2 149.5 180.2 147.5C180 145.7 179 144.7 177.1 144.6C175.2 144.7 174.3 145.7 174.2 147.8C174.3 149.7 175.3 150.7 177 150.8Z" fill="white"/>
<path d="M201.3 152.8V139.6H208.9V153.6C208.8 156.6 210 158 212.6 157.9C215.1 157.9 216.2 156.5 216.2 153.6V139.6H223.8V152.8C224 160 220.2 163.5 212.6 163.4C204.9 163.5 201.1 160 201.3 152.8Z" fill="white"/>
<path d="M247.8 146.3H240.6C240.5 145.5 240.1 145 239.5 144.8C239.1 144.5 238.4 144.3 237.6 144.3C235.9 144.3 235.1 144.8 235.1 145.7C235.1 146.5 236.6 147.4 239.7 148.1C245.6 149.5 248.6 152 248.6 155.5C248.4 160.7 244.8 163.3 237.7 163.4C231.5 163.1 228 160.6 227.3 155.8H234.7C235 156.6 235.4 157.3 236 157.7C236.6 158 237.3 158.2 238.2 158.2C240.4 158.2 241.5 157.6 241.5 156.5C241.5 155.6 240 154.8 237.1 154.1C231.1 152.7 228.1 150.1 228.1 146.5C228.3 141.7 231.6 139.2 238.1 139C243.7 139 247.1 141.5 247.8 146.3Z" fill="white"/>
<path d="M261.7 163H251.7V139.6H262C270 139.7 274.1 143.4 274.2 150.8C274.2 158.9 270 163 261.7 163ZM259.3 145.1V157.6H261C264.6 157.6 266.5 155.5 266.5 151.2C266.8 146.8 264.9 144.8 260.9 145.1H259.3Z" fill="white"/>
<path d="M333 68.7H339.4C339.4 69.7 339.7 70.6 340.3 71.3C340.9 71.8 341.7 72.1 342.7 72.2C344.6 72.1 345.6 71.2 345.8 69.5C345.9 67.6 344.4 66.8 341.5 66.9V62.8C344.2 63 345.6 62.2 345.6 60.5C345.6 59.1 344.7 58.5 342.9 58.5C341.1 58.5 340.1 59.3 340 60.9H333.9C334.2 56.1 337.3 53.6 343.2 53.4C348.8 53.6 351.8 55.7 352 59.8C352 62 351.1 63.5 349.3 64.4C351.4 65.3 352.5 66.9 352.6 69.3C352.5 74.4 349.1 77 342.4 77.1C336.2 76.8 333.1 74.1 333 68.7Z" fill="#DC5F62"/>
<path d="M384.6 76.7001H378.6V74.4001C377.2 76.2001 375.4 77.0001 373.2 77.0001C368.3 76.8001 365.7 74.0001 365.4 68.4001C365.7 62.6001 368.1 59.5 372.7 59.1C374.9 59 376.6 59.7 377.8 61.3V53.3H384.6V76.7001ZM375 72.3C377 72.3 378 71 378.1 68.3C378 65.7 377 64.3 375.2 64.3C373.4 64.4 372.5 65.7001 372.4 68.4001C372.3 71.0001 373.2 72.3 375 72.3Z" fill="#DC5F62"/>
<path d="M388.2 57.5V52.6H395V57.5H388.2ZM394.9 76.7H388.1V59.6H394.9V76.7Z" fill="#DC5F62"/>
<path d="M399 77.4H405.8C405.9 77.7 406 77.9 406.2 78.2C406.6 78.5 407.1 78.6 407.7 78.6C409.6 78.7 410.5 77.7 410.4 75.5V74.1C409.3 75.4 407.7 76 405.5 76C400.9 75.7 398.4 73 398.1 67.8C398.4 62.2 400.9 59.3 405.8 59.1C408 59.2 409.7 60.1 410.9 61.9V59.6H416.9V73.4C417.5 79.6 414.5 82.6 408 82.3C402.5 82.3 399.5 80.6 399 77.4ZM407.6 64C405.8 64 404.9 65.3 404.9 68C405 70 405.9 71.2 407.6 71.3C409.4 71.3 410.3 70.1 410.4 67.7C410.4 65.2 409.4 64 407.6 64Z" fill="#DC5F62"/>
<path d="M420.7 57.5V52.6H427.5V57.5H420.7ZM427.5 76.7H420.7V59.6H427.5V76.7Z" fill="#DC5F62"/>
<path d="M442.4 71.9V76.7999C437.7 76.9999 435 76.8 434.1 76.2C432.9 75.7 432.4 73.8999 432.4 70.7999V63.5999H430V59.5999H432.4V54.2H439.2V59.5999H442.4V63.5999H439.2V69.7C439 71.3 439.7 72 441.2 71.9H442.4Z" fill="#DC5F62"/>
<path d="M445 71.4H451.5C451.5 72.2 451.8 72.6999 452.3 73.0999C452.7 73.3999 453.3 73.4999 454 73.5999C455.4 73.4999 456.2 72.9999 456.2 72.0999C456.2 71.2999 455 70.6999 452.6 70.2999C448 69.3999 445.7 67.4999 445.7 64.7999C445.8 61.1999 448.5 59.4 453.7 59.2C459.1 59.2 461.9 60.9999 462.3 64.5999H456C456 64.0999 455.8 63.6999 455.4 63.4999C455 63.1999 454.5 62.9999 454 62.9999C452.7 62.9999 452.1 63.3999 452.1 64.2999C452.1 64.8999 453.2 65.3999 455.5 65.7999C460.4 66.8999 462.9 68.8 462.9 71.4C462.8 75.1 459.7 77.0999 453.7 77.0999C448.2 76.8999 445.3 75 445 71.4Z" fill="#DC5F62"/>
<path d="M332.6 114.9V109.5L343.5 96.7H349.8V109.9H352.7V114.9H349.8V119.8H343.4V114.9H332.6ZM343.3 102.9L337.8 109.9H343.3V102.9Z" fill="#DC5F62"/>
<path d="M356.1 113.2V109.5H372.6V113.2H356.1Z" fill="#DC5F62"/>
<path d="M388.7 102.2H376.8V96.7H395.3V101.8C390.7 105.9 388.2 111.8 387.8 119.7H380.8C381.3 113.1 383.9 107.3 388.7 102.2Z" fill="#DC5F62"/>
<path d="M427.7 119.7H421.7V117.4C420.3 119.2 418.5 120 416.3 120C411.4 119.8 408.8 117 408.5 111.4C408.8 105.6 411.2 102.5 415.8 102.1C418 102 419.7 102.7 420.9 104.3V96.3H427.7V119.7ZM418.2 115.3C420.2 115.3 421.2 114 421.3 111.3C421.2 108.7 420.2 107.3 418.4 107.3C416.6 107.4 415.7 108.7 415.6 111.4C415.5 114 416.4 115.3 418.2 115.3Z" fill="#DC5F62"/>
<path d="M431.3 100.5V95.6H438.1V100.5H431.3ZM438.1 119.7H431.3V102.6H438.1V119.7Z" fill="#DC5F62"/>
<path d="M442.2 120.4H449C449.1 120.7 449.2 120.9 449.4 121.2C449.8 121.5 450.3 121.6 450.9 121.6C452.8 121.7 453.7 120.7 453.6 118.5V117.1C452.5 118.4 450.9 119 448.7 119C444.1 118.7 441.6 116 441.3 110.8C441.6 105.2 444.1 102.3 449 102.1C451.2 102.2 452.9 103.1 454.1 104.9V102.6H460.1V116.4C460.7 122.6 457.7 125.6 451.2 125.3C445.7 125.3 442.7 123.6 442.2 120.4ZM450.7 107C448.9 107 448 108.3 448 111C448.1 113 449 114.2 450.7 114.3C452.5 114.3 453.4 113.1 453.5 110.7C453.5 108.2 452.6 107 450.7 107Z" fill="#DC5F62"/>
<path d="M463.9 100.5V95.6H470.7V100.5H463.9ZM470.6 119.7H463.8V102.6H470.6V119.7Z" fill="#DC5F62"/>
<path d="M485.6 114.9V119.8C480.9 120 478.2 119.8 477.3 119.2C476.1 118.7 475.6 116.9 475.6 113.8V106.6H473.2V102.6H475.6V97.2H482.4V102.6H485.6V106.6H482.4V112.7C482.2 114.3 482.9 115 484.4 114.9H485.6Z" fill="#DC5F62"/>
<path d="M488.1 114.4H494.6C494.6 115.2 494.9 115.7 495.4 116.1C495.8 116.4 496.4 116.5 497.1 116.6C498.5 116.5 499.3 116 499.3 115.1C499.3 114.3 498.1 113.7 495.7 113.3C491.1 112.4 488.8 110.5 488.8 107.8C488.9 104.2 491.6 102.4 496.8 102.2C502.2 102.2 505 104 505.4 107.6H499.1C499.1 107.1 498.9 106.7 498.5 106.5C498.1 106.2 497.6 106 497.1 106C495.8 106 495.2 106.4 495.2 107.3C495.2 107.9 496.3 108.4 498.6 108.8C503.5 109.9 506 111.8 506 114.4C505.9 118.1 502.8 120.1 496.8 120.1C491.4 119.9 488.5 118 488.1 114.4Z" fill="#DC5F62"/>
<path d="M336.6 150.7C334.5 149.7 333.4 148.1 333.5 145.8C333.8 141.7 336.9 139.5 342.9 139.3C348.5 139.6 351.5 141.7 351.8 145.7C351.8 148.1 350.8 149.7 348.7 150.4C351.3 151.5 352.5 153.3 352.5 155.8C352.2 160.4 349 162.8 342.7 163C336.1 162.8 332.8 160.4 332.6 155.8C332.7 153.5 333.9 151.8 336.6 150.7ZM343.6 158.3C345.1 158.1 345.9 157.2 345.9 155.6C345.8 153.7 344.8 152.7 342.8 152.7C340.7 152.7 339.6 153.7 339.6 155.6C339.8 157.7 341.1 158.6 343.6 158.3ZM342.7 149C344.6 148.9 345.6 148.1 345.6 146.6C345.5 145 344.6 144.1 342.8 144C340.8 144.1 339.8 144.9 339.7 146.6C339.8 148.1 340.8 148.9 342.7 149Z" fill="#DC5F62"/>
<path d="M356.1 156.2V152.5H372.6V156.2H356.1Z" fill="#DC5F62"/>
<path d="M406 162.7H400V160.4C398.6 162.2 396.8 163 394.6 163C389.7 162.8 387.1 160 386.8 154.4C387.1 148.6 389.5 145.5 394.1 145.1C396.3 145 398 145.7 399.2 147.3V139.3H406V162.7ZM396.5 158.3C398.5 158.3 399.5 157 399.6 154.3C399.5 151.7 398.5 150.3 396.7 150.3C394.9 150.4 394 151.7 393.9 154.4C393.8 157 394.7 158.3 396.5 158.3Z" fill="#DC5F62"/>
<path d="M409.6 143.5V138.6H416.4V143.5H409.6ZM416.4 162.7H409.6V145.6H416.4V162.7Z" fill="#DC5F62"/>
<path d="M420.5 163.4H427.3C427.4 163.7 427.5 163.9 427.7 164.2C428.1 164.5 428.6 164.6 429.2 164.6C431.1 164.7 432 163.7 431.9 161.5V160.1C430.8 161.4 429.2 162 427 162C422.4 161.7 419.9 159 419.6 153.8C419.9 148.2 422.4 145.3 427.3 145.1C429.5 145.2 431.2 146.1 432.4 147.9V145.6H438.4V159.4C439 165.6 436 168.6 429.5 168.3C424 168.3 421 166.6 420.5 163.4ZM429 150C427.2 150 426.3 151.3 426.3 154C426.4 156 427.3 157.2 429 157.3C430.8 157.3 431.7 156.1 431.8 153.7C431.8 151.2 430.9 150 429 150Z" fill="#DC5F62"/>
<path d="M442.2 143.5V138.6H449V143.5H442.2ZM448.9 162.7H442.1V145.6H448.9V162.7Z" fill="#DC5F62"/>
<path d="M463.9 157.9V162.8C459.2 163 456.5 162.8 455.6 162.2C454.4 161.7 453.9 159.9 453.9 156.8V149.6H451.5V145.6H453.9V140.2H460.7V145.6H463.9V149.6H460.7V155.7C460.5 157.3 461.2 158 462.7 157.9H463.9Z" fill="#DC5F62"/>
<path d="M466.4 157.4H472.9C472.9 158.2 473.2 158.7 473.7 159.1C474.1 159.4 474.7 159.5 475.4 159.6C476.8 159.5 477.6 159 477.6 158.1C477.6 157.3 476.4 156.7 474 156.3C469.4 155.4 467.1 153.5 467.1 150.8C467.2 147.2 469.9 145.4 475.1 145.2C480.5 145.2 483.3 147 483.7 150.6H477.4C477.4 150.1 477.2 149.7 476.8 149.5C476.4 149.2 475.9 149 475.4 149C474.1 149 473.5 149.4 473.5 150.3C473.5 150.9 474.6 151.4 476.9 151.8C481.8 152.9 484.3 154.8 484.3 157.4C484.2 161.1 481.1 163.1 475.1 163.1C469.7 162.9 466.8 161 466.4 157.4Z" fill="#DC5F62"/>
<path d="M61 2.40002L64 14.4H64.1L67.2 2.40002H69.7L72.8 14.4H72.9L75.9 2.40002H78.5L74.1 17.8H71.6L68.5 6H68.4L65.3 17.8H62.8L58.4 2.40002H61Z" fill="white"/>
<path d="M88.5 7.59998C89.2 8.29998 89.5 9.30001 89.5 10.7V17.8H87.4V16.2C87 16.8 86.4 17.2 85.8 17.5C85.1 17.8 84.2 18 83.2 18C82 18 81.1 17.7 80.5 17.1C79.8 16.5 79.4 15.8 79.4 14.8C79.4 13.6 79.9 12.6 80.9 11.9C81.8 11.3 83.1 10.9 84.7 10.9L87.2 10.8V10.3C87.2 8.79999 86.4 8 84.7 8C84 8 83.4 8.10002 83 8.40002C82.5 8.70002 82.2 9.19999 82 9.79999L79.7 9.59998C79.9 8.39998 80.5 7.50002 81.5 6.90002C82.3 6.40002 83.4 6.09998 84.8 6.09998C86.5 6.39998 87.7 6.79998 88.5 7.59998ZM84.9 12.7C82.8 12.7 81.8 13.5 81.8 14.9C81.8 15.3 82 15.7 82.3 16C82.6 16.3 83.1 16.4 83.7 16.4C84.7 16.4 85.5 16.1 86.2 15.5C86.9 14.9 87.3 14.2 87.3 13.3V12.7H84.9Z" fill="white"/>
<path d="M94.7 2.09998V17.8H92.4V2.09998H94.7Z" fill="white"/>
<path d="M100 2.09998V17.8H97.7V2.09998H100Z" fill="white"/>
<path d="M111.7 8.20002C112.6 9.30002 113 10.9 113 12.8H104.6C104.7 13.9 105 14.7 105.5 15.3C106 15.9 106.7 16.2 107.6 16.2C108.4 16.2 109 16 109.5 15.6C109.9 15.3 110.2 14.8 110.5 14.2H112.8C112.5 15.2 112 16.1 111.3 16.8C110.3 17.6 109.1 18.1 107.6 18.1C106 18.1 104.7 17.6 103.7 16.6C102.7 15.5 102.2 14.1 102.2 12.3C102.2 10.6 102.7 9.30002 103.7 8.20002C104.6 7.10002 106 6.50001 107.6 6.50001C109.4 6.40001 110.8 7.00002 111.7 8.20002ZM105.6 9.00001C105.1 9.50001 104.8 10.2 104.7 11.1H110.7C110.5 9.19998 109.5 8.20002 107.7 8.20002C106.8 8.20002 106.1 8.50001 105.6 9.00001Z" fill="white"/>
<path d="M118.4 6.70001H120.9V8.59998H118.4V15.1C118.4 15.4 118.5 15.6 118.6 15.8C118.7 15.9 118.9 16 119.2 16H120.7V17.9H118.9C118 17.9 117.2 17.6 116.8 17.1C116.4 16.6 116.2 16 116.2 15.1V8.59998H114V6.70001H116.1V4L118.4 3.09998V6.70001Z" fill="white"/>
<path d="M137.2 2.40002L143.1 17.8H140.6L139.2 13.8H132.6L131.2 17.8H128.7L134.6 2.40002H137.2ZM138.4 11.9L135.9 5H135.8L133.2 11.9H138.4Z" fill="white"/>
<path d="M153.3 9.90002H151.1C150.9 9.30002 150.7 8.90001 150.3 8.70001C149.9 8.40001 149.3 8.29999 148.5 8.29999C147.8 8.29999 147.3 8.39998 147 8.59998C146.6 8.79998 146.4 9.19998 146.4 9.59998C146.4 9.99998 146.7 10.3 147.3 10.6C147.7 10.8 148.4 11 149.5 11.3C150.8 11.6 151.7 12 152.3 12.4C153.2 13 153.6 13.7 153.6 14.7C153.6 17 151.9 18.2 148.7 18.2C145.6 18.2 144 16.9 143.8 14.3H146C146.1 15.1 146.4 15.6 146.8 15.9C147.2 16.2 147.8 16.3 148.6 16.3C150.4 16.3 151.3 15.8 151.3 14.8C151.3 14.3 151 13.8 150.3 13.5C150 13.3 149.2 13.1 148.1 12.9C146.8 12.6 145.9 12.3 145.3 11.9C144.4 11.4 144 10.6 144 9.70001C144 8.70001 144.4 7.89999 145.2 7.29999C146 6.69999 147.1 6.40002 148.5 6.40002C151.4 6.40002 153 7.50002 153.3 9.90002Z" fill="white"/>
<path d="M164.4 9.90002H162.2C162 9.30002 161.8 8.90001 161.4 8.70001C161 8.40001 160.4 8.29999 159.6 8.29999C158.9 8.29999 158.4 8.39998 158.1 8.59998C157.7 8.79998 157.5 9.19998 157.5 9.59998C157.5 9.99998 157.8 10.3 158.4 10.6C158.8 10.8 159.5 11 160.6 11.3C161.9 11.6 162.8 12 163.4 12.4C164.3 13 164.7 13.7 164.7 14.7C164.7 17 163 18.2 159.8 18.2C156.7 18.2 155.1 16.9 154.9 14.3H157.1C157.2 15.1 157.5 15.6 157.9 15.9C158.3 16.2 158.9 16.3 159.7 16.3C161.5 16.3 162.4 15.8 162.4 14.8C162.4 14.3 162.1 13.8 161.4 13.5C161.1 13.3 160.3 13.1 159.2 12.9C157.9 12.6 157 12.3 156.4 11.9C155.5 11.4 155.1 10.6 155.1 9.70001C155.1 8.70001 155.5 7.89999 156.3 7.29999C157.1 6.69999 158.2 6.40002 159.6 6.40002C162.6 6.40002 164.2 7.50002 164.4 9.90002Z" fill="white"/>
<path d="M175.6 8.20002C176.5 9.30002 176.9 10.9 176.9 12.8H168.5C168.6 13.9 168.9 14.7 169.4 15.3C169.9 15.9 170.6 16.2 171.5 16.2C172.3 16.2 172.9 16 173.4 15.6C173.8 15.3 174.1 14.8 174.4 14.2H176.7C176.4 15.2 175.9 16.1 175.2 16.8C174.2 17.6 173 18.1 171.5 18.1C169.9 18.1 168.6 17.6 167.6 16.6C166.6 15.5 166.1 14.1 166.1 12.3C166.1 10.6 166.6 9.30002 167.6 8.20002C168.5 7.10002 169.9 6.50001 171.5 6.50001C173.3 6.40001 174.7 7.00002 175.6 8.20002ZM169.5 9.00001C169 9.50001 168.7 10.2 168.6 11.1H174.6C174.4 9.19998 173.4 8.20002 171.6 8.20002C170.7 8.20002 170 8.50001 169.5 9.00001Z" fill="white"/>
<path d="M182.2 6.70001H184.7V8.59998H182.2V15.1C182.2 15.4 182.3 15.6 182.4 15.8C182.5 15.9 182.7 16 183 16H184.5V17.9H182.7C181.8 17.9 181 17.6 180.6 17.1C180.2 16.6 180 16 180 15.1V8.59998H177.9V6.70001H180V4L182.3 3.09998V6.70001H182.2Z" fill="white"/>
<path d="M201 2.40002C202.5 2.40002 203.7 2.7 204.5 3.5C205.3 4.2 205.7 5.09999 205.7 6.29999C205.7 7.19999 205.5 7.9 205.1 8.5C204.7 9.1 204.1 9.49999 203.3 9.79999C204.3 9.99999 205.1 10.4 205.6 11C206.1 11.6 206.4 12.5 206.4 13.5C206.4 15 205.9 16.2 204.8 16.9C203.9 17.5 202.6 17.8 201 17.8H194V2.40002H201ZM196.3 8.90002H200.3C201.4 8.90002 202.1 8.69999 202.6 8.29999C203.1 7.89999 203.3 7.3 203.3 6.5C203.3 5.7 203.1 5.19999 202.6 4.79999C202.1 4.39999 201.4 4.29999 200.3 4.29999H196.2V8.90002H196.3ZM196.3 15.8H200.6C201.6 15.8 202.4 15.6 202.9 15.3C203.6 14.9 204 14.2 204 13.4C204 12.5 203.7 11.8 203.2 11.4C202.7 11 201.8 10.8 200.7 10.8H196.3V15.8Z" fill="white"/>
<path d="M217.2 7.59998C217.9 8.29998 218.2 9.30001 218.2 10.7V17.8H216.1V16.2C215.7 16.8 215.1 17.2 214.5 17.5C213.8 17.8 212.9 18 211.9 18C210.7 18 209.8 17.7 209.2 17.1C208.5 16.5 208.1 15.8 208.1 14.8C208.1 13.6 208.6 12.6 209.6 11.9C210.5 11.3 211.8 10.9 213.4 10.9L215.9 10.8V10.3C215.9 8.79999 215.1 8 213.4 8C212.7 8 212.1 8.10002 211.7 8.40002C211.2 8.70002 210.9 9.19999 210.7 9.79999L208.4 9.59998C208.6 8.39998 209.2 7.50002 210.2 6.90002C211 6.40002 212.1 6.09998 213.5 6.09998C215.2 6.39998 216.4 6.79998 217.2 7.59998ZM213.6 12.7C211.5 12.7 210.5 13.5 210.5 14.9C210.5 15.3 210.7 15.7 211 16C211.3 16.3 211.8 16.4 212.4 16.4C213.4 16.4 214.2 16.1 214.9 15.5C215.6 14.9 216 14.2 216 13.3V12.7H213.6Z" fill="white"/>
<path d="M223.3 2.09998V17.8H221V2.09998H223.3Z" fill="white"/>
<path d="M234.8 7.59998C235.5 8.29998 235.8 9.30001 235.8 10.7V17.8H233.7V16.2C233.3 16.8 232.7 17.2 232.1 17.5C231.4 17.8 230.5 18 229.5 18C228.3 18 227.4 17.7 226.8 17.1C226.1 16.5 225.7 15.8 225.7 14.8C225.7 13.6 226.2 12.6 227.2 11.9C228.1 11.3 229.4 10.9 231 10.9L233.5 10.8V10.3C233.5 8.79999 232.7 8 231 8C230.3 8 229.7 8.10002 229.3 8.40002C228.8 8.70002 228.5 9.19999 228.3 9.79999L226 9.59998C226.2 8.39998 226.8 7.50002 227.8 6.90002C228.6 6.40002 229.7 6.09998 231.1 6.09998C232.8 6.39998 234 6.79998 234.8 7.59998ZM231.2 12.7C229.1 12.7 228.1 13.5 228.1 14.9C228.1 15.3 228.3 15.7 228.6 16C228.9 16.3 229.4 16.4 230 16.4C231 16.4 231.8 16.1 232.5 15.5C233.2 14.9 233.6 14.2 233.6 13.3V12.7H231.2Z" fill="white"/>
<path d="M248.2 10.9001V17.8H245.9V11.1C245.9 9.20003 245 8.30004 243.3 8.30004C242.7 8.30004 242.1 8.50005 241.6 9.00005C241.1 9.50005 240.8 10.2 240.7 11.1V17.8H238.4V6.70006H240.7V8.10003C241.1 7.50003 241.6 7.10008 242.2 6.90008C242.8 6.60008 243.4 6.50005 244.1 6.50005C246.8 6.40005 248.2 7.90008 248.2 10.9001Z" fill="white"/>
<path d="M259.1 7.29999C260 7.99999 260.5 9.00002 260.7 10.4H258.4C258.2 9.60002 257.9 9.10001 257.5 8.70001C257 8.30001 256.4 8.20001 255.6 8.20001C254.7 8.20001 253.9 8.49999 253.4 9.29999C252.8 9.99999 252.6 11 252.6 12.2C252.6 13.4 252.9 14.4 253.4 15.1C253.9 15.8 254.6 16.2 255.6 16.2C257.3 16.2 258.2 15.3 258.5 13.7H260.8C260.5 15.2 260 16.3 259.1 17C258.2 17.7 257.1 18.1 255.7 18.1C254 18.1 252.7 17.5 251.7 16.4C250.8 15.3 250.3 13.9 250.3 12.2C250.3 10.5 250.8 9.09998 251.7 8.09998C252.7 6.89998 254 6.40002 255.7 6.40002C257.1 6.40002 258.3 6.69999 259.1 7.29999Z" fill="white"/>
<path d="M271.6 8.20002C272.5 9.30002 272.9 10.9 272.9 12.8H264.5C264.6 13.9 264.9 14.7 265.4 15.3C265.9 15.9 266.6 16.2 267.5 16.2C268.3 16.2 268.9 16 269.4 15.6C269.8 15.3 270.1 14.8 270.4 14.2H272.7C272.4 15.2 271.9 16.1 271.2 16.8C270.2 17.6 269 18.1 267.5 18.1C265.9 18.1 264.6 17.6 263.6 16.6C262.6 15.5 262.1 14.1 262.1 12.3C262.1 10.6 262.6 9.30002 263.6 8.20002C264.5 7.10002 265.9 6.50001 267.5 6.50001C269.3 6.40001 270.7 7.00002 271.6 8.20002ZM265.5 9.00001C265 9.50001 264.7 10.2 264.6 11.1H270.6C270.4 9.19998 269.4 8.20002 267.6 8.20002C266.7 8.20002 266 8.50001 265.5 9.00001Z" fill="white"/>
<path d="M340.9 11.2999H339.2V17.2H333.6V0.199968H341.6C346.8 0.0999684 349.3 1.69996 349.1 4.99996C349 7.19996 348.1 8.59997 346.2 9.19997C348.3 9.59997 349.3 11.1 349.2 13.7C349.2 13.9 349.2 14.1 349.2 14.4C349.1 16.1 349.3 16.7999 349.8 16.5999V17.2H344.2C344 16.8 343.9 15.8 343.9 14.2C344.2 12.1 343.2 11.1999 340.9 11.2999ZM339.2 4.19997V7.49996H341.4C343.2 7.59996 344.1 6.99998 344.1 5.89998C344 4.79998 343.3 4.19993 341.8 4.09993H339.2V4.19997Z" fill="#DC5F62"/>
<path d="M365.7 12.2H356.3C356.4 13.7 357.3 14.5 358.8 14.6C359.6 14.6 360.2 14.3 360.7 13.6H365.3C364.6 16.1 362.3 17.4 358.5 17.5C354 17.4 351.7 15.3 351.5 11.2C351.7 7.00001 354.1 4.8 358.5 4.5C363.1 4.7 365.6 7.30001 365.7 12.2ZM356.3 9.70001H360.8C360.7 8.40001 359.9 7.69998 358.6 7.59998C357.1 7.59998 356.3 8.30001 356.3 9.70001Z" fill="#DC5F62"/>
<path d="M379.7 4.8999L381.6 12.5999L383.5 4.8999H388.1L384.2 17.2999H379.4L377.5 9.99988H377.4L375.7 17.2999H371L366.8 4.8999H371.6L373.5 12.5999L375.4 4.8999H379.7Z" fill="#DC5F62"/>
<path d="M403.6 17.2999H398.5L398.3 15.9999C397.2 16.9999 395.6 17.4999 393.6 17.4999C390.8 17.3999 389.3 16.1999 389.2 13.8999C389.2 11.5999 391.2 10.1999 395.1 9.69992C397.1 9.49992 398.1 9.09991 398.1 8.49991C398.1 7.79991 397.5 7.49991 396.4 7.49991C395.4 7.49991 394.8 7.89992 394.7 8.69992H390C389.9 5.89992 392.2 4.49991 396.8 4.49991C401.4 4.29991 403.4 5.99992 403 9.69992V15.3999C402.9 16.0999 403.2 16.6999 403.6 16.9999V17.2999ZM395.9 14.8999C397.4 14.8999 398.2 13.8999 398.1 11.7999C397.7 11.9999 397.1 12.0999 396.3 12.2999C394.9 12.4999 394.2 12.9999 394.3 13.7999C394.4 14.3999 394.9 14.7999 395.9 14.8999Z" fill="#DC5F62"/>
<path d="M405.6 17.3V4.90002H410.1V7.40002C410.8 5.50002 412.1 4.5 413.9 4.5C414 4.5 414.1 4.49998 414.3 4.59998C414.4 4.59998 414.5 4.59998 414.6 4.59998V9.5C414.5 9.5 414.4 9.50002 414.1 9.40002C413.9 9.30002 413.7 9.29999 413.5 9.29999C411.5 9.19999 410.5 10.5 410.5 13V17.3H405.6Z" fill="#DC5F62"/>
<path d="M429.5 17.2999H425.2V15.5999C424.2 16.8999 422.9 17.5 421.3 17.4C417.7 17.3 415.8 15.2 415.7 11.2C415.9 6.99995 417.6 4.79996 421 4.39996C422.6 4.29996 423.8 4.89994 424.7 5.99994V0.199951H429.6V17.2999H429.5ZM422.5 13.9999C423.9 13.9999 424.7 12.9999 424.7 11.0999C424.6 9.19991 423.9 8.19995 422.6 8.19995C421.3 8.29995 420.6 9.19995 420.6 11.2C420.6 13.1 421.2 13.9999 422.5 13.9999Z" fill="#DC5F62"/>
<path d="M431.3 13.4H436C436 14 436.2 14.4 436.6 14.6C436.9 14.8 437.3 14.9 437.8 15C438.8 14.9 439.4 14.6 439.4 13.9C439.4 13.3 438.5 12.9 436.8 12.6C433.5 11.9 431.8 10.6 431.8 8.59998C431.9 5.99998 433.8 4.7 437.6 4.5C441.5 4.5 443.6 5.80002 443.8 8.40002H439.3C439.3 8.00002 439.1 7.79998 438.8 7.59998C438.5 7.39998 438.2 7.20001 437.8 7.20001C436.9 7.20001 436.4 7.49998 436.4 8.09998C436.4 8.49998 437.2 8.90001 438.9 9.20001C442.5 10 444.3 11.4 444.3 13.3C444.2 16 442 17.4 437.6 17.5C433.7 17.4 431.6 16 431.3 13.4Z" fill="#DC5F62"/>
<path d="M112 65.8999L92 74.7999V76.8999L112 67.9999V65.8999Z" fill="#F4F7F9"/>
<path d="M108.6 62.2L92 69.2999L92.1 71.4L112 62.5999V61.7L92 53.2V55.0999L108.6 62.2Z" fill="#F4F7F9"/>
</svg>
