<svg width="484" height="60" viewBox="0 0 484 60" fill="none" xmlns="http://www.w3.org/2000/svg">
<path d="M50.6 18H32.9C32.7 16.1 31.8 14.9 30.1 14.3C29.1 13.5 27.5 13.1 25.4 13.1C21.3 13.1 19.2 14.2 19.2 16.5C19.2 18.6 22.9 20.5 30.4 22.4C44.9 25.9 52.1 31.9 52.1 40.4C51.7 53 42.8 59.3999 25.4 59.5999C10.3 58.9999 1.8 52.8 0 41H18C18.6 43.1 19.7 44.6 21.1 45.7C22.5 46.5 24.3 46.9 26.4 46.9C31.8 46.9 34.5 45.6 34.5 42.9C34.5 40.6 30.9 38.7 23.6 37C8.90001 33.5 1.60001 27.3 1.60001 18.4C2.00001 6.59996 10.2 0.499976 26.1 0.0999756C40.6 0.199976 48.8 6.19997 50.6 18Z" fill="#DC5F62"/>
<path d="M77.6 1.5L98.1 32.5L97.5 19.5V1.5H115.5V58.5H97.8L77.3 27.5L78.2 40.5V58.5H60.2V1.5H77.6Z" fill="#DC5F62"/>
<path d="M139.9 58.5999H121.6L142.1 1.59998H161L181.5 58.5999H162.9L160.7 51.2H142.1L139.9 58.5999ZM157.6 39L151.4 18.5L145.5 39H157.6Z" fill="#DC5F62"/>
<path d="M205.6 58.5999H187V1.59998H214.3C230.2 1.79998 238.4 8.19996 238.8 20.8C238.6 34 230.6 40.7 214.9 41H205.6V58.5999ZM205.6 27.6H213.4C218.4 27.6 220.8 25.3 220.8 20.8C220.8 16.9 217.5 14.9 210.9 14.9H205.6V27.6Z" fill="#DC5F62"/>
<path d="M292.4 18H274.7C274.5 16.1 273.6 14.9 271.9 14.3C270.9 13.5 269.3 13.1 267.2 13.1C263.1 13.1 261 14.2 261 16.5C261 18.6 264.7 20.5 272.2 22.4C286.7 25.9 293.9 31.9 293.9 40.4C293.5 53 284.6 59.3999 267.2 59.5999C252.1 58.9999 243.6 52.8 241.8 41H259.8C260.4 43.1 261.5 44.6 262.9 45.7C264.3 46.5 266.1 46.9 268.2 46.9C273.6 46.9 276.3 45.6 276.3 42.9C276.3 40.6 272.7 38.7 265.4 37C250.7 33.5 243.4 27.3 243.4 18.4C243.8 6.59996 252 0.499976 267.9 0.0999756C282.4 0.199976 290.6 6.19997 292.4 18Z" fill="#DC5F62"/>
<path d="M320.7 58.6H302.1V1.60001H320.7V20.8H338.4V1.5H357.3V58.5H338.4V36.5H320.7V58.6Z" fill="#DC5F62"/>
<path d="M395.4 0C414.2 0.8 424.2 10.7 425.5 29.8C424.7 48.8 414.6 58.7 395.4 59.6C376.2 59 366.3 49 365.6 29.5C366.6 10.8 376.6 1 395.4 0ZM395.4 13.9C388.4 14.1 384.6 19.4 384.2 29.7C384.6 40.4 388.3 45.9 395.4 46.1C402.8 45.9 406.7 40.4 406.9 29.7C406.4 19.2 402.6 13.9 395.4 13.9Z" fill="#DC5F62"/>
<path d="M431 16.4V1.5H483.4V16.4H466.7V58.6H447.8V16.4H431Z" fill="#DC5F62"/>
</svg>
