<svg width="214" height="73" viewBox="0 0 214 73" fill="none" xmlns="http://www.w3.org/2000/svg">
<path d="M62 22.5H40.5C40.2 20.2 39.1 18.7 37.1 18C35.8 17 34 16.5 31.5 16.5C26.5 16.5 24 17.9 24 20.6C24 23.1 28.5 25.5 37.6 27.8C55.2 32.1 64 39.4 64 49.6C63.5 64.9 52.7 72.7 31.6 72.9C13.3 72.1 3.00001 64.6 0.700012 50.3H22.5C23.3 52.8 24.5 54.7 26.3 55.9C28.1 56.9 30.2 57.4 32.7 57.4C39.2 57.4 42.5 55.8 42.5 52.5C42.5 49.7 38.1 47.4 29.3 45.3C11.5 41 2.60001 33.5 2.60001 22.7C3.10001 8.40001 13 1 32.4 0.5C49.8 0.9 59.7 8.2 62 22.5Z" fill="#DC5F62"/>
<path d="M94.8 2.59998L119.7 40.3L118.9 24.5V2.69998H140.7V72H119.2L94.3 34.3L95.4 50.1V71.9H73.6V2.59998H94.8Z" fill="#DC5F62"/>
<path d="M211.5 22.5H190C189.7 20.2 188.6 18.7 186.6 18C185.3 17 183.5 16.5 181 16.5C176 16.5 173.5 17.9 173.5 20.6C173.5 23.1 178 25.5 187.1 27.8C204.7 32.1 213.5 39.4 213.5 49.6C213 64.9 202.2 72.7 181.1 72.9C162.8 72.1 152.5 64.6 150.2 50.3H172C172.8 52.8 174 54.7 175.8 55.9C177.6 56.9 179.7 57.4 182.2 57.4C188.7 57.4 192 55.8 192 52.5C192 49.7 187.6 47.4 178.8 45.3C161 41 152.1 33.5 152.1 22.7C152.6 8.40001 162.5 1 181.9 0.5C199.3 0.9 209.3 8.2 211.5 22.5Z" fill="#DC5F62"/>
</svg>
