<svg width="160" height="55" viewBox="0 0 160 55" fill="none" xmlns="http://www.w3.org/2000/svg">
<path d="M45.9 16.4H29.8C29.6 14.7 28.8 13.6 27.3 13C26.4 12.2 24.9 11.9 23.1 11.9C19.3 11.9 17.5 12.9 17.5 15C17.5 16.9 20.9 18.7 27.7 20.4C40.9 23.6 47.5 29.1 47.5 36.8C47.1 48.3 39 54.1 23.2 54.3C9.50001 53.7 1.7 48.1 0 37.4H16.4C17 39.3 17.9 40.7 19.2 41.6C20.5 42.4 22.1 42.7 24 42.7C28.9 42.7 31.3 41.5 31.3 39C31.3 36.9 28 35.1 21.4 33.6C7.99999 30.4 1.30002 24.8 1.30002 16.7C1.70002 6.00001 9.10001 0.4 23.6 0C36.7 0.2 44.2 5.69999 45.9 16.4Z" fill="#DC5F62"/>
<path d="M70.4 1.40005L89 29.6001L88.4 17.7001V1.30005H104.8V53.3H88.7L70.1 25.2001L70.9 37.1001V53.5001H54.5V1.50006H70.4V1.40005Z" fill="#DC5F62"/>
<path d="M158 16.4H141.9C141.7 14.7 140.9 13.6 139.4 13C138.5 12.2 137 11.9 135.2 11.9C131.4 11.9 129.6 12.9 129.6 15C129.6 16.9 133 18.7 139.8 20.4C153 23.6 159.6 29.1 159.6 36.8C159.2 48.3 151.1 54.1 135.3 54.3C121.6 53.7 113.8 48.1 112.1 37.4H128.5C129.1 39.3 130 40.7 131.3 41.6C132.6 42.4 134.2 42.7 136.1 42.7C141 42.7 143.4 41.5 143.4 39C143.4 36.9 140.1 35.1 133.5 33.6C120.1 30.4 113.4 24.8 113.4 16.7C113.8 6.00001 121.2 0.4 135.7 0C148.9 0.2 156.3 5.69999 158 16.4Z" fill="#DC5F62"/>
</svg>
